<svg xmlns="http://www.w3.org/2000/svg" width="331.656" height="222.188" viewBox="0 0 331.656 222.188">
  <g id="Grupo_43968" data-name="Grupo 43968" transform="translate(-180.99 -2613.639)">
    <g id="Grupo_11206" data-name="Grupo 11206" transform="translate(180.99 2613.639)">
      <path id="Trazado_9224" data-name="Trazado 9224" d="M405.929,597.211l-.092,199.059a11.74,11.74,0,0,1-12,11.456l-307.574-.2a11.737,11.737,0,0,1-11.987-11.471l.092-199.061a11.737,11.737,0,0,1,12-11.454l307.571.2A11.739,11.739,0,0,1,405.929,597.211Z" transform="translate(-74.273 -585.539)" fill="#232324"/>
      <g id="Grupo_11205" data-name="Grupo 11205" transform="translate(27.808 4.016)">
        <path id="Trazado_9225" data-name="Trazado 9225" d="M360.055,595.628l-.094,197.9a8.194,8.194,0,0,1-8.353,8.024l-256-.178a8.2,8.2,0,0,1-8.343-8.035l.094-197.9a8.194,8.194,0,0,1,8.354-8.024l256,.178A8.193,8.193,0,0,1,360.055,595.628Z" transform="translate(-87.269 -587.416)" fill="#fff"/>
      </g>
      <path id="Trazado_9226" data-name="Trazado 9226" d="M227,633.042c12.462.317,12.46,18.584,0,18.9C214.539,651.625,214.543,633.357,227,633.042Z" transform="translate(89.145 -531.398)" fill="#6e6e6e"/>
      <path id="Trazado_9227" data-name="Trazado 9227" d="M82.732,635.392c5.809.1,5.809,8.743,0,8.841C76.922,644.135,76.922,635.49,82.732,635.392Z" transform="translate(-69.598 -528.72)" fill="#6e6e6e"/>
    </g>
    <g id="Grupo_11207" data-name="Grupo 11207" transform="translate(208.798 2616.887)">
      <path id="Trazado_9228" data-name="Trazado 9228" d="M87.269,687.953a8.2,8.2,0,0,0,8.343,8.037l256,.175a8.191,8.191,0,0,0,8.353-8.022l0-7.059H87.273Z" transform="translate(-87.269 -479.89)" fill="#d3097f"/>
      <path id="Trazado_9229" data-name="Trazado 9229" d="M360.007,595.269a8.192,8.192,0,0,0-8.343-8.035l-256-.178a8.191,8.191,0,0,0-8.354,8.024l0,7.057H360Z" transform="translate(-87.221 -587.057)" fill="#d3097f"/>
    </g>
    <g id="Grupo_11208" data-name="Grupo 11208" transform="translate(286.895 2640.95)">
      <path id="Trazado_9230" data-name="Trazado 9230" d="M138.623,616.674h-3.76v-7.823h-7.335v7.823h-3.762V598.42h3.762v7.4h7.335v-7.4h3.76Z" transform="translate(-123.767 -598.17)"/>
      <path id="Trazado_9231" data-name="Trazado 9231" d="M143.48,612.912h-6.6l-1.252,3.762h-4l6.8-18.254h3.486l6.832,18.254h-4Zm-5.58-3.045h4.564l-2.294-6.834Z" transform="translate(-114.805 -598.17)"/>
      <path id="Trazado_9232" data-name="Trazado 9232" d="M150.3,612.019a1.933,1.933,0,0,0-.751-1.637,9.881,9.881,0,0,0-2.709-1.2,19.4,19.4,0,0,1-3.1-1.247q-3.11-1.682-3.109-4.528a4.4,4.4,0,0,1,.832-2.638,5.465,5.465,0,0,1,2.394-1.812,9.03,9.03,0,0,1,3.5-.651,8.2,8.2,0,0,1,3.486.708,5.527,5.527,0,0,1,2.375,2,5.234,5.234,0,0,1,.847,2.934h-3.762a2.464,2.464,0,0,0-.79-1.949,3.255,3.255,0,0,0-2.219-.7,3.462,3.462,0,0,0-2.144.584,1.836,1.836,0,0,0-.766,1.534,1.764,1.764,0,0,0,.9,1.494,10.2,10.2,0,0,0,2.64,1.128,11.409,11.409,0,0,1,4.675,2.394,4.769,4.769,0,0,1,1.468,3.56,4.388,4.388,0,0,1-1.793,3.717,7.852,7.852,0,0,1-4.827,1.348,9.332,9.332,0,0,1-3.837-.77,6.063,6.063,0,0,1-2.638-2.112,5.4,5.4,0,0,1-.909-3.109h3.774q0,3.02,3.61,3.021a3.518,3.518,0,0,0,2.095-.546A1.775,1.775,0,0,0,150.3,612.019Z" transform="translate(-105.188 -598.303)"/>
      <path id="Trazado_9233" data-name="Trazado 9233" d="M162.66,616.674H158.9v-7.823h-7.335v7.823H147.8V598.42h3.762v7.4H158.9v-7.4h3.762Z" transform="translate(-96.374 -598.17)"/>
      <path id="Trazado_9234" data-name="Trazado 9234" d="M171.793,616.807H159.28v-2.482l5.906-6.293a14.66,14.66,0,0,0,1.8-2.32,3.722,3.722,0,0,0,.582-1.881,2.785,2.785,0,0,0-.614-1.913,2.212,2.212,0,0,0-1.755-.7,2.391,2.391,0,0,0-1.936.845,3.353,3.353,0,0,0-.708,2.225h-3.635a5.978,5.978,0,0,1,.8-3.045,5.6,5.6,0,0,1,2.249-2.163,6.843,6.843,0,0,1,3.3-.783,6.475,6.475,0,0,1,4.382,1.354,4.782,4.782,0,0,1,1.562,3.824,6.16,6.16,0,0,1-.7,2.758,15.391,15.391,0,0,1-2.407,3.272l-4.151,4.376h7.849Z" transform="translate(-83.704 -598.303)"/>
      <path id="Trazado_9235" data-name="Trazado 9235" d="M166.471,607.7l1.053-9.278h10.232v3.021H170.5l-.451,3.924a5.736,5.736,0,0,1,2.745-.689,5.259,5.259,0,0,1,4.087,1.618,6.457,6.457,0,0,1,1.481,4.526,6.6,6.6,0,0,1-.747,3.165,5.248,5.248,0,0,1-2.138,2.17,6.674,6.674,0,0,1-3.285.77,7.092,7.092,0,0,1-3.073-.67,5.436,5.436,0,0,1-2.236-1.887,5.151,5.151,0,0,1-.873-2.771h3.586a2.671,2.671,0,0,0,.8,1.774,2.526,2.526,0,0,0,1.787.633,2.23,2.23,0,0,0,1.894-.884,4.094,4.094,0,0,0,.663-2.5,3.389,3.389,0,0,0-.764-2.382,2.8,2.8,0,0,0-2.17-.828,3.145,3.145,0,0,0-2.093.676l-.351.327Z" transform="translate(-75.625 -598.17)"/>
      <path id="Trazado_9236" data-name="Trazado 9236" d="M182.68,598.332v2.985h-.351a6.144,6.144,0,0,0-3.956,1.277,5.2,5.2,0,0,0-1.8,3.449,4.937,4.937,0,0,1,3.674-1.481,4.655,4.655,0,0,1,3.787,1.705,6.838,6.838,0,0,1,1.4,4.489,6.716,6.716,0,0,1-.772,3.223,5.529,5.529,0,0,1-2.18,2.242,6.344,6.344,0,0,1-3.19.8,5.919,5.919,0,0,1-4.658-2,7.784,7.784,0,0,1-1.774-5.354v-1.3a11.742,11.742,0,0,1,1.121-5.249,8.238,8.238,0,0,1,3.222-3.522,9.434,9.434,0,0,1,4.87-1.26Zm-3.537,9.152a2.9,2.9,0,0,0-1.592.458,2.761,2.761,0,0,0-1.053,1.207v1.1a4.879,4.879,0,0,0,.715,2.835,2.313,2.313,0,0,0,2.007,1.018,2.277,2.277,0,0,0,1.885-.92,4.316,4.316,0,0,0-.006-4.787A2.372,2.372,0,0,0,179.143,607.484Z" transform="translate(-67.811 -598.27)"/>
    </g>
    <rect id="Rectángulo_20045" data-name="Rectángulo 20045" width="153.004" height="12.949" transform="translate(219.075 2686.409)" fill="#b6b5b5"/>
    <rect id="Rectángulo_20046" data-name="Rectángulo 20046" width="153.004" height="12.949" transform="translate(219.075 2708.809)" fill="#b6b5b5"/>
    <rect id="Rectángulo_20047" data-name="Rectángulo 20047" width="106.542" height="12.949" transform="translate(219.075 2727.706)" fill="#b6b5b5"/>
    <rect id="Rectángulo_20048" data-name="Rectángulo 20048" width="153.004" height="12.949" transform="translate(219.075 2749.978)" fill="#b6b5b5"/>
    <rect id="Rectángulo_20049" data-name="Rectángulo 20049" width="153.004" height="12.949" transform="translate(219.075 2772.377)" fill="#b6b5b5"/>
    <rect id="Rectángulo_20050" data-name="Rectángulo 20050" width="106.542" height="12.949" transform="translate(219.075 2791.274)" fill="#b6b5b5"/>
    <g id="Grupo_11217" data-name="Grupo 11217" transform="translate(407.419 2688.465)">
      <g id="Grupo_11212" data-name="Grupo 11212">
        <g id="Grupo_11210" data-name="Grupo 11210">
          <g id="Grupo_11209" data-name="Grupo 11209">
            <path id="Trazado_9237" data-name="Trazado 9237" d="M217.464,620.509H194.633a2.62,2.62,0,0,0-2.578,2.155l-.886,4.872c-.013.071-.019.141-.026.21h-6.03a5.019,5.019,0,0,0-5.02,5.018v23.413a5.019,5.019,0,0,0,5.02,5.02h41.872a5.018,5.018,0,0,0,5.018-5.02V632.763a5.018,5.018,0,0,0-5.018-5.018h-6.03c-.009-.068-.015-.139-.028-.21l-.884-4.872a2.622,2.622,0,0,0-2.58-2.155Z" transform="translate(-180.094 -620.509)" fill="#fff"/>
          </g>
        </g>
        <g id="Grupo_11211" data-name="Grupo 11211" transform="translate(16.489 14.341)">
          <path id="Trazado_9238" data-name="Trazado 9238" d="M197.183,628.469a8.126,8.126,0,1,1-8.127,8.127,8.135,8.135,0,0,1,8.127-8.127m0-1.258a9.384,9.384,0,1,0,9.383,9.385,9.384,9.384,0,0,0-9.383-9.385Z" transform="translate(-187.8 -627.211)" fill="#fff"/>
        </g>
      </g>
      <g id="Grupo_11216" data-name="Grupo 11216">
        <g id="Grupo_11214" data-name="Grupo 11214">
          <g id="Grupo_11213" data-name="Grupo 11213">
            <path id="Trazado_9239" data-name="Trazado 9239" d="M217.464,621.767a1.363,1.363,0,0,1,1.344,1.121l.886,4.872c0,.028.006.056.009.083l0,.03a1.258,1.258,0,0,0,1.252,1.13h6.03a3.765,3.765,0,0,1,3.762,3.76v23.413a3.766,3.766,0,0,1-3.762,3.762H185.114a3.764,3.764,0,0,1-3.762-3.762V632.763a3.764,3.764,0,0,1,3.762-3.76h6.03a1.258,1.258,0,0,0,1.252-1.134l0-.024c0-.028,0-.056.009-.085l.886-4.872a1.363,1.363,0,0,1,1.342-1.121h22.831m0-1.258H194.633a2.62,2.62,0,0,0-2.578,2.155l-.886,4.872c-.013.071-.019.141-.026.21h-6.03a5.019,5.019,0,0,0-5.02,5.018v23.413a5.019,5.019,0,0,0,5.02,5.02h41.872a5.018,5.018,0,0,0,5.018-5.02V632.763a5.018,5.018,0,0,0-5.018-5.018h-6.03c-.009-.068-.015-.139-.028-.21l-.884-4.872a2.622,2.622,0,0,0-2.58-2.155Z" transform="translate(-180.094 -620.509)"/>
          </g>
        </g>
        <g id="Grupo_11215" data-name="Grupo 11215" transform="translate(16.489 14.341)">
          <path id="Trazado_9240" data-name="Trazado 9240" d="M197.183,628.469a8.126,8.126,0,1,1-8.127,8.127,8.135,8.135,0,0,1,8.127-8.127m0-1.258a9.384,9.384,0,1,0,9.383,9.385,9.384,9.384,0,0,0-9.383-9.385Z" transform="translate(-187.8 -627.211)"/>
        </g>
      </g>
    </g>
  </g>
</svg>
