<svg xmlns="http://www.w3.org/2000/svg" width="731.388" height="244.501" viewBox="0 0 731.388 244.501">
  <g id="Grupo_12152" data-name="Grupo 12152" transform="translate(-717.137 -5212.5)">
    <rect id="Rectángulo_16247" data-name="Rectángulo 16247" width="730.889" height="242.468" transform="translate(717.137 5213.033)" fill="#f9f9f9"/>
    <rect id="Rectángulo_16248" data-name="Rectángulo 16248" width="149.305" height="156.691" transform="translate(1115.047 5269.602)" fill="#d3e5f3"/>
    <g id="Grupo_7210" data-name="Grupo 7210" transform="translate(1133.891 5291.852)">
      <g id="Grupo_7208" data-name="Grupo 7208" transform="translate(0)">
        <path id="Trazado_8163" data-name="Trazado 8163" d="M6845.127,679.448H6780.2v-84.2l49.132-.03,15.827,16.883Z" transform="translate(-6761.382 -595.223)" fill="none" stroke="#e6007e" stroke-width="1"/>
        <rect id="Rectángulo_16249" data-name="Rectángulo 16249" width="64.929" height="16.891" transform="translate(18.817 67.595)" fill="#c6006d"/>
        <rect id="Rectángulo_16250" data-name="Rectángulo 16250" width="64.929" height="16.891" transform="translate(18.817 50.704)" fill="#a5005d"/>
        <rect id="Rectángulo_16251" data-name="Rectángulo 16251" width="64.929" height="16.891" transform="translate(18.817 33.813)" fill="#82004b"/>
        <rect id="Rectángulo_16252" data-name="Rectángulo 16252" width="64.929" height="16.891" transform="translate(18.817 16.921)" fill="#620038"/>
        <path id="Trazado_8164" data-name="Trazado 8164" d="M6780.2,612.273V595.381l49.264.1,15.665,16.789Z" transform="translate(-6761.382 -595.352)" fill="#3f0225"/>
        <path id="Trazado_8165" data-name="Trazado 8165" d="M6780.2,596.076v84.2h64.929S6780.2,679.984,6780.2,596.076Z" transform="translate(-6761.382 -595.915)" fill="#fff" opacity="0.27"/>
        <rect id="Rectángulo_16253" data-name="Rectángulo 16253" width="31.526" height="33.74" transform="translate(0 27.989)" fill="#f188be"/>
        <g id="Grupo_7207" data-name="Grupo 7207" transform="translate(8.354 35.088)">
          <path id="Trazado_8166" data-name="Trazado 8166" d="M6732.506,786.429l2.837-5.033h4.813l-4.8,8.258,5,8.6h-4.83l-3.008-5.3-2.992,5.3h-4.845l5-8.6L6724.9,781.4h4.832Z" transform="translate(-6724.685 -781.396)" fill="#fff"/>
        </g>
        <path id="Trazado_8167" data-name="Trazado 8167" d="M7042.638,596.076v16.761l15.365.093Z" transform="translate(-6974.359 -595.915)" fill="#c6006d"/>
      </g>
    </g>
    <g id="Grupo_7214" data-name="Grupo 7214" transform="translate(1321.176 5291.852)">
      <g id="Grupo_7212" data-name="Grupo 7212" transform="translate(2.587 94.695)">
        <g id="Grupo_7211" data-name="Grupo 7211">
          <path id="Trazado_8202" data-name="Trazado 8202" d="M7689.19,1104.584h3.649v1.115h-5.047v-8.039h1.4Z" transform="translate(-7687.793 -1097.66)" fill="#3f0225"/>
          <path id="Trazado_8203" data-name="Trazado 8203" d="M7724.953,1102.11h-3.3v2.474h3.859v1.115h-5.257v-8.039h5.218v1.127h-3.82v2.219h3.3Z" transform="translate(-7714.136 -1097.66)" fill="#3f0225"/>
          <path id="Trazado_8204" data-name="Trazado 8204" d="M7758.879,1102.11h-3.3v2.474h3.86v1.115h-5.256v-8.039h5.218v1.127h-3.822v2.219h3.3Z" transform="translate(-7741.668 -1097.66)" fill="#3f0225"/>
          <path id="Trazado_8205" data-name="Trazado 8205" d="M7789.917,1097.66l2.319,6.162,2.313-6.162h1.806v8.039h-1.392v-2.65l.138-3.545-2.374,6.2h-1l-2.369-6.189.138,3.539v2.65h-1.392v-8.039Z" transform="translate(-7769.2 -1097.66)" fill="#3f0225"/>
          <path id="Trazado_8206" data-name="Trazado 8206" d="M7845.334,1102.11h-3.3v2.474h3.859v1.115h-5.256v-8.039h5.218v1.127h-3.821v2.219h3.3Z" transform="translate(-7811.829 -1097.66)" fill="#3f0225"/>
          <path id="Trazado_8207" data-name="Trazado 8207" d="M7874.959,1132.816a.769.769,0,0,1,.58.213.74.74,0,0,1,.2.533.714.714,0,0,1-.2.522.906.906,0,0,1-1.149,0,.7.7,0,0,1-.209-.525.736.736,0,0,1,.2-.533A.758.758,0,0,1,7874.959,1132.816Z" transform="translate(-7839.052 -1126.19)" fill="#3f0225"/>
          <path id="Trazado_8208" data-name="Trazado 8208" d="M7889.542,1100.912v1.452h1.055v.994h-1.055v3.335a.737.737,0,0,0,.135.494.628.628,0,0,0,.483.152,2.069,2.069,0,0,0,.47-.055v1.038a3.311,3.311,0,0,1-.884.127q-1.545,0-1.546-1.706v-3.385h-.983v-.994h.983v-1.452Z" transform="translate(-7849.631 -1100.299)" fill="#3f0225"/>
          <path id="Trazado_8209" data-name="Trazado 8209" d="M7910.5,1110.583l1.137-1.966h1.491l-1.828,2.943,1.889,3.031h-1.48l-1.192-2.043-1.187,2.043h-1.491l1.889-3.031-1.822-2.943h1.48Z" transform="translate(-7866.369 -1106.552)" fill="#3f0225"/>
          <path id="Trazado_8210" data-name="Trazado 8210" d="M7939.669,1100.912v1.452h1.055v.994h-1.055v3.335a.731.731,0,0,0,.136.494.625.625,0,0,0,.482.152,2.063,2.063,0,0,0,.47-.055v1.038a3.311,3.311,0,0,1-.884.127q-1.545,0-1.546-1.706v-3.385h-.982v-.994h.982v-1.452Z" transform="translate(-7890.312 -1100.299)" fill="#3f0225"/>
        </g>
      </g>
      <g id="Grupo_7213" data-name="Grupo 7213" transform="translate(0)">
        <path id="Trazado_8211" data-name="Trazado 8211" d="M7738.994,679.448h-64.929v-84.2l49.132-.03,15.828,16.883Z" transform="translate(-7674.065 -595.223)" fill="none" stroke="#e6007e" stroke-width="1"/>
        <rect id="Rectángulo_16254" data-name="Rectángulo 16254" width="64.929" height="16.891" transform="translate(0 67.595)" fill="#c6006d"/>
        <rect id="Rectángulo_16255" data-name="Rectángulo 16255" width="64.929" height="16.891" transform="translate(0 50.704)" fill="#a5005d"/>
        <rect id="Rectángulo_16256" data-name="Rectángulo 16256" width="64.929" height="16.891" transform="translate(0 33.813)" fill="#82004b"/>
        <rect id="Rectángulo_16257" data-name="Rectángulo 16257" width="64.929" height="16.891" transform="translate(0 16.921)" fill="#620038"/>
        <path id="Trazado_8212" data-name="Trazado 8212" d="M7674.065,612.273V595.381l49.264.1,15.665,16.789Z" transform="translate(-7674.065 -595.352)" fill="#3f0225"/>
        <path id="Trazado_8213" data-name="Trazado 8213" d="M7674.065,596.076v84.2h64.929S7674.065,679.984,7674.065,596.076Z" transform="translate(-7674.065 -595.915)" fill="#fff" opacity="0.27"/>
        <path id="Trazado_8214" data-name="Trazado 8214" d="M7936.5,596.076v16.761l15.365.093Z" transform="translate(-7887.042 -595.915)" fill="#c6006d"/>
      </g>
    </g>
    <rect id="Rectángulo_16258" data-name="Rectángulo 16258" width="588.779" height="33.765" transform="translate(859.246 5213)" fill="#fff" stroke="#a5005d" stroke-width="1"/>
    <rect id="Rectángulo_16259" data-name="Rectángulo 16259" width="109.473" height="11.343" transform="translate(749.773 5271.297)" fill="#82004b"/>
    <rect id="Rectángulo_16260" data-name="Rectángulo 16260" width="82.83" height="11.343" transform="translate(749.773 5296.885)" fill="#82004b"/>
    <rect id="Rectángulo_16261" data-name="Rectángulo 16261" width="109.473" height="11.343" transform="translate(749.773 5344.104)" fill="#82004b"/>
    <rect id="Rectángulo_16262" data-name="Rectángulo 16262" width="80.192" height="11.343" transform="translate(749.773 5392.641)" fill="#82004b"/>
    <rect id="Rectángulo_16263" data-name="Rectángulo 16263" width="90.744" height="11.343" transform="translate(749.773 5416.91)" fill="#82004b"/>
    <g id="Grupo_7215" data-name="Grupo 7215" transform="translate(730.516 5293.176)">
      <path id="Trazado_8215" data-name="Trazado 8215" d="M4605.648,602.254a1.053,1.053,0,0,1,.463.108v-.108Z" transform="translate(-4593.295 -602.254)" fill="#fff"/>
      <path id="Trazado_8216" data-name="Trazado 8216" d="M4599.136,651.445c0,.583-.728,1.056-1.625,1.056h.925c.9,0,1.625-.473,1.625-1.056v-8.476h-.925Z" transform="translate(-4586.692 -635.295)" fill="#98145e"/>
      <path id="Trazado_8217" data-name="Trazado 8217" d="M4600.125,603.142h-1.674c.8,0,1.454.474,1.454,1.058v6.615h.22c.675,0,1.222-.4,1.222-.889v-5.895C4601.347,603.54,4600.8,603.142,4600.125,603.142Z" transform="translate(-4587.455 -602.975)" fill="#98145e"/>
      <path id="Rectángulo_16264" data-name="Rectángulo 16264" d="M0,0H12.377a0,0,0,0,1,0,0V14.225A2.835,2.835,0,0,1,9.542,17.06H0a0,0,0,0,1,0,0V0A0,0,0,0,1,0,0Z" transform="translate(0.115 0.146)" fill="#98145e"/>
      <path id="Trazado_8218" data-name="Trazado 8218" d="M4550.964,620.833l-10.857-.613.07-16.975,11.448,1.234L4551.5,620.3A.535.535,0,0,1,4550.964,620.833Z" transform="translate(-4540.107 -603.059)" fill="#d3097f"/>
    </g>
    <g id="Grupo_7216" data-name="Grupo 7216" transform="translate(730.637 5267.898)">
      <path id="Trazado_8219" data-name="Trazado 8219" d="M4606.289,468.127a1.046,1.046,0,0,1,.463.108v-.108Z" transform="translate(-4593.937 -468.127)" fill="#fff"/>
      <path id="Trazado_8220" data-name="Trazado 8220" d="M4599.776,517.317c0,.583-.727,1.056-1.625,1.056h.925c.9,0,1.625-.473,1.625-1.056v-8.476h-.926Z" transform="translate(-4587.333 -501.168)" fill="#98145e"/>
      <path id="Trazado_8221" data-name="Trazado 8221" d="M4600.766,469.014h-1.674c.8,0,1.454.474,1.454,1.058v6.616h.22c.675,0,1.222-.4,1.222-.889V469.9C4601.988,469.412,4601.441,469.014,4600.766,469.014Z" transform="translate(-4588.096 -468.847)" fill="#98145e"/>
      <path id="Rectángulo_16265" data-name="Rectángulo 16265" d="M0,0H12.377a0,0,0,0,1,0,0V14.225A2.835,2.835,0,0,1,9.542,17.06H0a0,0,0,0,1,0,0V0A0,0,0,0,1,0,0Z" transform="translate(0.115 0.146)" fill="#98145e"/>
      <path id="Trazado_8222" data-name="Trazado 8222" d="M4551.605,486.706l-10.857-.613.07-16.975,11.448,1.234-.126,15.819A.534.534,0,0,1,4551.605,486.706Z" transform="translate(-4540.748 -468.931)" fill="#d3097f"/>
    </g>
    <g id="Grupo_7217" data-name="Grupo 7217" transform="translate(731 5415.66)">
      <path id="Trazado_8223" data-name="Trazado 8223" d="M4608.207,1252.138a1.052,1.052,0,0,1,.464.108v-.108Z" transform="translate(-4595.854 -1252.138)" fill="#fff"/>
      <path id="Trazado_8224" data-name="Trazado 8224" d="M4601.695,1301.328c0,.583-.728,1.056-1.625,1.056H4601c.9,0,1.625-.473,1.625-1.056v-8.476h-.925Z" transform="translate(-4589.251 -1285.179)" fill="#98145e"/>
      <path id="Trazado_8225" data-name="Trazado 8225" d="M4602.684,1253.025h-1.674c.8,0,1.454.474,1.454,1.058v6.615h.221c.675,0,1.222-.4,1.222-.889v-5.895C4603.906,1253.423,4603.359,1253.025,4602.684,1253.025Z" transform="translate(-4590.014 -1252.858)" fill="#98145e"/>
      <path id="Rectángulo_16266" data-name="Rectángulo 16266" d="M0,0H12.377a0,0,0,0,1,0,0V14.225A2.835,2.835,0,0,1,9.542,17.06H0a0,0,0,0,1,0,0V0A0,0,0,0,1,0,0Z" transform="translate(0.115 0.146)" fill="#98145e"/>
      <path id="Trazado_8226" data-name="Trazado 8226" d="M4553.524,1270.717l-10.857-.613.07-16.975,11.448,1.234-.126,15.819A.534.534,0,0,1,4553.524,1270.717Z" transform="translate(-4542.667 -1252.942)" fill="#d3097f"/>
    </g>
    <g id="Grupo_7218" data-name="Grupo 7218" transform="translate(731.121 5390.381)">
      <path id="Trazado_8227" data-name="Trazado 8227" d="M4608.849,1118.01a1.053,1.053,0,0,1,.463.108v-.108Z" transform="translate(-4596.497 -1118.01)" fill="#fff"/>
      <path id="Trazado_8228" data-name="Trazado 8228" d="M4602.337,1167.2c0,.583-.728,1.056-1.625,1.056h.925c.9,0,1.625-.473,1.625-1.056v-8.476h-.925Z" transform="translate(-4589.893 -1151.051)" fill="#98145e"/>
      <path id="Trazado_8229" data-name="Trazado 8229" d="M4603.326,1118.9h-1.674c.8,0,1.454.474,1.454,1.058v6.616h.221c.675,0,1.222-.4,1.222-.889v-5.895C4604.548,1119.3,4604,1118.9,4603.326,1118.9Z" transform="translate(-4590.656 -1118.731)" fill="#98145e"/>
      <path id="Rectángulo_16267" data-name="Rectángulo 16267" d="M0,0H12.377a0,0,0,0,1,0,0V14.225A2.835,2.835,0,0,1,9.542,17.06H0a0,0,0,0,1,0,0V0A0,0,0,0,1,0,0Z" transform="translate(0.115 0.146)" fill="#98145e"/>
      <path id="Trazado_8230" data-name="Trazado 8230" d="M4554.166,1136.59l-10.857-.613.07-16.975,11.448,1.234-.126,15.819A.534.534,0,0,1,4554.166,1136.59Z" transform="translate(-4543.308 -1118.815)" fill="#d3097f"/>
    </g>
    <g id="Grupo_7219" data-name="Grupo 7219" transform="translate(730.531 5341.295)">
      <path id="Trazado_8231" data-name="Trazado 8231" d="M4605.729,857.56a1.05,1.05,0,0,1,.463.108v-.108Z" transform="translate(-4593.376 -857.56)" fill="#fff"/>
      <path id="Trazado_8232" data-name="Trazado 8232" d="M4599.217,906.75c0,.583-.728,1.056-1.625,1.056h.925c.9,0,1.625-.473,1.625-1.056v-8.476h-.925Z" transform="translate(-4586.773 -890.601)" fill="#98145e"/>
      <path id="Trazado_8233" data-name="Trazado 8233" d="M4600.206,858.447h-1.674c.8,0,1.454.474,1.454,1.058v6.616h.22c.675,0,1.222-.4,1.222-.889v-5.895C4601.428,858.845,4600.881,858.447,4600.206,858.447Z" transform="translate(-4587.536 -858.28)" fill="#98145e"/>
      <path id="Rectángulo_16268" data-name="Rectángulo 16268" d="M0,0H12.377a0,0,0,0,1,0,0V14.225A2.835,2.835,0,0,1,9.542,17.06H0a0,0,0,0,1,0,0V0A0,0,0,0,1,0,0Z" transform="translate(0.115 0.146)" fill="#98145e"/>
      <path id="Trazado_8234" data-name="Trazado 8234" d="M4551.045,876.139l-10.857-.613.069-16.975,11.448,1.234-.126,15.819A.534.534,0,0,1,4551.045,876.139Z" transform="translate(-4540.188 -858.364)" fill="#d3097f"/>
    </g>
    <rect id="Rectángulo_16269" data-name="Rectángulo 16269" width="25.719" height="196.337" transform="translate(900.66 5259.164)" fill="#fff" stroke="#b7b7b6" stroke-width="3"/>
    <rect id="Rectángulo_16270" data-name="Rectángulo 16270" width="25.588" height="84.413" transform="translate(900.793 5289.895)" fill="#b7b7b6"/>
    <path id="Trazado_8235" data-name="Trazado 8235" d="M5483.217,477.128l-6.476,5.54h12.952Z" transform="translate(-4569.696 4792.465)" fill="#b7b7b6"/>
    <g id="Grupo_7222" data-name="Grupo 7222" transform="translate(752.781 5217.65)">
      <g id="Grupo_7220" data-name="Grupo 7220" transform="translate(0)">
        <path id="Trazado_8236" data-name="Trazado 8236" d="M4671.84,228.723a13.6,13.6,0,1,1,13.6-13.6A13.617,13.617,0,0,1,4671.84,228.723Zm0-25.317a11.716,11.716,0,1,0,11.716,11.716A11.73,11.73,0,0,0,4671.84,203.406Z" transform="translate(-4658.239 -201.521)" fill="#b7b7b6"/>
      </g>
      <g id="Grupo_7221" data-name="Grupo 7221" transform="translate(7.025 6.959)">
        <path id="Trazado_8237" data-name="Trazado 8237" d="M4707.378,243.736h-7.119l3.522-3.033a1.286,1.286,0,0,0,.136-1.813h0a1.286,1.286,0,0,0-1.813-.135l-6.146,5.293a1.286,1.286,0,0,0-.07,1.883l5.42,5.42a1.286,1.286,0,0,0,1.818,0h0a1.285,1.285,0,0,0,0-1.818l-3.225-3.225h7.478a1.286,1.286,0,0,0,0-2.571Z" transform="translate(-4695.51 -238.443)" fill="#b7b7b6"/>
      </g>
    </g>
    <g id="Grupo_7225" data-name="Grupo 7225" transform="translate(786.268 5217.65)">
      <g id="Grupo_7223" data-name="Grupo 7223" transform="translate(0)">
        <path id="Trazado_8238" data-name="Trazado 8238" d="M4849.515,228.723a13.6,13.6,0,1,1,13.6-13.6A13.617,13.617,0,0,1,4849.515,228.723Zm0-25.317a11.716,11.716,0,1,0,11.716,11.716A11.729,11.729,0,0,0,4849.515,203.406Z" transform="translate(-4835.913 -201.521)" fill="#a4a4a4"/>
      </g>
      <g id="Grupo_7224" data-name="Grupo 7224" transform="translate(7.024 6.959)">
        <path id="Trazado_8239" data-name="Trazado 8239" d="M4885.961,244.24l-5.421-5.42a1.285,1.285,0,0,0-1.817,1.818l3.225,3.225h-7.478a1.286,1.286,0,0,0,0,2.571h7.119l-3.522,3.033a1.285,1.285,0,0,0-.135,1.813h0a1.285,1.285,0,0,0,1.813.135l6.146-5.293A1.286,1.286,0,0,0,4885.961,244.24Z" transform="translate(-4873.185 -238.444)" fill="#a4a4a4"/>
      </g>
    </g>
    <path id="Trazado_8240" data-name="Trazado 8240" d="M5087.386,250.969l6.476-5.54H5080.91Z" transform="translate(-4248.468 4980.496)" fill="#b7b7b6"/>
    <path id="Trazado_8241" data-name="Trazado 8241" d="M5292.222,225.809l-3.957,5.8h21.895l-1.847-5.8Z" transform="translate(-4416.742 4996.418)" fill="#c4c4c6"/>
    <rect id="Rectángulo_16271" data-name="Rectángulo 16271" width="21.895" height="7.65" transform="translate(871.391 5228.031)" fill="#a0a0a0"/>
    <path id="Trazado_8242" data-name="Trazado 8242" d="M5498.5,253.218l-3.789-4.429v8.858Z" transform="translate(-4584.279 4977.77)" fill="#a0a0a0"/>
    <path id="Trazado_8243" data-name="Trazado 8243" d="M6077.947,253.218l-3.789-4.429v8.858Z" transform="translate(-5068.831 4977.77)" fill="#a0a0a0"/>
    <path id="Trazado_8244" data-name="Trazado 8244" d="M6851.944,253.218l-3.789-4.429v8.858Z" transform="translate(-5687.145 4977.77)" fill="#a0a0a0"/>
    <g id="Grupo_7226" data-name="Grupo 7226" transform="translate(931.234 5225.047)">
      <path id="Trazado_8245" data-name="Trazado 8245" d="M5654.556,250.336v-9.565h2.825a4.433,4.433,0,0,1,2.25.565,3.853,3.853,0,0,1,1.521,1.6,5.085,5.085,0,0,1,.539,2.378v.48a5.066,5.066,0,0,1-.542,2.391,3.8,3.8,0,0,1-1.544,1.59,4.636,4.636,0,0,1-2.3.558Zm1.662-8.224v6.9h1.083a2.5,2.5,0,0,0,2.007-.818,3.56,3.56,0,0,0,.713-2.348v-.532a3.658,3.658,0,0,0-.676-2.378,2.4,2.4,0,0,0-1.964-.821Z" transform="translate(-5654.556 -240.771)" fill="#a0a0a0"/>
      <path id="Trazado_8246" data-name="Trazado 8246" d="M5702.327,260.48a3.3,3.3,0,0,1-2.459-.956,3.468,3.468,0,0,1-.943-2.545v-.2a4.261,4.261,0,0,1,.411-1.9,3.128,3.128,0,0,1,1.153-1.3,3.049,3.049,0,0,1,1.655-.466,2.788,2.788,0,0,1,2.243.926,3.914,3.914,0,0,1,.792,2.621v.644h-4.645a2.135,2.135,0,0,0,.588,1.392,1.765,1.765,0,0,0,1.3.512,2.161,2.161,0,0,0,1.786-.887l.861.821a2.874,2.874,0,0,1-1.14.989A3.569,3.569,0,0,1,5702.327,260.48Zm-.19-6.089a1.345,1.345,0,0,0-1.061.46,2.38,2.38,0,0,0-.516,1.281h3.042v-.118a1.945,1.945,0,0,0-.427-1.212A1.336,1.336,0,0,0,5702.137,254.39Z" transform="translate(-5690.563 -250.784)" fill="#a0a0a0"/>
      <path id="Trazado_8247" data-name="Trazado 8247" d="M5741.26,258.417a.724.724,0,0,0-.352-.65,3.744,3.744,0,0,0-1.166-.394,6,6,0,0,1-1.36-.433,1.815,1.815,0,0,1-1.2-1.675,1.892,1.892,0,0,1,.775-1.537,3.067,3.067,0,0,1,1.971-.618,3.189,3.189,0,0,1,2.059.631,2,2,0,0,1,.785,1.636h-1.6a.985.985,0,0,0-.341-.765,1.312,1.312,0,0,0-.907-.305,1.415,1.415,0,0,0-.857.243.767.767,0,0,0-.332.65.648.648,0,0,0,.309.572,4.244,4.244,0,0,0,1.248.41,5.911,5.911,0,0,1,1.475.493,2.087,2.087,0,0,1,.795.686,1.748,1.748,0,0,1,.26.972,1.854,1.854,0,0,1-.795,1.554,3.39,3.39,0,0,1-2.083.594,3.674,3.674,0,0,1-1.557-.315,2.557,2.557,0,0,1-1.064-.867,2.05,2.05,0,0,1-.381-1.189h1.55a1.127,1.127,0,0,0,.427.871,1.66,1.66,0,0,0,1.044.305,1.612,1.612,0,0,0,.959-.24A.741.741,0,0,0,5741.26,258.417Z" transform="translate(-5721.422 -250.784)" fill="#a0a0a0"/>
      <path id="Trazado_8248" data-name="Trazado 8248" d="M5777.151,259.205a1.442,1.442,0,0,0,.992-.348,1.187,1.187,0,0,0,.42-.86h1.5a2.348,2.348,0,0,1-.414,1.238,2.715,2.715,0,0,1-1.051.91,3.133,3.133,0,0,1-1.432.335,3.03,3.03,0,0,1-2.365-.966,3.829,3.829,0,0,1-.874-2.667v-.164a3.766,3.766,0,0,1,.867-2.6,3,3,0,0,1,2.365-.976,2.92,2.92,0,0,1,2.066.739,2.646,2.646,0,0,1,.838,1.941h-1.5a1.464,1.464,0,0,0-.417-1.005,1.342,1.342,0,0,0-1-.394,1.405,1.405,0,0,0-1.2.562,2.87,2.87,0,0,0-.427,1.7v.256a2.915,2.915,0,0,0,.417,1.724A1.4,1.4,0,0,0,5777.151,259.205Z" transform="translate(-5751.433 -250.784)" fill="#a0a0a0"/>
      <path id="Trazado_8249" data-name="Trazado 8249" d="M5816.152,260.348a2.459,2.459,0,0,1-.184-.664,2.685,2.685,0,0,1-3.613.184,1.955,1.955,0,0,1-.677-1.511,2.019,2.019,0,0,1,.844-1.744,4.092,4.092,0,0,1,2.414-.608h.979v-.466a1.247,1.247,0,0,0-.309-.884,1.224,1.224,0,0,0-.939-.332,1.406,1.406,0,0,0-.894.273.843.843,0,0,0-.348.693h-1.6a1.775,1.775,0,0,1,.388-1.094,2.581,2.581,0,0,1,1.055-.8,3.7,3.7,0,0,1,1.488-.289,2.983,2.983,0,0,1,1.99.627,2.236,2.236,0,0,1,.762,1.764v3.206a3.631,3.631,0,0,0,.27,1.531v.112Zm-1.754-1.15a1.816,1.816,0,0,0,.89-.23,1.534,1.534,0,0,0,.627-.617v-1.34h-.861a2.354,2.354,0,0,0-1.333.309,1,1,0,0,0-.447.874.933.933,0,0,0,.306.733A1.182,1.182,0,0,0,5814.4,259.2Z" transform="translate(-5782.065 -250.784)" fill="#a0a0a0"/>
      <path id="Trazado_8250" data-name="Trazado 8250" d="M5855.206,254.7a3.952,3.952,0,0,0-.65-.052,1.464,1.464,0,0,0-1.478.841v4.861h-1.6v-7.108H5853l.04.795a1.8,1.8,0,0,1,1.6-.926,1.492,1.492,0,0,1,.564.092Z" transform="translate(-5814.367 -250.784)" fill="#a0a0a0"/>
      <path id="Trazado_8251" data-name="Trazado 8251" d="M5875.112,256.742a4.155,4.155,0,0,1,.778-2.644,2.5,2.5,0,0,1,2.065-.989,2.342,2.342,0,0,1,1.912.847l.071-.716h1.439v6.891a2.862,2.862,0,0,1-.871,2.207,3.312,3.312,0,0,1-2.348.808,3.788,3.788,0,0,1-1.527-.325,2.712,2.712,0,0,1-1.133-.851l.755-.959a2.281,2.281,0,0,0,1.813.874,1.763,1.763,0,0,0,1.255-.43,1.65,1.65,0,0,0,.461-1.265v-.479a2.353,2.353,0,0,1-1.84.769,2.493,2.493,0,0,1-2.04-.992A4.294,4.294,0,0,1,5875.112,256.742Zm1.589.138a2.857,2.857,0,0,0,.438,1.685,1.4,1.4,0,0,0,1.212.614,1.538,1.538,0,0,0,1.433-.828v-3.127a1.516,1.516,0,0,0-1.42-.808,1.409,1.409,0,0,0-1.225.624A3.2,3.2,0,0,0,5876.7,256.88Z" transform="translate(-5833.544 -250.784)" fill="#a0a0a0"/>
      <path id="Trazado_8252" data-name="Trazado 8252" d="M5920.33,260.348a1.036,1.036,0,1,0-2.05.131,2.511,2.511,0,0,1-1.748-.611,1.956,1.956,0,0,1-.676-1.511,2.018,2.018,0,0,1,.844-1.744,4.09,4.09,0,0,1,2.414-.608h.979v-.466a1.247,1.247,0,0,0-.309-.884,1.225,1.225,0,0,0-.939-.332,1.4,1.4,0,0,0-.893.273.843.843,0,0,0-.348.693h-1.6a1.772,1.772,0,0,1,.388-1.094,2.581,2.581,0,0,1,1.055-.8,3.7,3.7,0,0,1,1.488-.289,2.983,2.983,0,0,1,1.99.627,2.236,2.236,0,0,1,.762,1.764v3.206a3.631,3.631,0,0,0,.27,1.531v.112Zm-1.754-1.15a1.813,1.813,0,0,0,.89-.23,1.531,1.531,0,0,0,.627-.617v-1.34h-.86a2.353,2.353,0,0,0-1.333.309,1,1,0,0,0-.447.874.932.932,0,0,0,.306.733A1.182,1.182,0,0,0,5918.576,259.2Z" transform="translate(-5866.609 -250.784)" fill="#a0a0a0"/>
      <path id="Trazado_8253" data-name="Trazado 8253" d="M5958.262,258.417a.724.724,0,0,0-.352-.65,3.738,3.738,0,0,0-1.166-.394,6,6,0,0,1-1.36-.433,1.815,1.815,0,0,1-1.2-1.675,1.891,1.891,0,0,1,.775-1.537,3.065,3.065,0,0,1,1.971-.618,3.19,3.19,0,0,1,2.06.631,2,2,0,0,1,.785,1.636h-1.6a.985.985,0,0,0-.342-.765,1.31,1.31,0,0,0-.907-.305,1.413,1.413,0,0,0-.857.243.767.767,0,0,0-.332.65.648.648,0,0,0,.309.572,4.244,4.244,0,0,0,1.249.41,5.918,5.918,0,0,1,1.475.493,2.087,2.087,0,0,1,.795.686,1.751,1.751,0,0,1,.259.972,1.852,1.852,0,0,1-.795,1.554,3.389,3.389,0,0,1-2.082.594,3.678,3.678,0,0,1-1.557-.315,2.563,2.563,0,0,1-1.064-.867,2.053,2.053,0,0,1-.381-1.189h1.55a1.124,1.124,0,0,0,.427.871,1.659,1.659,0,0,0,1.044.305,1.615,1.615,0,0,0,.959-.24A.741.741,0,0,0,5958.262,258.417Z" transform="translate(-5897.525 -250.784)" fill="#a0a0a0"/>
    </g>
    <g id="Grupo_7229" data-name="Grupo 7229" transform="translate(1376.141 5227.518)">
      <path id="Trazado_8279" data-name="Trazado 8279" d="M7973.086,260.71l-7.133-5.657a.66.66,0,0,1-.107-.927h0a.659.659,0,0,1,.926-.107l6.231,4.943a.66.66,0,0,0,.866-.041l5.024-4.815a.66.66,0,0,1,.933.02h0a.659.659,0,0,1-.02.932l-5.855,5.611A.66.66,0,0,1,7973.086,260.71Z" transform="translate(-7965.704 -253.876)" fill="#a0a0a0"/>
    </g>
    <g id="Grupo_5577" data-name="Grupo 5577" transform="translate(1417.715 5219.854)">
      <g id="Grupo_583" data-name="Grupo 583" transform="translate(0 0)">
        <path id="Trazado_322" data-name="Trazado 322" d="M8186.285,213.718a.487.487,0,0,1,.147-.356.481.481,0,0,1,.356-.147h8.367a.5.5,0,0,1,.5.5v8.367a.5.5,0,0,1-.5.5h-1.968a.483.483,0,0,1-.356-.148.539.539,0,0,1-.146-.4l.21-4.225a7.276,7.276,0,0,0-2.387,2.615A7.349,7.349,0,0,0,8197,231.291a7.328,7.328,0,0,0,7.364-7.364,7.331,7.331,0,0,0-.481-2.637,6.953,6.953,0,0,0-1.364-2.218.578.578,0,0,1-.126-.354.5.5,0,0,1,.168-.357l1.423-1.423a.481.481,0,0,1,.354-.126.419.419,0,0,1,.356.168,10.325,10.325,0,0,1,1.968,3.183,10.167,10.167,0,0,1,.711,3.766,10.05,10.05,0,0,1-1.4,5.184,10.539,10.539,0,0,1-3.766,3.787,9.989,9.989,0,0,1-5.188,1.4,10.109,10.109,0,0,1-5.21-1.4,10.489,10.489,0,0,1-3.786-3.787,10.06,10.06,0,0,1-1.4-5.184,10.224,10.224,0,0,1,.961-4.394,10.36,10.36,0,0,1,2.679-3.515l-3.432.168a.545.545,0,0,1-.4-.146.486.486,0,0,1-.146-.356Z" transform="translate(-8186.28 -213.215)" fill="#a0a0a0"/>
      </g>
    </g>
    <line id="Línea_2206" data-name="Línea 2206" y2="33.765" transform="translate(1399.742 5213)" fill="none" stroke="#a5005d" stroke-width="1"/>
    <g id="Grupo_7234" data-name="Grupo 7234" transform="translate(957.83 5291.852)">
      <g id="Grupo_7231" data-name="Grupo 7231" transform="translate(0)">
        <path id="Trazado_8280" data-name="Trazado 8280" d="M5910.97,679.448h-64.929v-84.2l49.132-.03L5911,612.105Z" transform="translate(-5827.225 -595.223)" fill="none" stroke="#e6007e" stroke-width="1"/>
        <rect id="Rectángulo_16272" data-name="Rectángulo 16272" width="64.929" height="16.891" transform="translate(18.817 67.595)" fill="#c6006d"/>
        <rect id="Rectángulo_16273" data-name="Rectángulo 16273" width="64.929" height="16.891" transform="translate(18.817 50.704)" fill="#a5005d"/>
        <rect id="Rectángulo_16274" data-name="Rectángulo 16274" width="64.929" height="16.891" transform="translate(18.817 33.813)" fill="#82004b"/>
        <rect id="Rectángulo_16275" data-name="Rectángulo 16275" width="64.929" height="16.891" transform="translate(18.817 16.921)" fill="#620038"/>
        <path id="Trazado_8281" data-name="Trazado 8281" d="M5846.041,612.273V595.381l49.264.1,15.665,16.789Z" transform="translate(-5827.225 -595.352)" fill="#3f0225"/>
        <path id="Trazado_8282" data-name="Trazado 8282" d="M5846.041,596.076v84.2h64.929S5846.041,679.984,5846.041,596.076Z" transform="translate(-5827.225 -595.915)" fill="#fff" opacity="0.27"/>
        <rect id="Rectángulo_16276" data-name="Rectángulo 16276" width="31.526" height="33.74" transform="translate(0 27.989)" fill="#f188be"/>
        <g id="Grupo_7230" data-name="Grupo 7230" transform="translate(8.354 35.088)">
          <path id="Trazado_8283" data-name="Trazado 8283" d="M5798.349,786.429l2.837-5.033H5806l-4.8,8.258,5,8.6h-4.829l-3.007-5.3-2.992,5.3h-4.845l5-8.6-4.784-8.258h4.831Z" transform="translate(-5790.528 -781.396)" fill="#fff"/>
        </g>
        <path id="Trazado_8284" data-name="Trazado 8284" d="M6108.48,596.076v16.761l15.365.093Z" transform="translate(-6040.202 -595.915)" fill="#c6006d"/>
      </g>
    </g>
    <text id="GUB_CANDIDATURAS__2024.csv" data-name="GUB_CANDIDATURAS
_2024.csv" transform="translate(1190 5395)" fill="#3f0225" font-size="13" font-family="Roboto-Medium, Roboto" font-weight="500"><tspan x="-63" y="0">GUB_CANDIDATURAS</tspan><tspan x="-29" y="15">_2024.csv</tspan></text>
    <text id="GUB_2024.csv" transform="translate(1009 5395)" fill="#3f0225" font-size="13" font-family="Roboto-Medium, Roboto" font-weight="500"><tspan x="-42" y="0">GUB_2024.csv</tspan></text>
  </g>
</svg>
