<svg xmlns="http://www.w3.org/2000/svg" xmlns:xlink="http://www.w3.org/1999/xlink" width="308" height="280.124" viewBox="0 0 308 280.124">
  <defs>
    <clipPath id="clip-path">
      <rect id="Rectángulo_27766" data-name="Rectángulo 27766" width="222.073" height="209.493" transform="translate(18.848 35.782)" fill="none"/>
    </clipPath>
    <clipPath id="clip-path-2">
      <rect id="Rectángulo_27764" data-name="Rectángulo 27764" width="107.814" height="155.02" fill="none"/>
    </clipPath>
    <clipPath id="clip-path-4">
      <rect id="Rectángulo_27762" data-name="Rectángulo 27762" width="51.186" height="57.037" fill="none"/>
    </clipPath>
    <clipPath id="clip-path-5">
      <rect id="Rectángulo_27767" data-name="Rectángulo 27767" width="93.073" height="77.121" fill="none"/>
    </clipPath>
    <clipPath id="clip-path-6">
      <rect id="Rectángulo_27768" data-name="Rectángulo 27768" width="90.222" height="90.461" fill="none"/>
    </clipPath>
  </defs>
  <g id="Grupo_43800" data-name="Grupo 43800" transform="translate(-783 -4416.284)">
    <g id="Grupo_43790" data-name="Grupo 43790" transform="translate(817 4415.172)">
      <rect id="Rectángulo_27765" data-name="Rectángulo 27765" width="220.947" height="208.388" transform="translate(20.131 37.152)" fill="#e5e5e5"/>
      <path id="Trazado_15481" data-name="Trazado 15481" d="M49.795,43.4l66.55-9.323L125,43.4,86.961,163.217l-7.072-2.82Z" transform="translate(55.477 37.967)" fill="#766cae" opacity="0.2"/>
      <g id="Grupo_43789" data-name="Grupo 43789">
        <g id="Grupo_43788" data-name="Grupo 43788" clip-path="url(#clip-path)">
          <path id="Trazado_15482" data-name="Trazado 15482" d="M185.532,226.779l14.875,2.9-.6,3.38h2.7l6.484-36.978,1.49,36.976h2.681l-.5-12.467,6.807-.2.7,12.666H221.5l-.7-12.693,10.19-.275v-2.649l-8.382.224-.655-4.482,9.038.277v-1.328l-9.237-.277-1.252-8.685,5.457-6.008,5.008,3.18v-1.6l-4.108-2.6,4.108-4.533v-1.977L220.227,201.5c-.579-3.279-2.006-11.64-2.607-15.171l13.368,2.277v-2.7l-6.657-1.15,1.575-9.938c1.78.376,3.482.727,5.082,1.051v-2.729l-3.805-.774,3.805-4.833V163.2l-6.708,8.562-8.687-1.8,3.7-25.985,11.668,2.1v-4.505l-1.226-.224,1.226-8.387V114.676l-1.353,9.264-12.41-3c.624-3.281,2.275-11.968,2.9-15.272l10.869,2.053V105.01l-7.008-1.328,5.531-30.111,1.478.275V69.316l-3.632-.679.977-6.784,2.655-.548V59.952l-2.461.5,2.152-14.97.3.051V12.087l-.8,5.531-8.311.5-.376-7.127h-1.326l.4,7.234-7.063.425-.317-7.666h-2.687l.328,7.835-9.786.6,1.471-8.435h-2.7l-1.427,8.186L183.6,15.239l.784-4.254h-4.507l-1.5,8.16L168.2,20.875l-1.247-9.89H164.27L165.547,21.3l-9.938,1.679-4.256-8.689c2.528-.725,6.784-1.977,11.391-3.3h-9.535l-3.03.877-.45-.877h-4.958l1.027,2.1c-1.554.425-3.63,1-5.685,1.577-.326-.9-.776-2.23-1.3-3.706h-1.4l1.427,4.057c-2.478.674-4.681,1.3-5.558,1.552l-6.41-2,.427-3.579H125.95l-.351,3.18-8.186-2.528.224-.651h-2.824l-1.078,2.926-7.01-2.926h-2.457l-2.173,5.581L92.057,13.089q.637-1.053,1.2-2.1H90.152a55.3,55.3,0,0,1-4.879,7.234l-1.2-7.234h-2.7l.326,2-6.683,3.979-3.533-5.983H69.924l8.289,14.044c-.205.123-.406.275-.577.4a32.646,32.646,0,0,1-10.065,3.956l1.326-18.4H67.571L66.218,29.71c-1.452.328-2.949.575-4.507.827L60.26,10.985H57.588L58.06,17.6l-16-1.956-.1-4.657H39.286l.1,4.355L35.7,14.892l-3.956-3.907h-1.9l3.7,3.63L20.084,12.99l.243-2H18.976l-.226,1.824L13.4,12.161l.173-1.175h-4.5l-.154,1.1V45.532l11.52,2.1,1.975,9.513-13.494,2.8v1.353l4.034-.852,1.3,9.862-5.334-1v4.531l5.86,1.108-4.457,30.259-1.4-.252v2.7l1,.2-1,6.81v18.274l3.63-24.581,12.539,2.355-3.33,33.143-12.839-2.3v4.505l11.793,2.1L8.915,163.193v4.3l11.7-14.921L17.4,174.884l-8.482-1.753v2.727c3.431.7,6.311,1.3,8.114,1.679l-1.351,9.514L8.915,185.9v2.7l.8.15-.8.85v1.979l2.357-2.6,4.029.7L13.575,201.7l-4.66-2.956v1.577l4.459,2.827-1.3,9.065-3.158-.1v1.328l2.953.1-.554,3.812-2.4.07v2.653l2.03-.049L9.069,233.037h4.478l1.827-12.818,5.084.677-1.5,12.141h1.349l1.027-8.311,8.511,8.311h1.9L21.56,223.048l.243-1.977,17.251,2.3.226,9.661h2.676l-.224-9.313,15.321,2.053.526,7.26h2.679l-.277-3.731,7.96-1.349-.374,5.106H68.9l.1-1.526.9,1.526h1.56l-2.283-3.879.1-1.452,10.892-1.854,1.2,7.188h2.7L80.315,210.53l18.976,1.452a113.6,113.6,0,0,1-9.139,21.08h3.106a100.067,100.067,0,0,0,4.38-9.012l8.81,3.38-2.2,5.632h2.461l-.877-.376,4.431-11.34,8.112,1.9-3.556,9.79h2.827l6.761-18.575,3.683-.452-2.131,19.05h1.353l.852-7.611,6.034-1.651,3.254,9.262h1.4c-1.247-3.528-2.8-7.96-3.378-9.613l4.055-1.106,5.256,10.716h4.958l-2.254-4.609,17.676-5.482-.977,6.911L153.22,233.03h9.537c.5-.148.977-.275,1.476-.425l.051.425h2.676l-.15-1.178c5.433-1.575,10.793-3.127,14-4.078l-.977,5.256h4.505Zm-2.4-11.516-13.919-1.9,1.4-9.833,14.217,2.429ZM153.368,197.89l.949-5.408,14.795,2.78-.751,5.182Zm14.617,5.182-.6,4.2-9.788-1.4.977-4.38Zm-49.392-5.256-6.556-.175,1-5.653,5.558,2.679a10.305,10.305,0,0,0-.123,1.552,6.987,6.987,0,0,0,.116,1.6Zm2.027,4.507a8.915,8.915,0,0,0,1.18,1.2l-5.006,6.583-4.731-8.034Zm-.347-11.767-12.642-6.084,13.744-5.032,2.076,8.287a9.85,9.85,0,0,0-3.182,2.827Zm-87.7-14.095,1.63-3.653,20.226-4.833-2.879,10.089ZM50.9,180.7l-1.353,6.934-4.932-1.249.351-6.184ZM22.735,33.792c4.484.326,9.71.626,15.171.7l-.051,1.328L22.086,40.7Zm-5.461-3.154,1.505-8.44,14.5,1.831c-.15,1.575-.554,5.531-.753,7.609-5.807-.224-11.112-.6-15.249-1M51.65,48.411l1.725,15.346c-3.951.452-15.843,1.829-20.073,2.328l1.852-16.1ZM37.779,37.247l-.423,9.864L34,47.437,30.9,46.862l-.9-7.211ZM53.5,65.085l.626,5.531-21.68,2.66.677-5.833Zm91.319-1.078-2.459,8.687L132.25,76.6c-1.476-4.131-2.653-8.186-3.3-10.638Zm-13.888-8.387,7.759-.949.852,5.505-7.991.977Zm38.574,56.5-9.387-2.2L164.8,95.275l8.061,1.5c-.575,2.7-2,9.237-3.355,15.346M174.192,97l9.915,1.854-12.97,12.116Zm-88.547,3.053L100.993,98.6l1.676,6.659-18.376.55Zm0-11.592,14.046,4.907.651,2.6L86.8,97.252ZM155.465,109.9l-2.5,7.831L142.024,113.4l2.93-7.336Zm-10.04-5.057,2.528-6.359c3.755,2.154,7.412,4.057,9.514,5.108l-1.6,5.032Zm-7.158,10.793-5.131-4.357,6.182-8.761,3.23,2.353Zm-.526,1.3-.245.626-12.917,1.106-6.488-8.645,6.433-4.33Zm-14.469,2.247-10.913,6.283-2.505-9.89,7.131-4.78c1.18,1.577,4.985,6.632,6.287,8.387m-6-10.215c-.554-.7-1.6-2.027-2.357-2.979l5.383-3.879,3.154,2.679Zm-1.11.753L109.5,114.2l-.926-3.63,5.256-3.78ZM108.98,130.2l-11.742-3.48,8.812-8.084Zm-13.243-3.932L80.59,121.761l3.4-14.619,19.027-.552,2.676,10.592ZM79.264,97.979l-2.078-17.6,5.932-.877,2.351,17.875Zm-.125,2.679,5.108-.476-2.461,10.541-5.055-1.63ZM81.5,112.023l-2.182,9.361-5.583-1.651,2.651-9.34Zm-1.459,12.365-7.209,19.63-5.357-2.23L73,122.287Zm1.277.376,6.936,2.053-2.979,8.913c-1.979-.6-5.653-1.753-7.16-2.228Zm6.061,13.069,6.482,2.277-4.383,10.04-5.958-.7Zm.4-1.279,3-8.987,10.289,3.057-2.474,9.708Zm14.573-5.531,7.355,2.2,3.057,12.093-12.919-4.533Zm10.338-4.2,5.683-3.275,2.776,9.911-7.264-1.856Zm6.879-3.981,4.911-2.827,12.49-1.078-6.708,16.8-7.588-1.928Zm16.524,5.484,5.983,2-2.152,7.936-7.061-1.8Zm.476-1.252,4.955-12.414,11.017,4.355L148.662,131.1Zm16.448,5.006,11.165,2L154.812,149.7l-5.757-5.232Zm1.376-4.258,5.336-16.649,9.513,2.254c-.951,4.38-1.829,8.336-2.228,10.241L158.7,128.6Zm16-13.416,3.981,4.856-5.782,3.429Zm-12.091-13.368c-4.431-2.254-14.494-7.562-19.126-11.541a7.921,7.921,0,0,1-.651-.626l10.716-9.188,12.014,12.141ZM142.151,82.258l-3.507-6.71,4.131-1.6,4.531,3.856Zm-1.053.9-4.18,3.607a47.609,47.609,0,0,1-4.207-8.89l4.685-1.8Zm-3.657,8.359a59.909,59.909,0,0,0,8.188,5.607l-2.554,6.433-12.342-8.934,5.708-4.106a12.09,12.09,0,0,0,1,1Zm.8,10.188-6.133,8.687-10.7-9.063,8.163-5.881Zm-16.272-4.057-2.38-7.9,5.911-2.827,2.476,6.435Zm-2.778-9.218-1.9-6.309,4.18-5.683,3.554,9.186Zm.5,10.841L107.9,107.75l-4.258-16.881,12.792-2.459Zm-16.4-9.683-5.006-19.9,12.046-1.474,5.7,18.9Zm-4,2.23L85.448,86.99,84.442,79.3,95.71,77.624ZM77.036,79.051l-.8-6.657,17.6-2.154,1.552,6.108Zm-1.579-11.04L74.1,62.255l18.807.875.7,2.653Zm.951,28.464-12.64-14.52-.526-7.962L73.579,72.72ZM62.74,69.559l-.9-5.706c3.579-.552,7.609-1.178,9.585-1.478l1.4,5.964Zm-.825,4.581.5,7.486-5.607.55.2-7.41Zm.926,8.761,13.37,15.353-19.879,1.877.425-16.647c1.8-.152,5.029-.476,6.082-.577ZM76.285,100.93,65.319,139.506l-5.383-3.032,11.439-35.09Zm-9.566,43.437L80.442,150.1l-1.529,4.581-13.4-6.135Zm7.311.178,3.583-9.767,7.207,2.23-3.528,10.568Zm9.015,6.163,6.057.725-1.376,8.987-6.433-4.406Zm7.459.326,4.609-10.49c3.628,1.279,7.784,2.729,11.363,3.983l-4.023,20.545-5.108,1.951-8.414-5.782Zm20.276,13.687,2.256,8.084-9.492,3.956-4.332-7.611Zm-6.858-.226,3.831-19.553c2.175.753,4.08,1.429,5.433,1.9l3.251,12.866Zm10.714-29.968,14.82,3.782-3.829,5.057-8.184,2.328Zm16.247,4.156,13.993,3.579-15.6,7.938-2.48-6.133Zm10.315-.12,2.129-7.839,4.932,1.655-2.378,7.385Zm7.41,7.308,12.518,11.34-.928,1.778c-6.334-1.23-11.892-2.279-14.871-2.856Zm7.209,4.731,9.763-16.272,6.761,1.23-10.615,20.427Zm17.917-14.82,2.156.4-4.207,25.008c-3.38-.651-6.833-1.326-10.139-1.953Zm.753,16.847,10.964,2.63-1.328,8.336c-3.3-.626-7.129-1.376-11.11-2.129Zm1.651,12.141,7.435,1.429-3.306,13.765-6.131-1.252Zm8.763,1.679,6.962,1.326-2.583,14-7.687-1.552Zm.526-2.6,1.328-8.385,7.26.575-1.679,9.135c-1.622-.33-4.025-.776-6.9-1.326Zm1.524-9.708.9-5.609,7.361,1.027-.953,5.182Zm1.108-6.936,1.351-8.585,7.537,1.353-1.526,8.262Zm-2.4,6.736-10.938-2.6,2.505-14.9,10.915,1.951ZM162.7,129.3l13.365-7.936,9.892,12.116Zm14.518-8.638,17.374-10.34,3.882,4.731-17.4,10.292Zm-1.7-2.078-4.581-5.607,14.644-13.642,7.311,8.934Zm10.59-29.065L175.693,88.14c.326-1.979.626-3.81.776-4.757l10.289,2.078Zm-.205,1.328-.875,5.484-10.338-1.953c.2-1.2.5-3.055.8-4.932ZM173.368,94.15l-7.744-1.457,3.454-10.788,6.082,1.228Zm-11.186-5.182-10.915-11.04,8.537-7.336,7.084,3.63ZM148.339,76.922l-4.683-3.981,2.581-9.112,15.921-1.953a9.759,9.759,0,0,0,.977,2.353ZM142.2,59.849,140.1,46.31l9.036-1.4,2.129,13.845ZM134.84,88.391,129.1,92.522,122.42,75.2,127,68.99c1.529,5.355,4.357,14.118,7.839,19.4m-18.027-7.835-3.808-12.642,13.27-1.628c.078.326.175.674.277,1.051Zm-2.1-17.351-4.283.526-7.283-11.691,11.59-1.8Zm-5.731.7L97.866,65.259l4.406-12.116Zm-13.243-.573-5.96-23.006,12.716,4.48Zm-3.156-1.554-10.34-.474L79.488,45.758l8.738-.827Zm-11.714-.55L73.806,60.9,70.478,46.6l7.659-.725Zm-9.742-.15-9.514,1.452-.9-5.708,9.137-1.23Zm-9.706,8.662-4.632.575-.626-5.581c1.027-.152,2.6-.4,4.357-.677Zm-5.165,33.1,13.668-1.3-6.958,21.329-7.158-2.93Zm6.309,21.3-3.877,11.924-3.256-.526.376-14.146Zm-4.3,13.192-3.131,9.613.243-10.086c.958.15,2.135.351,2.886.474Zm1.249.452,5.431,3.055-5.757,20.279-4.378-2.1.2-7.385Zm5.653,12.065,13.321,6.11-4.154,12.448-12.689-6.114Zm15.674,7.463L95.832,167.6l-12.919,4.932-6.182-2.979Zm1.676,19.951,11.843,5.706-3.08,5.759L80.763,186.45Zm3.712-3.129,11.742-4.482,4.351,7.634-5.129,2.129Zm27.185-.025,1.725,6.209-9.163,3.353-7.184-3.48Zm-1.376-9.862,5.032-1.928,3.975,15.8-4.681,1.7ZM117.8,147l7.862-2.228,7.537,18.6-10.437,3.254Zm11.987,4.429,14.8-7.535-7.886,24.61Zm14.721,7.262,12.666,2.427-2.427,13.693-14.469-2.928ZM156.9,177.962l14.27,2.879-1.108,7.784L156.266,181.5Zm.45-2.628,2.429-13.718,13.767,2.653-2,13.943Zm16.45,6.034,15.019,3.027-1.474,8.063-14.723-2.9Zm16.721,18.224,6.435.825-2,10.241-6.334-.8Zm.245-1.3,2.951-16.071,6.583,1.127-3.078,15.773Zm3.429-18.7,2-10.938c2.08.425,5.509,1.152,9.564,1.977l-2.378,10.516Zm2.505-13.543,2.478-13.52,15.9,2.228-2.1,14.67Zm1.979-30.291-10.716-1.928-6.057-7.41,17.4-10.289,2.581,3.154Zm5.683-15.222,11.042,2.679c-.624,3.106-2.2,11.139-2.979,15.021l-11.116-2Zm-1.8-4.655-13.067-16,15.619,2.928Zm-14.919-19.05,2.63-16.374,18.649,2.7-3.33,17.05Zm10.012-18,1.529-10.938,12.264,2.3-2.027,10.338Zm.9-15.6-5.032-.953,1.6-9.061,5.082.552Zm-.679,4.406c-.425,3.055-1.173,8.48-1.524,10.991l-5.63-.827,1.8-11.186Zm-6.983-5.833L181.276,60c0-.2.025-.376.025-.575a10.084,10.084,0,0,0-.8-3.882l9.063-5.457,2.478,5.332Zm-1.027,4.332-2.877,18-17.475-3.5,3.731-11.642a9.734,9.734,0,0,0,6.736-4.7Zm-18.3-1.455a5.285,5.285,0,1,1,5.285-5.285,5.285,5.285,0,0,1-5.285,5.285m-2.9,4.006-1.376,4.254-6.41-3.277,3.882-3.332a9.931,9.931,0,0,0,3.9,2.355m-6.583-11.27-9.465,1.152L150.457,44.7l10.114-1.577,4.457,9.11a9.749,9.749,0,0,0-2.953,5.184M137.916,43.955l-.674-5.306,19.325-3.655,2.753,5.632Zm-.452,2.78,1.03,6.636-7.712.926-.727-6.408Zm-7.2,14.594-14.2,1.727.023-13.019,12.666-1.975ZM116.511,47.285l4.558-16.323,5.609,2.129-3.23,13.118Zm-1.448.224-11.391,1.778,7.987-21.879,8.163,3.08ZM102.94,43.555l-6.535-2.3,2.3-8.234,7.006,2.9ZM95.156,40.8,89.372,38.75l-2.8-10.818L97.486,32.49Zm-7.634,1.5L69.3,44.054l-.827-5.881,17.071-3.4Zm-18,11.991-9.036,1.2-1.254-7.812L67.8,46.86ZM59.387,57l.926,5.733-4.283.651-.649-5.858Zm-4.18-.776-.9-8.059,3.6-.351,1.252,7.864Zm-.9,18.852-.2,7.336c-2.127.2-6.385.573-8.114.727l.275-7.086ZM43.288,118.581l-.224,6.008c-1.5-.049-5.08-.175-6.583-.245l.277-6.232ZM37.259,115.5l6.581-10.64-.427,11.061Zm5.757,10.414-.275,7.129c-2.18-.425-4.433-.877-6.588-1.3l.279-6.084Zm-.374,8.482-1.11,8.934-6.96-1.8,1.4-8.435Zm-.378,13.943,3.882.975-.4,5.285-4.034-1.928Zm.175-1.326,1.526-12.368,3.258.651L46.267,148ZM48.5,135.549l4.23.824-.548,21.338-5.131-2.478Zm-4.429-2.222.275-7.336c1.729.1,6.359.378,8.636.5l-.222,8.537c-1.759-.351-5.036-1-8.689-1.7m.328-8.662.222-5.983,8.537.6L53,125.141Zm.351-8.636.5-13.044,8.357-.6-.376,14.243Zm.548-14.395.2-5.232,8.262.226-.12,4.406Zm.3-7.909.349-9.262,8.112-.727-.245,10.213ZM32.874,77.7l12.091-1.474L44.69,83.21l-12.365-.125Zm11.765,6.81-.351,9.169L31.3,93.353l.9-8.938Zm-.474,11.841-.218,5.786-4.26,6.858L30.853,97.81l.175-1.829ZM38.959,110.22l-3.2,5.165-6.611-.478,1.526-15.2Zm-3.531,7.814-.6,13.467c-2.9-.577-5.509-1.076-7.211-1.427l1.254-12.518ZM26.891,92.721l-5.359-.753,2.655-15.241,4.23.8Zm.575,38.7,7.211,1.425-2.554,15.224-6.036-2.9Zm6.907,11.414,7.008,1.829-.9,7.41-7.082-3.4Zm6.738,14.471,14.37,6.934-.653,2.279-19.949,4.757Zm15.6,7.509,7.061,3.406L60.66,178.837l-7.786-.649Zm9.486,4.579,6.084,2.93-4.457,18.6-7.662-.8Zm10.571,23.809-.649,3.406-17.725-.5,1.374-4.681Zm-7.607-2.152,4.353-18.15,6.535,3.152-3.034,15.822Zm11.363-3.281,18.875,4.082-.674,5.406-19.9-.573Zm12.114,1.252,2.932-5.457,6.554,3.154L99.8,190.577Zm8.139,2.528,2.577-4.23,8.414,4.055-1.106,6.207-10.617-.3Zm27.386-.626a8.338,8.338,0,1,1-.006,0Zm2.655-4.057a9.416,9.416,0,0,0-2.655-.376h-.4l-4.706-18.6,10.615-3.306,2.378,5.881Zm8.632-12.444,14.816,3-.224,1.3-18,11.818a10.166,10.166,0,0,0-1.3-1.476Zm14.268,6.11-2.979,16.9-12.919-2.2a9.282,9.282,0,0,0-1.078-3.531Zm3.552,20.7-1,4.431-11.869-1.7,2.281-4.505Zm-2.725-10.091,1.474-8.283,13.843,7.156-.55,3.934Zm30.765,12.169-14.319-2.459,1.425-10.012,14.644,2.877Zm6.81,22-6.11-1.2,2.378-12.968,6.309.8Zm8.736,1.727-6.133-1.2,3.879-19.951,5.733,1.277Zm3.729-21.2-5.708-1.252,4.059-20.8,5.355.928Zm16.649,11.818-8.687.245-.226-5.733,7.036-7.761c.427,3.04,1.459,10.226,1.877,13.253ZM219.1,202.712l-6.858,7.56-1.025-25.084,5.006.854Zm4.182-28.437-1.6,10.012-16.972-2.9,2.353-10.488c5.032,1.059,10.837,2.262,16.219,3.389Zm-8.038-20.854-15.845-2.2,1.926-10.463,15.348,2.75Zm5.232-13.765-6.759-1.2,1.376-6.985,6.638,1.328Zm6.636,1.2-5.33-.951,1.275-6.858,5.057,1.025Zm2.106-14.294-.9,6.184-12.94-2.6,1.3-6.636Zm-13.325-5.979-11.04-2.679,2.854-14.625,11.091,2.076Zm6.759-17.173-14.444-2.706,2.4-12.365,14.268,2.877Zm7.336-84.44-1.526,10.693-5.96-.1-.55-10.089ZM222.43,32.247l5.63.1-3.03,21.1-4.556-.023Zm-2.055,22.5,4.48.025-1.877,13.067-3.753-.7ZM217.9,66.882l-2.5-.471L214,32.088l7.087.123Zm2.706-47.337.548,9.987-7.258-.121L213.519,20ZM214.07,70.665l14.114,2.655-3.049,16.573-14.27-2.877Zm-1.353-4.757-12.839-2.4c.5-2.9,1.349-7.867,1.649-9.59l10.765,1.152Zm-.5-12.217-16.9-1.8,1.252-7.209,15.241-.148ZM200.8,20.774l10.065-.626.4,9.913-12.091-.1Zm-1.852,10.513,12.368.1.476,11.843-14.97.148Zm-15.6-14.721L198.124,20.5l-1.6,9.061-14.8-4.359ZM196.32,30.888l-3.505,19.928L181.574,26.53Zm-15.623.1,8.287,17.875-9.112,5.486a9.876,9.876,0,0,0-2.9-3.03Zm-2.6-10.439-5.383,29.238-.951-.074-3.406-27.53Zm-12.368,2.08,3.406,27.388a.678.678,0,0,1-.2.049l-12.691-25.83Zm-18.7-7.087,8.934,18.224-8.812,1.679L141.019,17.22Zm-7.311,2.027c1.277,3.755,5.082,15.118,6.108,18.1l-8.759,1.651-2.332-18.372Zm-4.454,26.813-10.414,1.626L127.908,33.6l6.279,2.378Zm-1.249-9.915L121.5,29.71l2.951-6.459,8.539,3.1Zm-7.664-17.272,5.708,1.778.746,5.875L124.927,22Zm-9.862-3.055,8.585,2.655-1.609,5.351-3.2,7.065-8.158-3.106Zm-11.141-2.277,7.938,3.3-1.7,4.683L103.348,17Zm-2.854,7.659,8.163,2.827-4.482,12.319L99.09,31.718ZM90.6,15.417,101.242,19.1l-3.4,12.116L86.124,26.357,85.118,22.5A51.551,51.551,0,0,0,90.6,15.417M75.685,18.123l6.258-3.734,1.074,6.461a33.59,33.59,0,0,1-3.7,3.4Zm3.4,9.562a29.1,29.1,0,0,0,3.854-3l2.277,8.812L68.3,36.873l-.651-4.706a37.483,37.483,0,0,0,11.442-4.484ZM66.347,32.416,68,44.183l-17.723,1.7L49.4,34.393a114.176,114.176,0,0,0,16.951-1.977M58.286,20.323l.772,10.592a144.008,144.008,0,0,1-16.592.926L42.138,18.37ZM48.045,34.418l.9,11.564-10.237.977.526-12.442c2.9.025,5.856,0,8.812-.1M35.354,17.52l4.106.5.123,5.457-4.854-.592c.15-1.209.45-3.786.626-5.364m4.281,7.311.175,6.983c-2-.023-4.008-.049-5.932-.121l.725-7.511ZM13.021,14.791,34.05,17.345,33.424,22.7,12.272,20.049Zm-.947,6.583,5.378.677-1.5,8.463c-2.127-.2-3.856-.4-5.108-.552ZM20.3,44.906,8.991,42.828l1.476-10.213c2.279.277,6.131.7,10.941,1.078Zm1.6-2.78,6.784-2.1.827,6.558-7.9-1.455Zm-.076,5.784,10.64,1.951-2.7,23.414-2.805-.526ZM14.27,60.2l8.385-1.753,2.9,13.993-9.932-1.873Zm-1.353,45.51,4.461-30.266,5.507,1.027-5.256,30.111Zm6.034,1.129,2.38-13.568,5.457.776-1.4,13.993Zm6.533,42.931L38.7,156.132,29.773,176.21l-7.962-.674Zm-4.055,28.414,20.9,1.778-.347,6.182-21.923,1.731Zm20.45,9.313-.471,8.137-5.45-.15v-7.507Zm-22.023,1.729,14.769-1.175v7.359l-15.594-.425Zm7.888,29.965-11.968-1.6,1.8-12.566L28.9,206.581Zm-9.966-15.5.628-4.279,11.139.326-.5,5.531Zm15.348,16.226-4.055-.552,1.15-12.592,4.177.575Zm1.4-13.89-4.209-.575.526-5.655,4.3.125Zm5.958,14.873-4.708-.626,1.279-12.668,4.33.245Zm-3.3-14.63.651-6.311,17.374.5.5,6.86Zm4.632,14.795.924-13.143,13.069.753L56.863,223.1Zm13.818-25.033L44.1,195.712l.45-7.962,12.566,3.2Zm-4.782-8.086,1.4-7.16,7.664.653-2.406,8.209Zm7.038,12.592,18.173.526.774,4.681-18.448,1.577Zm.575,8.086,18.575-1.577,1.125,6.784-19.173,2.078Zm1.427,19.35-.7-9.387,19.4-2.1,1.351,8.061Zm20.2-18.824-1.323-8.038,23.479.679c-.5,2.027-1.353,5.129-2.526,8.86Zm26.864,17-8.79-3.355c.552-1.326,1.076-2.628,1.556-3.932l9.234,2.178Zm-6.311-9.788a147.829,147.829,0,0,0,4.332-14.494l5.505.15,5.408,9.218-5.6,7.387Zm18.644,4.38-7.615-1.776,5.209-6.86,4.805,1.977Zm2.877-7.911-4.431-1.827,5.08-6.685a8.819,8.819,0,0,0,2.08,1.025Zm2.75.247,2.6-7.161a5.193,5.193,0,0,0,.626.025,9.685,9.685,0,0,0,3.082-.5l3.15,6.408Zm3.38,10.936,1.125-10.188,5.562-.727,3.934,8.012Zm10.814-12.592-4.1-8.357a9.635,9.635,0,0,0,2.706-5.161l7.609,1.3Zm7.763,15.8-2.328-4.731,7.763-2.228,1.247,4.856Zm18.475-5.731-10.513,3.254-1.254-4.831,12.494-3.575Zm1.152-8.036-23.133,6.609-3.505-7.129,3.9-7.71L167.2,208.6Zm.448,15.6,1.854-13.044,6.514.9-1.526,10.165Zm14.4-4.207-6.135,1.778,1.45-9.585,5.983.825Z" transform="translate(9.932 12.211)" fill="#fff"/>
          <g id="Grupo_43796" data-name="Grupo 43796" transform="translate(-74.699 -2.934)">
            <path id="Trazado_15483" data-name="Trazado 15483" d="M111.949,81.4a2.208,2.208,0,0,0,3.089.442,2.233,2.233,0,0,0,.44-.442l5.913-8.471q4.411-6.355,5.822-8.56a24.856,24.856,0,0,0,2.738-5.336,16.132,16.132,0,0,0,.7-4.987,16.363,16.363,0,0,0-2.3-8.471,17.253,17.253,0,0,0-6.175-6.175,16.786,16.786,0,0,0-16.942,0,17.276,17.276,0,0,0-6.177,6.175,16.379,16.379,0,0,0-2.292,8.471,16.132,16.132,0,0,0,.7,4.987,25.012,25.012,0,0,0,2.736,5.338q1.414,2.2,5.824,8.56,3.618,5.115,5.913,8.469m1.763-20.3a7.059,7.059,0,1,1,7.061-7.059,7.081,7.081,0,0,1-7.061,7.059Z" transform="translate(107.813 41.342)" fill="#766cae"/>
            <path id="Trazado_15484" data-name="Trazado 15484" d="M111.949,81.4a2.208,2.208,0,0,0,3.089.442,2.233,2.233,0,0,0,.44-.442l5.913-8.471q4.411-6.355,5.822-8.56a24.856,24.856,0,0,0,2.738-5.336,16.132,16.132,0,0,0,.7-4.987,16.363,16.363,0,0,0-2.3-8.471,17.253,17.253,0,0,0-6.175-6.175,16.786,16.786,0,0,0-16.942,0,17.276,17.276,0,0,0-6.177,6.175,16.379,16.379,0,0,0-2.292,8.471,16.132,16.132,0,0,0,.7,4.987,25.012,25.012,0,0,0,2.736,5.338q1.414,2.2,5.824,8.56Q109.654,78.048,111.949,81.4Zm1.763-20.3a7.059,7.059,0,1,1,7.061-7.059,7.081,7.081,0,0,1-7.061,7.059Z" transform="translate(107.813 41.342)" fill="none" stroke="#fff" stroke-width="2"/>
          </g>
          <g id="Grupo_43795" data-name="Grupo 43795" transform="translate(114.769 0.216)">
            <path id="Trazado_15485" data-name="Trazado 15485" d="M46.836,118.088a2.208,2.208,0,0,0,3.089.442,2.234,2.234,0,0,0,.44-.442l5.913-8.471q4.411-6.352,5.824-8.558a25.012,25.012,0,0,0,2.736-5.338,16.128,16.128,0,0,0,.7-4.985,16.352,16.352,0,0,0-2.3-8.471,17.259,17.259,0,0,0-6.175-6.177,16.786,16.786,0,0,0-16.942,0,17.259,17.259,0,0,0-6.175,6.177,16.35,16.35,0,0,0-2.294,8.471,16.127,16.127,0,0,0,.7,4.985,24.825,24.825,0,0,0,2.738,5.338q1.414,2.207,5.822,8.56,3.621,5.115,5.913,8.469m1.765-20.3a7.059,7.059,0,1,1,7.059-7.057A7.078,7.078,0,0,1,48.6,97.793" transform="translate(35.269 82.214)" fill="#766cae"/>
            <path id="Trazado_15486" data-name="Trazado 15486" d="M46.836,118.088a2.208,2.208,0,0,0,3.089.442,2.234,2.234,0,0,0,.44-.442l5.913-8.471q4.411-6.352,5.824-8.558a25.012,25.012,0,0,0,2.736-5.338,16.128,16.128,0,0,0,.7-4.985,16.352,16.352,0,0,0-2.3-8.471,17.259,17.259,0,0,0-6.175-6.177,16.786,16.786,0,0,0-16.942,0,17.259,17.259,0,0,0-6.175,6.177,16.35,16.35,0,0,0-2.294,8.471,16.127,16.127,0,0,0,.7,4.985,24.825,24.825,0,0,0,2.738,5.338q1.414,2.207,5.822,8.56Q44.545,114.734,46.836,118.088Zm1.765-20.3a7.059,7.059,0,1,1,7.059-7.057A7.078,7.078,0,0,1,48.6,97.793Z" transform="translate(35.269 82.214)" fill="none" stroke="#fff" stroke-width="2"/>
          </g>
          <g id="Grupo_43797" data-name="Grupo 43797" transform="translate(-18.79 39.176)">
            <path id="Trazado_15487" data-name="Trazado 15487" d="M41.969,53.637a2.208,2.208,0,0,0,3.089.442,2.3,2.3,0,0,0,.442-.442l5.913-8.471q4.408-6.352,5.822-8.56a24.755,24.755,0,0,0,2.736-5.336,16.134,16.134,0,0,0,.706-4.987,16.384,16.384,0,0,0-2.3-8.471,17.253,17.253,0,0,0-6.175-6.175,16.786,16.786,0,0,0-16.942,0,17.259,17.259,0,0,0-6.177,6.175,16.4,16.4,0,0,0-2.294,8.471A16.2,16.2,0,0,0,27.5,31.27a24.962,24.962,0,0,0,2.736,5.338q1.414,2.2,5.824,8.56,3.618,5.115,5.911,8.469m1.765-20.3A7.059,7.059,0,1,1,50.8,26.283a7.08,7.08,0,0,1-7.061,7.059Z" transform="translate(29.847 10.408)" fill="#766cae"/>
            <path id="Trazado_15488" data-name="Trazado 15488" d="M41.969,53.637a2.208,2.208,0,0,0,3.089.442,2.3,2.3,0,0,0,.442-.442l5.913-8.471q4.408-6.352,5.822-8.56a24.755,24.755,0,0,0,2.736-5.336,16.134,16.134,0,0,0,.706-4.987,16.384,16.384,0,0,0-2.3-8.471,17.253,17.253,0,0,0-6.175-6.175,16.786,16.786,0,0,0-16.942,0,17.259,17.259,0,0,0-6.177,6.175,16.4,16.4,0,0,0-2.294,8.471A16.2,16.2,0,0,0,27.5,31.27a24.962,24.962,0,0,0,2.736,5.338q1.414,2.2,5.824,8.56Q39.676,50.283,41.969,53.637Zm1.765-20.3A7.059,7.059,0,1,1,50.8,26.283a7.08,7.08,0,0,1-7.061,7.059Z" transform="translate(29.847 10.408)" fill="none" stroke="#fff" stroke-width="2"/>
          </g>
        </g>
      </g>
    </g>
    <g id="Grupo_43793" data-name="Grupo 43793" transform="translate(783 4541.387)">
      <g id="Grupo_43786" data-name="Grupo 43786" clip-path="url(#clip-path-2)">
        <g id="Grupo_43785" data-name="Grupo 43785">
          <g id="Grupo_43784" data-name="Grupo 43784" clip-path="url(#clip-path-2)">
            <path id="Trazado_15466" data-name="Trazado 15466" d="M63.782,83.465H62.411a1.73,1.73,0,0,1-1.73-1.73V79.809a1.73,1.73,0,0,1,1.73-1.73h1.372a1.73,1.73,0,0,1,1.73,1.73v1.927a1.73,1.73,0,0,1-1.73,1.73" transform="translate(-23.721 -30.523)" fill="#5c5b5b"/>
            <path id="Trazado_15467" data-name="Trazado 15467" d="M151.542,83.465h-1.372a1.73,1.73,0,0,1-1.73-1.73V79.809a1.73,1.73,0,0,1,1.73-1.73h1.372a1.73,1.73,0,0,1,1.73,1.73v1.927a1.73,1.73,0,0,1-1.73,1.73" transform="translate(-58.029 -30.523)" fill="#5c5b5b"/>
            <path id="Trazado_15468" data-name="Trazado 15468" d="M112.439,183.2l-2.33-.016L62.592,80.667l1.882-.872Z" transform="translate(-24.469 -31.193)" fill="#5c5b5b"/>
            <path id="Trazado_15469" data-name="Trazado 15469" d="M72.728,183.2l2.254-.016L122.5,80.667l-1.881-.872Z" transform="translate(-28.431 -31.193)" fill="#5c5b5b"/>
            <path id="Trazado_15470" data-name="Trazado 15470" d="M104.661,0H7.211A2.234,2.234,0,0,0,4.977,2.234V54.8a2.234,2.234,0,0,0,2.234,2.233h7.143l2.578-4.854a1.7,1.7,0,0,1,1.461-.99H93.438a1.7,1.7,0,0,1,1.454.976l2.625,4.867h7.145A2.234,2.234,0,0,0,106.9,54.8V2.234A2.234,2.234,0,0,0,104.661,0" transform="translate(-1.946 0)" fill="#e9e7e7"/>
            <path id="Trazado_15471" data-name="Trazado 15471" d="M106.858,10.337h-102v-8.1A2.235,2.235,0,0,1,7.1,0h97.525a2.235,2.235,0,0,1,2.236,2.233Z" transform="translate(-1.9)" fill="#c4006e"/>
            <rect id="Rectángulo_27760" data-name="Rectángulo 27760" width="52.05" height="1.606" transform="translate(25.488 51.193)" fill="#272727"/>
            <path id="Trazado_15472" data-name="Trazado 15472" d="M39.447,86.364H38.076a1.73,1.73,0,0,1-1.73-1.73V82.708a1.73,1.73,0,0,1,1.73-1.73h1.372a1.73,1.73,0,0,1,1.73,1.73v1.927a1.73,1.73,0,0,1-1.73,1.73" transform="translate(-14.208 -31.656)" fill="#272727"/>
            <path id="Trazado_15473" data-name="Trazado 15473" d="M127.207,86.364h-1.372a1.73,1.73,0,0,1-1.73-1.73V82.708a1.73,1.73,0,0,1,1.73-1.73h1.372a1.73,1.73,0,0,1,1.73,1.73v1.927a1.73,1.73,0,0,1-1.73,1.73" transform="translate(-48.516 -31.656)" fill="#272727"/>
            <path id="Trazado_15474" data-name="Trazado 15474" d="M87.763,188.147l-2.33-.016L37.916,85.613l1.882-.872Z" transform="translate(-14.822 -33.127)" fill="#272727"/>
            <path id="Trazado_15475" data-name="Trazado 15475" d="M48.052,188.147l2.254-.016L97.822,85.613l-1.881-.872Z" transform="translate(-18.784 -33.127)" fill="#272727"/>
            <path id="Trazado_15476" data-name="Trazado 15476" d="M1.428,68.542c.789,0,1.428-.413,1.428-.922V4.648l-.08-1.2L0,67.594c-.023.519.623.948,1.428.948" transform="translate(0 -1.35)" fill="#620a3b"/>
            <path id="Trazado_15477" data-name="Trazado 15477" d="M173.749,68.542c-.789,0-1.428-.413-1.428-.922V4.648l.08-1.2,2.776,64.141c.023.519-.623.948-1.428.948" transform="translate(-67.364 -1.35)" fill="#620a3b"/>
            <path id="Trazado_15478" data-name="Trazado 15478" d="M8.651,5.8a.935.935,0,0,1-1.87,0,.935.935,0,0,1,1.87,0" transform="translate(-2.651 -1.905)" fill="#620a3b"/>
            <path id="Trazado_15479" data-name="Trazado 15479" d="M169.2,5.8a.935.935,0,0,1-1.87,0,.935.935,0,0,1,1.87,0" transform="translate(-65.413 -1.905)" fill="#620a3b"/>
            <rect id="Rectángulo_27761" data-name="Rectángulo 27761" width="101.988" height="1.319" transform="translate(2.948 10.187)" fill="#82064d"/>
            <g id="Grupo_43783" data-name="Grupo 43783" transform="translate(53.686)" opacity="0.17">
              <g id="Grupo_43782" data-name="Grupo 43782">
                <g id="Grupo_43781" data-name="Grupo 43781" clip-path="url(#clip-path-4)">
                  <path id="Trazado_15480" data-name="Trazado 15480" d="M137.095,0H88.143V51.192h37.728a1.7,1.7,0,0,1,1.454.976l2.625,4.867h7.145a2.234,2.234,0,0,0,2.234-2.233V2.234A2.234,2.234,0,0,0,137.095,0" transform="translate(-88.143 0)" fill="#99065a"/>
                </g>
              </g>
            </g>
          </g>
        </g>
      </g>
    </g>
    <g id="Grupo_43794" data-name="Grupo 43794" transform="translate(850.927 4619.287)">
      <g id="Grupo_43791" data-name="Grupo 43791" transform="translate(0 0)" clip-path="url(#clip-path-5)">
        <path id="Trazado_15489" data-name="Trazado 15489" d="M3.824,65.789c-5.4,2.826-1.324-55.265-2.535-56.3l88.548-.053C88.59,10.9,92.816,68.3,87.373,65.744Z" transform="translate(0.974 9.758)" fill="#eae9e8"/>
        <path id="Trazado_15490" data-name="Trazado 15490" d="M88.889,11.813l.033,52.23a.923.923,0,0,1-.924.924l-83.552.051a.926.926,0,0,1-.926-.924L3.49,11.864ZM92.039,8.66l-91.7.055L.37,64.094a4.079,4.079,0,0,0,4.077,4.075h.006L88,68.118a4.077,4.077,0,0,0,4.073-4.079v0L92.043,8.654Z" transform="translate(0.349 8.952)" fill="#a9a8a7"/>
        <path id="Trazado_15491" data-name="Trazado 15491" d="M92.933,13.543.045,13.6,7.131,1.717A2.971,2.971,0,0,1,9.794.065L84.352.02c3.241-.592,7.092,11.8,8.581,13.523" transform="translate(0.047 0)" fill="#c4006e"/>
        <path id="Trazado_15492" data-name="Trazado 15492" d="M90.289,14.059l-88.235.055C-.528,14.189.524,10.021.32,8.542l91.7-.053c-.212,1.483.848,5.637-1.735,5.57" transform="translate(0.284 8.781)" fill="#83044c"/>
        <path id="Trazado_15493" data-name="Trazado 15493" d="M91.252,14.1l-89.427.055C-1.1,14.3.464,8.246.09,6.716l92.888-.057c-.37,1.548,1.194,7.568-1.725,7.442" transform="translate(0 6.888)" fill="#a3005c"/>
        <path id="Trazado_15494" data-name="Trazado 15494" d="M16.888,21.638l-10.742.008a2.364,2.364,0,0,1,0-4.728l10.742-.006c3.062-.047,3.07,4.769,0,4.726" transform="translate(3.918 17.494)" fill="#a9a8a7"/>
        <path id="Trazado_15495" data-name="Trazado 15495" d="M44.8,28.068l-28.82.016a2.363,2.363,0,0,1,0-4.726L44.8,23.34c3.056-.053,3.072,4.771,0,4.728" transform="translate(14.092 24.143)" fill="#a9a8a7"/>
        <path id="Trazado_15496" data-name="Trazado 15496" d="M61.8,36.043l-38.685.024a2.364,2.364,0,0,1,0-4.728L61.8,31.317c3.054-.049,3.076,4.769,0,4.726" transform="translate(21.467 32.395)" fill="#a9a8a7"/>
        <path id="Trazado_15497" data-name="Trazado 15497" d="M46.143,5.286c-.675-.6-31.084,1.424-30-1.164-1.2-2.576,29.446-.612,30-1.2a1.184,1.184,0,0,1,0,2.366" transform="translate(16.662 2.848)" fill="#7d0047"/>
      </g>
    </g>
    <g id="Grupo_43799" data-name="Grupo 43799" transform="translate(1000.778 4416.284)">
      <g id="Grupo_43798" data-name="Grupo 43798" clip-path="url(#clip-path-6)">
        <path id="Trazado_15498" data-name="Trazado 15498" d="M90.222,45.231A45.231,45.231,0,0,1,44.992,90.461c-60-2.382-59.98-88.088,0-90.461a45.231,45.231,0,0,1,45.23,45.231" transform="translate(0)" fill="#c4006e"/>
        <path id="Trazado_15499" data-name="Trazado 15499" d="M89.877,52.229A37.924,37.924,0,0,1,51.954,90.152c-50.305-2-50.291-73.857,0-75.847A37.924,37.924,0,0,1,89.877,52.229" transform="translate(-6.962 -6.998)" fill="#fae8f3"/>
        <path id="Trazado_15500" data-name="Trazado 15500" d="M85.45,57.982A2.749,2.749,0,0,1,82.7,55.233V22.774a2.749,2.749,0,0,1,5.5,0V55.233a2.749,2.749,0,0,1-2.749,2.749" transform="translate(-40.458 -9.796)" fill="#c4006e"/>
        <path id="Trazado_15501" data-name="Trazado 15501" d="M89.36,97.882a2.749,2.749,0,0,1,3.888,0l8.125,8.125a2.749,2.749,0,0,1-3.888,3.888L89.36,101.77a2.748,2.748,0,0,1,0-3.888" transform="translate(-43.322 -47.491)" fill="#c4006e"/>
        <path id="Trazado_15502" data-name="Trazado 15502" d="M89.156,91.116c-.145,5.723-8.535,5.722-8.679,0,.145-5.723,8.535-5.722,8.679,0" transform="translate(-39.37 -42.475)" fill="#290c1d"/>
      </g>
    </g>
  </g>
</svg>
