<svg xmlns="http://www.w3.org/2000/svg" width="99" height="99" viewBox="0 0 99 99">
  <g id="Grupo_43775" data-name="Grupo 43775" transform="translate(-158 -252)">
    <circle id="Elipse_1" data-name="Elipse 1" cx="49.5" cy="49.5" r="49.5" transform="translate(158 252)" fill="#fff"/>
    <g id="Grupo_43770" data-name="Grupo 43770" transform="translate(-3.09 -457.223)">
      <g id="Grupo_6399" data-name="Grupo 6399" transform="translate(180.09 759.332)">
        <path id="Trazado_4996" data-name="Trazado 4996" d="M437.867,789.594l13.984,14.258h47.162l-12.339-14.258Z" transform="translate(-437.867 -789.594)" fill="#c6006d"/>
        <rect id="Rectángulo_15286" data-name="Rectángulo 15286" width="47.162" height="10.42" transform="translate(13.984 14.258)" fill="#620038"/>
        <path id="Trazado_4997" data-name="Trazado 4997" d="M437.867,789.594l13.984,14.258v10.419l-13.984-13.436Z" transform="translate(-437.867 -789.594)" fill="#fefefe"/>
        <rect id="Rectángulo_15287" data-name="Rectángulo 15287" width="0.548" height="6.581" transform="translate(16.452 16.178)" fill="#c6006d"/>
        <rect id="Rectángulo_15288" data-name="Rectángulo 15288" width="0.823" height="6.581" transform="translate(17.823 16.178)" fill="#c6006d"/>
      </g>
      <g id="Grupo_6400" data-name="Grupo 6400" transform="translate(180.09 745.621)">
        <path id="Trazado_4998" data-name="Trazado 4998" d="M437.867,739.594l13.984,14.258h47.162l-12.339-14.258Z" transform="translate(-437.867 -739.594)" fill="#c6006d"/>
        <rect id="Rectángulo_15289" data-name="Rectángulo 15289" width="47.162" height="10.42" transform="translate(13.984 14.258)" fill="#620038"/>
        <path id="Trazado_4999" data-name="Trazado 4999" d="M437.867,739.594l13.984,14.258v10.42l-13.984-13.436Z" transform="translate(-437.867 -739.594)" fill="#fefefe"/>
        <rect id="Rectángulo_15290" data-name="Rectángulo 15290" width="0.548" height="6.581" transform="translate(16.452 16.178)" fill="#c6006d"/>
        <rect id="Rectángulo_15291" data-name="Rectángulo 15291" width="0.823" height="6.581" transform="translate(17.823 16.178)" fill="#c6006d"/>
      </g>
      <g id="Grupo_6401" data-name="Grupo 6401" transform="translate(180.09 733.223)">
        <path id="Trazado_5000" data-name="Trazado 5000" d="M437.867,694.374l13.984,14.258h47.162l-12.339-14.258Z" transform="translate(-437.867 -694.374)" fill="#c6006d"/>
        <rect id="Rectángulo_15292" data-name="Rectángulo 15292" width="47.787" height="8.891" transform="translate(13.236 14.964)" fill="#620038"/>
        <path id="Trazado_5001" data-name="Trazado 5001" d="M437.867,694.374l13.984,14.258v10.42l-13.984-13.436Z" transform="translate(-437.867 -694.374)" fill="#fefefe"/>
        <rect id="Rectángulo_15293" data-name="Rectángulo 15293" height="6.668" transform="translate(16.57 16.075)" fill="#c6006d"/>
        <rect id="Rectángulo_15294" data-name="Rectángulo 15294" width="1.111" height="6.668" transform="translate(17.681 16.075)" fill="#c6006d"/>
      </g>
    </g>
  </g>
</svg>
