<svg xmlns="http://www.w3.org/2000/svg" width="396.881" height="120.412" viewBox="0 0 396.881 120.412">
  <g id="Grupo_44097" data-name="Grupo 44097" transform="translate(-1170.973 -563.295)">
    <g id="Grupo_12150" data-name="Grupo 12150" transform="translate(-235 -6464.295)">
      <rect id="Rectángulo_16277" data-name="Rectángulo 16277" width="396.842" height="72.276" transform="translate(1405.973 7075.709)" fill="#fff"/>
      <path id="Trazado_8400" data-name="Trazado 8400" d="M0,0H396.842V47.121H0Z" transform="translate(1406.012 7028.59)" fill="#34344e"/>
      <line id="Línea_2207" data-name="Línea 2207" x2="396.842" transform="translate(1406.012 7075.607)" fill="none" stroke="#1a1a1a" stroke-width="1"/>
      <line id="Línea_2208" data-name="Línea 2208" y2="119.412" transform="translate(1450.557 7028.59)" fill="none" stroke="#1a1a1a" stroke-width="1"/>
      <path id="Trazado_8401" data-name="Trazado 8401" d="M0,0V47.018" transform="translate(1581.764 7028.59)" fill="none" stroke="#fff" stroke-width="1"/>
      <path id="Trazado_8402" data-name="Trazado 8402" d="M0,0V47.018" transform="translate(1450.764 7028.59)" fill="none" stroke="#fff" stroke-width="1"/>
      <line id="Línea_2210" data-name="Línea 2210" x2="396.842" transform="translate(1406.012 7106.133)" fill="none" stroke="#9f9f9f" stroke-width="1"/>
      <g id="Grupo_7236" data-name="Grupo 7236" transform="translate(1422.979 7118.734)">
        <path id="Trazado_8301" data-name="Trazado 8301" d="M-3982.4-5865.356h-7.726v-1.318l3.827-4.173a9.593,9.593,0,0,0,1.18-1.544,2.5,2.5,0,0,0,.352-1.243,1.886,1.886,0,0,0-.462-1.324,1.6,1.6,0,0,0-1.243-.506,1.848,1.848,0,0,0-1.444.567,2.238,2.238,0,0,0-.513,1.555h-1.917a3.766,3.766,0,0,1,.477-1.89,3.3,3.3,0,0,1,1.365-1.307,4.359,4.359,0,0,1,2.048-.464,3.883,3.883,0,0,1,2.639.84,2.917,2.917,0,0,1,.967,2.323,3.941,3.941,0,0,1-.485,1.8,10.245,10.245,0,0,1-1.591,2.143l-2.809,3.007h5.334Z" transform="translate(3990.351 5877.003)"/>
      </g>
      <g id="Grupo_7237" data-name="Grupo 7237" transform="translate(1425.016 7085.775)">
        <path id="Trazado_8302" data-name="Trazado 8302" d="M-3978.567-5979.648h-1.91v-9.23l-2.817.96v-1.61l4.482-1.649h.245Z" transform="translate(3983.293 5991.177)"/>
      </g>
      <g id="Grupo_7240" data-name="Grupo 7240" transform="translate(1511.023 7052.871)">
        <path id="Trazado_8346" data-name="Trazado 8346" d="M-3676.026-6094.141h-5.563l-1.164,3.344h-2.594l5.425-14.362h2.239l5.435,14.362h-2.6Zm-4.863-2.012h4.163l-2.081-5.958Z" transform="translate(3685.347 6105.159)" fill="#fff"/>
      </g>
      <g id="Grupo_7241" data-name="Grupo 7241" transform="translate(1685.18 7052.871)">
        <path id="Trazado_8347" data-name="Trazado 8347" d="M-3082.047-6090.8v-14.362h4.922a6.008,6.008,0,0,1,3.709.977,3.438,3.438,0,0,1,1.272,2.91,3.1,3.1,0,0,1-.532,1.775,3.435,3.435,0,0,1-1.559,1.223,3.169,3.169,0,0,1,1.8,1.188,3.461,3.461,0,0,1,.636,2.1,3.823,3.823,0,0,1-1.3,3.107,5.638,5.638,0,0,1-3.713,1.085Zm2.5-8.315h2.447a2.83,2.83,0,0,0,1.82-.527,1.807,1.807,0,0,0,.656-1.495,1.834,1.834,0,0,0-.606-1.539,3.065,3.065,0,0,0-1.889-.473h-2.427Zm0,1.835v4.488h2.772a2.681,2.681,0,0,0,1.834-.582,2.043,2.043,0,0,0,.661-1.618,2.05,2.05,0,0,0-2.289-2.288Z" transform="translate(3082.047 6105.159)" fill="#fff"/>
      </g>
      <path id="Trazado_8348" data-name="Trazado 8348" d="M-3984.978-6089.17l20.426-18.854v18.854Z" transform="translate(5409.508 13160.069)" fill="#fff"/>
      <line id="Línea_2211" data-name="Línea 2211" x2="396.842" transform="translate(1405.973 7138.223)" fill="none" stroke="#9f9f9f" stroke-width="1"/>
      <line id="Línea_2212" data-name="Línea 2212" y2="119.412" transform="translate(1796.477 7028.574)" fill="none" stroke="#1a1a1a" stroke-width="1"/>
      <path id="Trazado_8403" data-name="Trazado 8403" d="M0,0V47.018" transform="translate(1796.764 7027.59)" fill="none" stroke="#fff" stroke-width="1"/>
      <text id="Gubernatura" transform="translate(1460 7099)" font-size="18" font-family="Roboto-Bold, Roboto" font-weight="700"><tspan x="0" y="0">Gubernatura</tspan></text>
    </g>
    <text id="_02_06_2024" data-name="02/06/2024" transform="translate(1224.413 645.205)" font-size="20" font-family="Roboto-Medium, Roboto" font-weight="500"><tspan x="0" y="19">02/06/2024</tspan></text>
    <text id="_21:00_UTC-6_" data-name="21:00 (UTC-6)" transform="translate(1392.413 614.501)" font-size="20" font-family="Roboto-Medium, Roboto" font-weight="500"><tspan x="0" y="19">21:00 (UTC-6)</tspan></text>
  </g>
</svg>
