<svg xmlns="http://www.w3.org/2000/svg" width="1016.247" height="263.598" viewBox="0 0 1016.247 263.598">
  <g id="Grupo_43976" data-name="Grupo 43976" transform="translate(-308 -478.836)">
    <g id="Grupo_6410" data-name="Grupo 6410" transform="translate(1008.311 617.234)">
      <path id="Trazado_5126" data-name="Trazado 5126" d="M1629.923,1116.973l-11.8-11.8a2.8,2.8,0,0,0-3.958,3.958l7.021,7.022h-16.278a2.8,2.8,0,1,0,0,5.6h15.5l-7.667,6.6a2.8,2.8,0,0,0-.295,3.947h0a2.8,2.8,0,0,0,3.947.295l13.38-11.521A2.8,2.8,0,0,0,1629.923,1116.973Z" transform="translate(-1602.111 -1104.354)" fill="#fff"/>
    </g>
    <path id="Trazado_5304" data-name="Trazado 5304" d="M5408.174-2296.881l-24.686-17.1v9.77h-41.156a3.332,3.332,0,0,0-3.332,3.332v8.491a3.332,3.332,0,0,0,3.332,3.332h41.156v9.281Z" transform="translate(-4735.789 2897.893)" fill="#fff"/>
    <g id="Grupo_12154" data-name="Grupo 12154" transform="translate(-234.771 -3819.457)">
      <path id="Rectángulo_15298" data-name="Rectángulo 15298" d="M8,0H239.225a8,8,0,0,1,8,8V206.088a0,0,0,0,1,0,0H0a0,0,0,0,1,0,0V8A8,8,0,0,1,8,0Z" transform="translate(1310.924 4355.303)" fill="#fff" stroke="#c8dff2" stroke-width="1"/>
      <path id="Rectángulo_15297" data-name="Rectángulo 15297" d="M8,0H239.225a8,8,0,0,1,8,8V23.563a0,0,0,0,1,0,0H0a0,0,0,0,1,0,0V8A8,8,0,0,1,8,0Z" transform="translate(1311.293 4355.74)" fill="#c8dff2" stroke="#c8dff2" stroke-width="1"/>
      <rect id="Rectángulo_15299" data-name="Rectángulo 15299" width="216.384" height="9.623" transform="translate(1325.605 4423.344)" fill="#c6c6c6"/>
      <rect id="Rectángulo_15300" data-name="Rectángulo 15300" width="173.946" height="9.623" transform="translate(1325.729 4423.469)" fill="#4ca42b"/>
      <g id="Grupo_6415" data-name="Grupo 6415" transform="translate(1317.906 4359.891)">
        <g id="Grupo_6412" data-name="Grupo 6412" transform="translate(0 7.186)">
          <path id="Trazado_5155" data-name="Trazado 5155" d="M1851.611,822.213l3.849,3.924h12.98l-3.4-3.924Z" transform="translate(-1851.611 -822.213)" fill="#c6006d"/>
          <rect id="Rectángulo_15301" data-name="Rectángulo 15301" width="12.98" height="2.868" transform="translate(3.849 3.924)" fill="#620038"/>
          <path id="Trazado_5156" data-name="Trazado 5156" d="M1851.611,822.213l3.849,3.924V829l-3.849-3.7Z" transform="translate(-1851.611 -822.213)" fill="#fefefe"/>
          <rect id="Rectángulo_15302" data-name="Rectángulo 15302" width="0.151" height="1.811" transform="translate(4.528 4.452)" fill="#c6006d"/>
          <rect id="Rectángulo_15303" data-name="Rectángulo 15303" width="0.226" height="1.811" transform="translate(4.905 4.452)" fill="#c6006d"/>
        </g>
        <g id="Grupo_6413" data-name="Grupo 6413" transform="translate(0 3.413)">
          <path id="Trazado_5157" data-name="Trazado 5157" d="M1851.611,806.921l3.849,3.924h12.98l-3.4-3.924Z" transform="translate(-1851.611 -806.921)" fill="#c6006d"/>
          <rect id="Rectángulo_15304" data-name="Rectángulo 15304" width="12.98" height="2.868" transform="translate(3.849 3.924)" fill="#620038"/>
          <path id="Trazado_5158" data-name="Trazado 5158" d="M1851.611,806.921l3.849,3.924v2.868l-3.849-3.7Z" transform="translate(-1851.611 -806.921)" fill="#fefefe"/>
          <rect id="Rectángulo_15305" data-name="Rectángulo 15305" width="0.151" height="1.811" transform="translate(4.528 4.452)" fill="#c6006d"/>
          <rect id="Rectángulo_15306" data-name="Rectángulo 15306" width="0.226" height="1.811" transform="translate(4.905 4.452)" fill="#c6006d"/>
        </g>
        <g id="Grupo_6414" data-name="Grupo 6414">
          <path id="Trazado_5159" data-name="Trazado 5159" d="M1851.611,793.09l3.849,3.924h12.98l-3.4-3.924Z" transform="translate(-1851.611 -793.09)" fill="#c6006d"/>
          <rect id="Rectángulo_15307" data-name="Rectángulo 15307" width="12.98" height="2.868" transform="translate(3.849 3.924)" fill="#620038"/>
          <path id="Trazado_5160" data-name="Trazado 5160" d="M1851.611,793.09l3.849,3.924v2.868l-3.849-3.7Z" transform="translate(-1851.611 -793.09)" fill="#fefefe"/>
          <rect id="Rectángulo_15308" data-name="Rectángulo 15308" width="0.151" height="1.811" transform="translate(4.528 4.452)" fill="#c6006d"/>
          <rect id="Rectángulo_15309" data-name="Rectángulo 15309" width="0.226" height="1.811" transform="translate(4.905 4.452)" fill="#c6006d"/>
        </g>
      </g>
      <rect id="Rectángulo_15310" data-name="Rectángulo 15310" width="216.384" height="9.623" transform="translate(1326.801 4490.68)" fill="#c6c6c6"/>
      <rect id="Rectángulo_15311" data-name="Rectángulo 15311" width="35.197" height="9.523" transform="translate(1326.924 4490.803)" fill="#4ca42b"/>
      <path id="Trazado_5161" data-name="Trazado 5161" d="M2488.815,784.265H2561.6v9.187a4.136,4.136,0,0,1-4.136,4.136h-64.513a4.136,4.136,0,0,1-4.136-4.136Z" transform="translate(-1013.691 3573.449)" fill="#fff"/>
      <path id="Trazado_5162" data-name="Trazado 5162" d="M2686.815,784.394h24.307v9.187a3.96,3.96,0,0,1-3.755,4.136h-20.552Z" transform="translate(-1162.838 3573.352)" fill="#ff0902"/>
      <path id="Trazado_5163" data-name="Trazado 5163" d="M2724.642,800.695l2.839-2.839a.74.74,0,0,0-1.047-1.047l-2.839,2.839-2.84-2.839a.74.74,0,0,0-1.047,1.047l2.839,2.839-2.839,2.839a.74.74,0,0,0,1.047,1.047l2.84-2.839,2.839,2.839a.74.74,0,0,0,1.047-1.047Z" transform="translate(-1187.453 3564.164)" fill="#f2f2f2"/>
      <rect id="Rectángulo_15312" data-name="Rectángulo 15312" width="10.856" height="1.974" transform="translate(1482.033 4365.609)" fill="#999"/>
      <rect id="Rectángulo_15313" data-name="Rectángulo 15313" width="8.636" height="8.636" transform="translate(1507.199 4360.676)" fill="#f2f2f2"/>
      <rect id="Rectángulo_15314" data-name="Rectángulo 15314" width="5.675" height="5.675" transform="translate(1509.914 4363.883)" fill="#b3b3b3"/>
      <line id="Línea_2040" data-name="Línea 2040" y2="13.275" transform="translate(1499.674 4357.715)" fill="none" stroke="#b3b3b3" stroke-width="1"/>
      <line id="Línea_2041" data-name="Línea 2041" y2="13.275" transform="translate(1524.029 4357.648)" fill="none" stroke="#b3b3b3" stroke-width="1"/>
      <g id="Grupo_6416" data-name="Grupo 6416" transform="translate(1326.592 4506.74)">
        <rect id="Rectángulo_15315" data-name="Rectángulo 15315" width="102.147" height="15.051" rx="7.525" transform="translate(0.247 1.234)" fill="#c0c0c2"/>
        <rect id="Rectángulo_15316" data-name="Rectángulo 15316" width="102.147" height="15.051" rx="7.525" fill="#f0f0f0"/>
      </g>
      <g id="Grupo_6417" data-name="Grupo 6417" transform="translate(1439.348 4507.234)">
        <rect id="Rectángulo_15317" data-name="Rectángulo 15317" width="102.147" height="15.051" rx="7.525" transform="translate(0.247 1.234)" fill="#c0c0c2"/>
        <rect id="Rectángulo_15318" data-name="Rectángulo 15318" width="102.147" height="15.051" rx="7.525" fill="#f0f0f0"/>
      </g>
      <g id="Grupo_6418" data-name="Grupo 6418" transform="translate(1326.592 4529.193)">
        <rect id="Rectángulo_15319" data-name="Rectángulo 15319" width="102.147" height="15.051" rx="7.525" transform="translate(0.247 1.234)" fill="#c0c0c2"/>
        <rect id="Rectángulo_15320" data-name="Rectángulo 15320" width="102.147" height="15.051" rx="7.525" transform="translate(0 0)" fill="#f0f0f0"/>
      </g>
      <g id="Grupo_6419" data-name="Grupo 6419" transform="translate(1493.889 4528.576)">
        <rect id="Rectángulo_15321" data-name="Rectángulo 15321" width="47.012" height="15.051" rx="7.525" transform="translate(0.114 1.234)" fill="#c0c0c2"/>
        <rect id="Rectángulo_15322" data-name="Rectángulo 15322" width="47.012" height="15.051" rx="7.525" fill="#f0f0f0"/>
      </g>
      <g id="Grupo_6421" data-name="Grupo 6421" transform="translate(1439.102 4529.193)">
        <rect id="Rectángulo_15323" data-name="Rectángulo 15323" width="47.012" height="15.051" rx="7.525" transform="translate(0.114 1.234)" fill="#c0c0c2"/>
        <rect id="Rectángulo_15324" data-name="Rectángulo 15324" width="47.012" height="15.051" rx="7.525" transform="translate(0 0)" fill="#f0f0f0"/>
        <g id="Grupo_6420" data-name="Grupo 6420" transform="translate(0 0)">
          <rect id="Rectángulo_15325" data-name="Rectángulo 15325" width="47.012" height="15.051" rx="7.525" transform="translate(0.114 1.234)" fill="#c0c0c2"/>
          <rect id="Rectángulo_15326" data-name="Rectángulo 15326" width="47.012" height="15.051" rx="7.525" fill="#f0f0f0"/>
        </g>
      </g>
      <g id="Grupo_6422" data-name="Grupo 6422" transform="translate(1328.207 4391.016)">
        <path id="Trazado_5164" data-name="Trazado 5164" d="M1896.895,924.615h-2.106l-.441,1.266h-.982l2.054-5.438h.848l2.058,5.438h-.986Zm-1.841-.762h1.576l-.788-2.256Z" transform="translate(-1893.365 -920.144)" fill="#4d4d4d"/>
        <path id="Trazado_5165" data-name="Trazado 5165" d="M1917.719,926.707a2.271,2.271,0,0,0-.37-.03.833.833,0,0,0-.841.478v2.764h-.907v-4.041h.866l.022.452a1.023,1.023,0,0,1,.911-.526.854.854,0,0,1,.322.052Z" transform="translate(-1910.115 -924.182)" fill="#4d4d4d"/>
        <path id="Trazado_5166" data-name="Trazado 5166" d="M1927.361,929.269a.821.821,0,0,0,.564-.2.675.675,0,0,0,.239-.489h.855a1.332,1.332,0,0,1-.235.7,1.545,1.545,0,0,1-.6.517,1.785,1.785,0,0,1-.814.19,1.724,1.724,0,0,1-1.345-.549,2.178,2.178,0,0,1-.5-1.517v-.093a2.141,2.141,0,0,1,.493-1.477,1.706,1.706,0,0,1,1.345-.555,1.657,1.657,0,0,1,1.174.42,1.5,1.5,0,0,1,.476,1.1h-.855a.83.83,0,0,0-.237-.572.763.763,0,0,0-.566-.224.8.8,0,0,0-.68.319,1.628,1.628,0,0,0-.243.969v.145a1.655,1.655,0,0,0,.237.98A.8.8,0,0,0,1927.361,929.269Z" transform="translate(-1917.595 -924.182)" fill="#4d4d4d"/>
        <path id="Trazado_5167" data-name="Trazado 5167" d="M1943.3,921.368a1.419,1.419,0,0,1,1.124-.515q1.293,0,1.311,1.475v2.64h-.907v-2.607a.8.8,0,0,0-.181-.592.74.74,0,0,0-.532-.174.875.875,0,0,0-.814.485v2.887h-.907v-5.737h.907Z" transform="translate(-1930.296 -919.232)" fill="#4d4d4d"/>
        <path id="Trazado_5168" data-name="Trazado 5168" d="M1959.664,920.369a.483.483,0,0,1,.133-.348.592.592,0,0,1,.76,0,.478.478,0,0,1,.135.348.466.466,0,0,1-.135.342.6.6,0,0,1-.76,0A.471.471,0,0,1,1959.664,920.369Zm.964,5.09h-.907v-4.041h.907Z" transform="translate(-1943.306 -919.722)" fill="#4d4d4d"/>
        <path id="Trazado_5169" data-name="Trazado 5169" d="M1967.829,929l.855-2.891h.938l-1.4,4.041h-.788l-1.412-4.041h.941Z" transform="translate(-1948.094 -924.409)" fill="#4d4d4d"/>
        <path id="Trazado_5170" data-name="Trazado 5170" d="M1981.99,927.861a2.381,2.381,0,0,1,.235-1.07,1.718,1.718,0,0,1,.661-.732,1.861,1.861,0,0,1,.979-.256,1.766,1.766,0,0,1,1.328.526,2.072,2.072,0,0,1,.551,1.4l0,.213a2.4,2.4,0,0,1-.23,1.068,1.693,1.693,0,0,1-.657.728,1.872,1.872,0,0,1-.988.258,1.752,1.752,0,0,1-1.369-.569,2.182,2.182,0,0,1-.514-1.518Zm.908.078a1.63,1.63,0,0,0,.258.976.838.838,0,0,0,.717.353.83.83,0,0,0,.716-.359,1.8,1.8,0,0,0,.256-1.049,1.608,1.608,0,0,0-.263-.971.887.887,0,0,0-1.421-.006A1.763,1.763,0,0,0,1982.9,927.939Z" transform="translate(-1960.123 -924.182)" fill="#4d4d4d"/>
        <path id="Trazado_5171" data-name="Trazado 5171" d="M2012.029,923.883a1.963,1.963,0,0,1-.642,1.358,2.19,2.19,0,0,1-1.49.487,2.122,2.122,0,0,1-1.145-.308,2.021,2.021,0,0,1-.763-.876,3.155,3.155,0,0,1-.28-1.318v-.508a3.185,3.185,0,0,1,.273-1.356,2.051,2.051,0,0,1,.782-.9,2.181,2.181,0,0,1,1.178-.318,2.1,2.1,0,0,1,1.449.488,2.036,2.036,0,0,1,.639,1.38h-.941a1.341,1.341,0,0,0-.342-.846,1.129,1.129,0,0,0-.8-.26,1.1,1.1,0,0,0-.947.451,2.247,2.247,0,0,0-.338,1.321v.482a2.387,2.387,0,0,0,.316,1.345,1.046,1.046,0,0,0,.924.464,1.223,1.223,0,0,0,.837-.25,1.3,1.3,0,0,0,.354-.833Z" transform="translate(-1979.496 -919.917)" fill="#4d4d4d"/>
        <path id="Trazado_5172" data-name="Trazado 5172" d="M2028.9,925.756a.519.519,0,0,1,.392.144.5.5,0,0,1,.138.36.482.482,0,0,1-.138.353.611.611,0,0,1-.777,0,.473.473,0,0,1-.142-.355.5.5,0,0,1,.138-.36A.513.513,0,0,1,2028.9,925.756Zm0,3.171a.52.52,0,0,1,.392.144.5.5,0,0,1,.138.36.483.483,0,0,1-.138.353.614.614,0,0,1-.777,0,.474.474,0,0,1-.142-.355.5.5,0,0,1,.138-.36A.514.514,0,0,1,2028.9,928.927Z" transform="translate(-1995.059 -924.146)" fill="#4d4d4d"/>
        <path id="Trazado_5173" data-name="Trazado 5173" d="M2040.577,920.443v3.634a1.766,1.766,0,0,1-.555,1.372,2.432,2.432,0,0,1-2.96.008,1.776,1.776,0,0,1-.549-1.384v-3.63h.941v3.638a1.157,1.157,0,0,0,.276.833,1.079,1.079,0,0,0,.814.288q1.09,0,1.09-1.151v-3.608Z" transform="translate(-2001.194 -920.144)" fill="#4d4d4d"/>
        <path id="Trazado_5174" data-name="Trazado 5174" d="M2058.414,928.82a.413.413,0,0,0-.2-.37,2.143,2.143,0,0,0-.663-.224,3.4,3.4,0,0,1-.773-.246,1.032,1.032,0,0,1-.68-.952,1.076,1.076,0,0,1,.44-.874,1.743,1.743,0,0,1,1.121-.351,1.814,1.814,0,0,1,1.171.359,1.138,1.138,0,0,1,.446.929h-.908a.559.559,0,0,0-.194-.435.743.743,0,0,0-.515-.174.8.8,0,0,0-.487.138.436.436,0,0,0-.189.37.367.367,0,0,0,.176.325,2.4,2.4,0,0,0,.71.234,3.339,3.339,0,0,1,.838.28,1.188,1.188,0,0,1,.452.39.994.994,0,0,1,.147.553,1.054,1.054,0,0,1-.452.883,1.926,1.926,0,0,1-1.184.338,2.091,2.091,0,0,1-.885-.179,1.459,1.459,0,0,1-.6-.493,1.166,1.166,0,0,1-.217-.676h.881a.638.638,0,0,0,.243.495.941.941,0,0,0,.594.174.916.916,0,0,0,.545-.136A.423.423,0,0,0,2058.414,928.82Z" transform="translate(-2015.846 -924.182)" fill="#4d4d4d"/>
        <path id="Trazado_5175" data-name="Trazado 5175" d="M2074.019,929.993a1.878,1.878,0,0,1-1.4-.543,1.972,1.972,0,0,1-.536-1.448v-.112a2.424,2.424,0,0,1,.233-1.081,1.779,1.779,0,0,1,.656-.741,1.73,1.73,0,0,1,.941-.265,1.586,1.586,0,0,1,1.275.526,2.227,2.227,0,0,1,.45,1.49v.366H2073a1.213,1.213,0,0,0,.334.792,1,1,0,0,0,.738.292,1.229,1.229,0,0,0,1.016-.5l.49.467a1.64,1.64,0,0,1-.648.563A2.034,2.034,0,0,1,2074.019,929.993Zm-.109-3.462a.764.764,0,0,0-.6.261,1.352,1.352,0,0,0-.293.729h1.729v-.068a1.1,1.1,0,0,0-.243-.689A.759.759,0,0,0,2073.91,926.531Z" transform="translate(-2027.988 -924.182)" fill="#4d4d4d"/>
        <path id="Trazado_5176" data-name="Trazado 5176" d="M2091.458,926.707a2.273,2.273,0,0,0-.37-.03.833.833,0,0,0-.84.478v2.764h-.907v-4.041h.866l.022.452a1.022,1.022,0,0,1,.911-.526.854.854,0,0,1,.321.052Z" transform="translate(-2040.987 -924.182)" fill="#4d4d4d"/>
        <path id="Trazado_5177" data-name="Trazado 5177" d="M2101.947,928.82a.412.412,0,0,0-.2-.37,2.143,2.143,0,0,0-.663-.224,3.411,3.411,0,0,1-.773-.246,1.032,1.032,0,0,1-.68-.952,1.076,1.076,0,0,1,.441-.874,1.742,1.742,0,0,1,1.12-.351,1.814,1.814,0,0,1,1.171.359,1.139,1.139,0,0,1,.447.929h-.908a.558.558,0,0,0-.194-.435.743.743,0,0,0-.515-.174.8.8,0,0,0-.487.138.436.436,0,0,0-.189.37.367.367,0,0,0,.176.325,2.394,2.394,0,0,0,.709.234,3.348,3.348,0,0,1,.838.28,1.187,1.187,0,0,1,.452.39.994.994,0,0,1,.148.553,1.053,1.053,0,0,1-.452.883,1.926,1.926,0,0,1-1.184.338,2.09,2.09,0,0,1-.885-.179,1.458,1.458,0,0,1-.605-.493,1.166,1.166,0,0,1-.217-.676h.881a.637.637,0,0,0,.243.495.941.941,0,0,0,.594.174.916.916,0,0,0,.545-.136A.423.423,0,0,0,2101.947,928.82Z" transform="translate(-2048.638 -924.182)" fill="#4d4d4d"/>
        <path id="Trazado_5178" data-name="Trazado 5178" d="M2116.931,938.607a.52.52,0,0,1,.393.144.5.5,0,0,1,.138.36.483.483,0,0,1-.138.353.614.614,0,0,1-.777,0,.474.474,0,0,1-.142-.355.5.5,0,0,1,.138-.36A.513.513,0,0,1,2116.931,938.607Z" transform="translate(-2061.373 -933.827)" fill="#4d4d4d"/>
        <path id="Trazado_5179" data-name="Trazado 5179" d="M2125.59,938.607a.519.519,0,0,1,.392.144.5.5,0,0,1,.138.36.483.483,0,0,1-.138.353.613.613,0,0,1-.777,0,.473.473,0,0,1-.142-.355.5.5,0,0,1,.138-.36A.514.514,0,0,1,2125.59,938.607Z" transform="translate(-2067.896 -933.827)" fill="#4d4d4d"/>
        <path id="Trazado_5180" data-name="Trazado 5180" d="M2134.248,938.607a.519.519,0,0,1,.392.144.5.5,0,0,1,.138.36.483.483,0,0,1-.138.353.613.613,0,0,1-.777,0,.473.473,0,0,1-.142-.355.5.5,0,0,1,.138-.36A.514.514,0,0,1,2134.248,938.607Z" transform="translate(-2074.417 -933.827)" fill="#4d4d4d"/>
        <path id="Trazado_5181" data-name="Trazado 5181" d="M2141.08,926.348h-.714l2.14-5.9h.714Z" transform="translate(-2079.423 -920.144)" fill="#4d4d4d"/>
        <path id="Trazado_5208" data-name="Trazado 5208" d="M1896.284,971.993a1.878,1.878,0,0,1-1.4-.543,1.972,1.972,0,0,1-.536-1.448v-.112a2.425,2.425,0,0,1,.233-1.081,1.781,1.781,0,0,1,.655-.741,1.732,1.732,0,0,1,.941-.265,1.587,1.587,0,0,1,1.276.526,2.228,2.228,0,0,1,.45,1.49v.366h-2.641a1.21,1.21,0,0,0,.334.792,1,1,0,0,0,.738.292,1.23,1.23,0,0,0,1.016-.5l.489.467a1.638,1.638,0,0,1-.648.563A2.031,2.031,0,0,1,1896.284,971.993Zm-.108-3.462a.764.764,0,0,0-.6.261,1.354,1.354,0,0,0-.293.729h1.729v-.068a1.107,1.107,0,0,0-.243-.689A.76.76,0,0,0,1896.176,968.531Z" transform="translate(-1894.107 -955.819)" fill="#4d4d4d"/>
        <path id="Trazado_5209" data-name="Trazado 5209" d="M1912,969.435l.769-1.33h1.008l-1.236,1.99,1.277,2.05h-1l-.807-1.381-.8,1.381H1910.2l1.277-2.05-1.232-1.99h1Z" transform="translate(-1906.044 -956.046)" fill="#4d4d4d"/>
        <path id="Trazado_5210" data-name="Trazado 5210" d="M1927.012,964.123v.983h.713v.672h-.713v2.256a.494.494,0,0,0,.092.334.422.422,0,0,0,.327.1,1.392,1.392,0,0,0,.318-.037v.7a2.237,2.237,0,0,1-.6.086q-1.046,0-1.046-1.154v-2.289h-.665v-.672h.665v-.983Z" transform="translate(-1917.525 -953.047)" fill="#4d4d4d"/>
        <path id="Trazado_5211" data-name="Trazado 5211" d="M1939.621,968.706a2.266,2.266,0,0,0-.37-.03.833.833,0,0,0-.84.478v2.764h-.907v-4.041h.866l.022.452a1.023,1.023,0,0,1,.911-.526.854.854,0,0,1,.321.052Z" transform="translate(-1926.614 -955.819)" fill="#4d4d4d"/>
        <path id="Trazado_5212" data-name="Trazado 5212" d="M1949.977,971.918a1.391,1.391,0,0,1-.1-.377,1.412,1.412,0,0,1-1.061.452,1.426,1.426,0,0,1-.994-.347,1.111,1.111,0,0,1-.384-.859,1.147,1.147,0,0,1,.48-.992,2.327,2.327,0,0,1,1.372-.345h.557v-.265a.708.708,0,0,0-.176-.5.7.7,0,0,0-.534-.189.8.8,0,0,0-.508.155.48.48,0,0,0-.2.394h-.908a1.007,1.007,0,0,1,.221-.622,1.466,1.466,0,0,1,.6-.453,2.1,2.1,0,0,1,.846-.164,1.7,1.7,0,0,1,1.132.357,1.271,1.271,0,0,1,.433,1v1.822a2.062,2.062,0,0,0,.153.87v.063Zm-1-.653a1.033,1.033,0,0,0,.506-.13.875.875,0,0,0,.357-.351v-.762h-.489a1.341,1.341,0,0,0-.758.175.57.57,0,0,0-.254.5.531.531,0,0,0,.174.416A.672.672,0,0,0,1948.98,971.265Z" transform="translate(-1934.093 -955.819)" fill="#4d4d4d"/>
        <path id="Trazado_5213" data-name="Trazado 5213" d="M1964.858,970.846l.822-2.741h.967l-1.606,4.653a1.3,1.3,0,0,1-1.255,1.02,1.62,1.62,0,0,1-.437-.068v-.705l.172.011a.887.887,0,0,0,.517-.125.826.826,0,0,0,.274-.42l.131-.347-1.419-4.019H1964Z" transform="translate(-1945.837 -956.046)" fill="#4d4d4d"/>
        <path id="Trazado_5214" data-name="Trazado 5214" d="M1981.125,971.993a1.878,1.878,0,0,1-1.4-.543,1.971,1.971,0,0,1-.536-1.448v-.112a2.426,2.426,0,0,1,.234-1.081,1.779,1.779,0,0,1,.655-.741,1.732,1.732,0,0,1,.941-.265,1.587,1.587,0,0,1,1.276.526,2.229,2.229,0,0,1,.45,1.49v.366H1980.1a1.214,1.214,0,0,0,.335.792,1,1,0,0,0,.738.292,1.229,1.229,0,0,0,1.016-.5l.49.467a1.635,1.635,0,0,1-.648.563A2.032,2.032,0,0,1,1981.125,971.993Zm-.108-3.462a.764.764,0,0,0-.6.261,1.357,1.357,0,0,0-.293.729h1.729v-.068a1.105,1.105,0,0,0-.243-.689A.76.76,0,0,0,1981.016,968.531Z" transform="translate(-1958.014 -955.819)" fill="#4d4d4d"/>
        <path id="Trazado_5215" data-name="Trazado 5215" d="M1997.255,967.877l.026.467a1.453,1.453,0,0,1,1.177-.541q1.262,0,1.285,1.445v2.67h-.907V969.3a.834.834,0,0,0-.166-.569.7.7,0,0,0-.543-.185.875.875,0,0,0-.818.5v2.875h-.908v-4.041Z" transform="translate(-1970.978 -955.819)" fill="#4d4d4d"/>
        <path id="Trazado_5216" data-name="Trazado 5216" d="M2013.006,964.918a2.4,2.4,0,0,1,.433-1.5,1.387,1.387,0,0,1,1.161-.566,1.32,1.32,0,0,1,1.038.448v-2.069h.907v5.737h-.822l-.045-.418a1.338,1.338,0,0,1-1.087.493,1.379,1.379,0,0,1-1.148-.571A2.49,2.49,0,0,1,2013.006,964.918Zm.907.078a1.683,1.683,0,0,0,.237.962.77.77,0,0,0,.674.345.858.858,0,0,0,.815-.5v-1.726a.845.845,0,0,0-.807-.485.776.776,0,0,0-.68.349A1.876,1.876,0,0,0,2013.913,965Z" transform="translate(-1983.487 -950.869)" fill="#4d4d4d"/>
        <path id="Trazado_5217" data-name="Trazado 5217" d="M2030.5,969.861a2.384,2.384,0,0,1,.235-1.07,1.72,1.72,0,0,1,.661-.732,1.86,1.86,0,0,1,.979-.256,1.766,1.766,0,0,1,1.328.526,2.075,2.075,0,0,1,.551,1.4l0,.213a2.4,2.4,0,0,1-.229,1.068,1.7,1.7,0,0,1-.657.728,1.873,1.873,0,0,1-.988.258,1.752,1.752,0,0,1-1.369-.57,2.179,2.179,0,0,1-.514-1.518Zm.907.078a1.626,1.626,0,0,0,.258.976.837.837,0,0,0,.717.353.828.828,0,0,0,.715-.359,1.8,1.8,0,0,0,.256-1.049,1.608,1.608,0,0,0-.263-.971.841.841,0,0,0-.715-.359.832.832,0,0,0-.706.353A1.765,1.765,0,0,0,2031.411,969.939Z" transform="translate(-1996.667 -955.819)" fill="#4d4d4d"/>
        <path id="Trazado_5244" data-name="Trazado 5244" d="M2690.11,1005.65a1.264,1.264,0,0,1-.206.712,1.429,1.429,0,0,1-.56.491,1.555,1.555,0,0,1,.655.541,1.368,1.368,0,0,1,.229.777,1.427,1.427,0,0,1-.485,1.137,2.2,2.2,0,0,1-2.59,0,1.423,1.423,0,0,1-.488-1.135,1.381,1.381,0,0,1,.231-.784,1.484,1.484,0,0,1,.65-.534,1.425,1.425,0,0,1-.555-.491,1.275,1.275,0,0,1-.2-.712,1.415,1.415,0,0,1,.448-1.1,2.007,2.007,0,0,1,2.424,0A1.414,1.414,0,0,1,2690.11,1005.65Zm-.788,2.476a.9.9,0,0,0-.241-.652.849.849,0,0,0-.637-.248.837.837,0,0,0-.633.246.9.9,0,0,0-.237.653.876.876,0,0,0,.233.639.994.994,0,0,0,1.285.007A.876.876,0,0,0,2689.322,1008.126Zm-.116-2.442a.845.845,0,0,0-.205-.585.789.789,0,0,0-1.1-.011.973.973,0,0,0,0,1.189.8.8,0,0,0,1.1,0A.84.84,0,0,0,2689.207,1005.684Z" transform="translate(-2490.934 -983.191)" fill="#4d4d4d"/>
        <path id="Trazado_5245" data-name="Trazado 5245" d="M2707.861,1007.364a2.964,2.964,0,0,1-.439,1.769,1.55,1.55,0,0,1-1.335.6,1.57,1.57,0,0,1-1.328-.581,2.837,2.837,0,0,1-.457-1.72v-.941a2.921,2.921,0,0,1,.439-1.759,1.829,1.829,0,0,1,2.67-.015,2.833,2.833,0,0,1,.45,1.71Zm-.908-1.016a2.3,2.3,0,0,0-.209-1.122.8.8,0,0,0-1.318-.019,2.128,2.128,0,0,0-.22,1.055v1.233a2.362,2.362,0,0,0,.213,1.135.715.715,0,0,0,.668.374.7.7,0,0,0,.646-.346,2.211,2.211,0,0,0,.22-1.081Z" transform="translate(-2504.218 -983.191)" fill="#4d4d4d"/>
        <path id="Trazado_5246" data-name="Trazado 5246" d="M2721.829,1005.249a1.093,1.093,0,0,1,.317-.809,1.264,1.264,0,0,1,1.671,0,1.12,1.12,0,0,1,.316.828v.269a1.084,1.084,0,0,1-.316.8,1.127,1.127,0,0,1-.831.314,1.164,1.164,0,0,1-.831-.308,1.088,1.088,0,0,1-.327-.831Zm.635.286a.6.6,0,0,0,.144.417.486.486,0,0,0,.379.159.476.476,0,0,0,.374-.159.624.624,0,0,0,.142-.432v-.273a.606.606,0,0,0-.144-.42.484.484,0,0,0-.379-.161.471.471,0,0,0-.375.163.636.636,0,0,0-.14.429Zm.709,3.7-.466-.269,2.655-4.25.467.269Zm1.27-.926a1.069,1.069,0,0,1,.325-.81,1.265,1.265,0,0,1,1.66,0,1.107,1.107,0,0,1,.323.837v.265a1.092,1.092,0,0,1-.312.8,1.12,1.12,0,0,1-.835.316,1.152,1.152,0,0,1-.842-.312,1.1,1.1,0,0,1-.32-.823Zm.635.288a.593.593,0,0,0,.147.416.488.488,0,0,0,.379.162.475.475,0,0,0,.375-.155.638.638,0,0,0,.136-.435v-.28a.589.589,0,0,0-.146-.418.524.524,0,0,0-.749,0,.615.615,0,0,0-.144.433Z" transform="translate(-2517.42 -983.179)" fill="#4d4d4d"/>
      </g>
      <g id="Grupo_6423" data-name="Grupo 6423" transform="translate(1328.852 4450.943)">
        <path id="Trazado_5247" data-name="Trazado 5247" d="M1900.284,1164.095h-1.7v4.676h-.938v-4.676h-1.68v-.762h4.314Z" transform="translate(-1895.97 -1163.034)" fill="#4d4d4d"/>
        <path id="Trazado_5248" data-name="Trazado 5248" d="M1916,1163.258a.482.482,0,0,1,.133-.347.5.5,0,0,1,.379-.138.508.508,0,0,1,.381.138.477.477,0,0,1,.135.347.466.466,0,0,1-.135.342.511.511,0,0,1-.381.136.5.5,0,0,1-.379-.136A.471.471,0,0,1,1916,1163.258Zm.964,5.09h-.908v-4.041h.908Z" transform="translate(-1911.055 -1162.612)" fill="#4d4d4d"/>
        <path id="Trazado_5249" data-name="Trazado 5249" d="M1925.211,1172.881a1.878,1.878,0,0,1-1.4-.543,1.972,1.972,0,0,1-.536-1.448v-.112a2.424,2.424,0,0,1,.234-1.081,1.772,1.772,0,0,1,.655-.741,1.731,1.731,0,0,1,.941-.266,1.587,1.587,0,0,1,1.276.526,2.228,2.228,0,0,1,.45,1.49v.366h-2.641a1.213,1.213,0,0,0,.334.792,1,1,0,0,0,.737.291,1.227,1.227,0,0,0,1.016-.5l.49.467a1.639,1.639,0,0,1-.648.562A2.035,2.035,0,0,1,1925.211,1172.881Zm-.108-3.462a.764.764,0,0,0-.6.261,1.353,1.353,0,0,0-.293.728h1.729v-.067a1.1,1.1,0,0,0-.243-.689A.759.759,0,0,0,1925.1,1169.42Z" transform="translate(-1916.539 -1167.07)" fill="#4d4d4d"/>
        <path id="Trazado_5250" data-name="Trazado 5250" d="M1941.387,1168.766l.026.422a1.454,1.454,0,0,1,1.165-.5,1.117,1.117,0,0,1,1.109.62,1.433,1.433,0,0,1,1.24-.62,1.259,1.259,0,0,1,1,.37,1.626,1.626,0,0,1,.334,1.091v2.655h-.907v-2.629a.8.8,0,0,0-.168-.564.736.736,0,0,0-.557-.179.757.757,0,0,0-.506.166.877.877,0,0,0-.274.435l0,2.771h-.907v-2.659a.648.648,0,0,0-.728-.713.8.8,0,0,0-.773.444v2.928h-.908v-4.041Z" transform="translate(-1929.537 -1167.07)" fill="#4d4d4d"/>
        <path id="Trazado_5251" data-name="Trazado 5251" d="M1971.046,1170.827a2.407,2.407,0,0,1-.426,1.5,1.478,1.478,0,0,1-2.207.121v1.916h-.908v-5.595h.836l.038.411a1.334,1.334,0,0,1,1.087-.485,1.377,1.377,0,0,1,1.159.551,2.47,2.47,0,0,1,.42,1.529Zm-.9-.078a1.685,1.685,0,0,0-.241-.96.783.783,0,0,0-.689-.355.835.835,0,0,0-.8.459v1.793a.843.843,0,0,0,.807.47.782.782,0,0,0,.678-.349A1.855,1.855,0,0,0,1970.143,1170.749Z" transform="translate(-1949.856 -1167.07)" fill="#4d4d4d"/>
        <path id="Trazado_5252" data-name="Trazado 5252" d="M1984.277,1170.749a2.385,2.385,0,0,1,.235-1.07,1.717,1.717,0,0,1,.661-.732,1.861,1.861,0,0,1,.979-.256,1.766,1.766,0,0,1,1.328.526,2.073,2.073,0,0,1,.551,1.4l0,.213a2.407,2.407,0,0,1-.23,1.068,1.7,1.7,0,0,1-.657.728,1.874,1.874,0,0,1-.988.258,1.753,1.753,0,0,1-1.369-.57,2.181,2.181,0,0,1-.514-1.518Zm.908.078a1.628,1.628,0,0,0,.258.977.9.9,0,0,0,1.432-.006,1.8,1.8,0,0,0,.256-1.049,1.608,1.608,0,0,0-.263-.971.888.888,0,0,0-1.421-.006A1.765,1.765,0,0,0,1985.185,1170.827Z" transform="translate(-1962.489 -1167.07)" fill="#4d4d4d"/>
        <path id="Trazado_5253" data-name="Trazado 5253" d="M2002.425,1165.013V1166h.713v.672h-.713v2.256a.5.5,0,0,0,.091.334.423.423,0,0,0,.327.1,1.393,1.393,0,0,0,.317-.037v.7a2.236,2.236,0,0,1-.6.086q-1.046,0-1.046-1.154v-2.289h-.665V1166h.665v-.982Z" transform="translate(-1974.975 -1164.3)" fill="#4d4d4d"/>
        <path id="Trazado_5254" data-name="Trazado 5254" d="M2015.034,1169.595a2.237,2.237,0,0,0-.37-.03.832.832,0,0,0-.84.478v2.764h-.908v-4.041h.866l.023.452a1.022,1.022,0,0,1,.911-.526.851.851,0,0,1,.321.052Z" transform="translate(-1984.062 -1167.07)" fill="#4d4d4d"/>
        <path id="Trazado_5255" data-name="Trazado 5255" d="M2025.389,1172.807a1.393,1.393,0,0,1-.1-.377,1.526,1.526,0,0,1-2.054.1,1.111,1.111,0,0,1-.385-.859,1.147,1.147,0,0,1,.48-.992,2.326,2.326,0,0,1,1.373-.346h.556v-.265a.707.707,0,0,0-.176-.5.7.7,0,0,0-.534-.189.8.8,0,0,0-.508.155.48.48,0,0,0-.2.394h-.907a1.007,1.007,0,0,1,.22-.622,1.474,1.474,0,0,1,.6-.454,2.106,2.106,0,0,1,.846-.164,1.7,1.7,0,0,1,1.131.357,1.271,1.271,0,0,1,.433,1v1.823a2.063,2.063,0,0,0,.153.87v.064Zm-1-.653a1.029,1.029,0,0,0,.506-.131.873.873,0,0,0,.357-.351v-.762h-.49a1.337,1.337,0,0,0-.758.176.568.568,0,0,0-.254.5.53.53,0,0,0,.174.417A.671.671,0,0,0,2024.392,1172.153Z" transform="translate(-1991.542 -1167.07)" fill="#4d4d4d"/>
        <path id="Trazado_5256" data-name="Trazado 5256" d="M2040.942,1168.766l.026.467a1.453,1.453,0,0,1,1.177-.542q1.262,0,1.285,1.446v2.67h-.907v-2.618a.831.831,0,0,0-.166-.569.7.7,0,0,0-.543-.185.875.875,0,0,0-.818.5v2.876h-.907v-4.041Z" transform="translate(-2004.529 -1167.07)" fill="#4d4d4d"/>
        <path id="Trazado_5257" data-name="Trazado 5257" d="M2059.081,1171.709a.412.412,0,0,0-.2-.37,2.13,2.13,0,0,0-.663-.224,3.4,3.4,0,0,1-.773-.246,1.032,1.032,0,0,1-.68-.953,1.076,1.076,0,0,1,.44-.874,1.743,1.743,0,0,1,1.121-.351,1.812,1.812,0,0,1,1.171.359,1.138,1.138,0,0,1,.446.93h-.908a.56.56,0,0,0-.194-.435.744.744,0,0,0-.515-.174.8.8,0,0,0-.487.138.436.436,0,0,0-.188.37.366.366,0,0,0,.175.325,2.4,2.4,0,0,0,.71.234,3.363,3.363,0,0,1,.838.28,1.188,1.188,0,0,1,.452.39,1,1,0,0,1,.147.553,1.054,1.054,0,0,1-.452.883,1.928,1.928,0,0,1-1.184.338,2.088,2.088,0,0,1-.885-.179,1.454,1.454,0,0,1-.6-.493,1.167,1.167,0,0,1-.217-.676h.881a.641.641,0,0,0,.243.495.942.942,0,0,0,.594.174.918.918,0,0,0,.545-.136A.421.421,0,0,0,2059.081,1171.709Z" transform="translate(-2016.991 -1167.07)" fill="#4d4d4d"/>
        <path id="Trazado_5258" data-name="Trazado 5258" d="M2074.521,1172.157a.823.823,0,0,0,.564-.2.677.677,0,0,0,.239-.49h.855a1.333,1.333,0,0,1-.235.7,1.546,1.546,0,0,1-.6.517,1.784,1.784,0,0,1-.814.19,1.723,1.723,0,0,1-1.344-.549,2.178,2.178,0,0,1-.5-1.516v-.093a2.142,2.142,0,0,1,.493-1.477,1.708,1.708,0,0,1,1.345-.555,1.658,1.658,0,0,1,1.174.42,1.5,1.5,0,0,1,.477,1.1h-.855a.83.83,0,0,0-.237-.571.763.763,0,0,0-.566-.224.8.8,0,0,0-.68.319,1.625,1.625,0,0,0-.243.969v.146a1.655,1.655,0,0,0,.237.98A.8.8,0,0,0,2074.521,1172.157Z" transform="translate(-2029.088 -1167.07)" fill="#4d4d4d"/>
        <path id="Trazado_5259" data-name="Trazado 5259" d="M2091.992,1172.639a1.408,1.408,0,0,1-1.135.47,1.255,1.255,0,0,1-1-.385,1.636,1.636,0,0,1-.338-1.113v-2.618h.907v2.607q0,.769.639.769a.9.9,0,0,0,.893-.475v-2.9h.908v4.041h-.855Z" transform="translate(-2041.767 -1167.298)" fill="#4d4d4d"/>
        <path id="Trazado_5260" data-name="Trazado 5260" d="M2108.942,1169.595a2.241,2.241,0,0,0-.37-.03.832.832,0,0,0-.84.478v2.764h-.908v-4.041h.866l.022.452a1.022,1.022,0,0,1,.911-.526.85.85,0,0,1,.321.052Z" transform="translate(-2054.8 -1167.07)" fill="#4d4d4d"/>
        <path id="Trazado_5261" data-name="Trazado 5261" d="M2119.841,1169.595a2.238,2.238,0,0,0-.37-.03.832.832,0,0,0-.84.478v2.764h-.907v-4.041h.866l.022.452a1.023,1.023,0,0,1,.912-.526.848.848,0,0,1,.321.052Z" transform="translate(-2063.009 -1167.07)" fill="#4d4d4d"/>
        <path id="Trazado_5262" data-name="Trazado 5262" d="M2128.637,1163.258a.482.482,0,0,1,.132-.347.5.5,0,0,1,.379-.138.507.507,0,0,1,.381.138.478.478,0,0,1,.135.347.467.467,0,0,1-.135.342.511.511,0,0,1-.381.136.505.505,0,0,1-.379-.136A.47.47,0,0,1,2128.637,1163.258Zm.963,5.09h-.908v-4.041h.908Z" transform="translate(-2071.23 -1162.612)" fill="#4d4d4d"/>
        <path id="Trazado_5263" data-name="Trazado 5263" d="M2135.856,1165.808a2.4,2.4,0,0,1,.433-1.5,1.389,1.389,0,0,1,1.161-.566,1.319,1.319,0,0,1,1.038.448v-2.069h.908v5.736h-.822l-.045-.418a1.339,1.339,0,0,1-1.087.493,1.378,1.378,0,0,1-1.148-.572A2.487,2.487,0,0,1,2135.856,1165.808Zm.908.078a1.68,1.68,0,0,0,.237.962.769.769,0,0,0,.674.346.857.857,0,0,0,.814-.5v-1.726a.844.844,0,0,0-.806-.485.775.775,0,0,0-.68.349A1.87,1.87,0,0,0,2136.764,1165.886Z" transform="translate(-2076.668 -1162.122)" fill="#4d4d4d"/>
        <path id="Trazado_5264" data-name="Trazado 5264" d="M2153.354,1170.749a2.381,2.381,0,0,1,.236-1.07,1.715,1.715,0,0,1,.661-.732,1.861,1.861,0,0,1,.978-.256,1.767,1.767,0,0,1,1.328.526,2.073,2.073,0,0,1,.551,1.4l0,.213a2.407,2.407,0,0,1-.23,1.068,1.7,1.7,0,0,1-.657.728,1.873,1.873,0,0,1-.988.258,1.752,1.752,0,0,1-1.368-.57,2.181,2.181,0,0,1-.514-1.518Zm.908.078a1.63,1.63,0,0,0,.258.977.9.9,0,0,0,1.433-.006,1.8,1.8,0,0,0,.256-1.049,1.608,1.608,0,0,0-.263-.971.888.888,0,0,0-1.421-.006A1.765,1.765,0,0,0,2154.262,1170.827Z" transform="translate(-2089.849 -1167.07)" fill="#4d4d4d"/>
        <path id="Trazado_5265" data-name="Trazado 5265" d="M2620.438,1166.253a2.967,2.967,0,0,1-.439,1.769,1.55,1.55,0,0,1-1.335.6,1.57,1.57,0,0,1-1.328-.581,2.839,2.839,0,0,1-.457-1.72v-.941a2.919,2.919,0,0,1,.439-1.759,1.829,1.829,0,0,1,2.67-.015,2.831,2.831,0,0,1,.45,1.71Zm-.908-1.016a2.3,2.3,0,0,0-.209-1.122.8.8,0,0,0-1.318-.019,2.127,2.127,0,0,0-.221,1.055v1.232a2.361,2.361,0,0,0,.213,1.135.715.715,0,0,0,.668.373.7.7,0,0,0,.646-.345,2.213,2.213,0,0,0,.22-1.081Z" transform="translate(-2439.008 -1162.806)" fill="#4d4d4d"/>
        <path id="Trazado_5266" data-name="Trazado 5266" d="M2638.057,1166.253a2.967,2.967,0,0,1-.439,1.769,1.552,1.552,0,0,1-1.336.6,1.57,1.57,0,0,1-1.327-.581,2.837,2.837,0,0,1-.457-1.72v-.941a2.921,2.921,0,0,1,.438-1.759,1.829,1.829,0,0,1,2.67-.015,2.83,2.83,0,0,1,.45,1.71Zm-.908-1.016a2.3,2.3,0,0,0-.209-1.122.8.8,0,0,0-1.318-.019,2.124,2.124,0,0,0-.221,1.055v1.232a2.358,2.358,0,0,0,.213,1.135.715.715,0,0,0,.668.373.7.7,0,0,0,.646-.345,2.216,2.216,0,0,0,.22-1.081Z" transform="translate(-2452.28 -1162.806)" fill="#4d4d4d"/>
        <path id="Trazado_5267" data-name="Trazado 5267" d="M2653.021,1168.646a.519.519,0,0,1,.392.144.5.5,0,0,1,.138.36.483.483,0,0,1-.138.353.612.612,0,0,1-.777,0,.475.475,0,0,1-.142-.355.5.5,0,0,1,.138-.36A.514.514,0,0,1,2653.021,1168.646Zm0,3.171a.518.518,0,0,1,.392.144.5.5,0,0,1,.138.36.483.483,0,0,1-.138.353.613.613,0,0,1-.777,0,.474.474,0,0,1-.142-.355.5.5,0,0,1,.138-.36A.513.513,0,0,1,2653.021,1171.817Z" transform="translate(-2465.836 -1167.036)" fill="#4d4d4d"/>
        <path id="Trazado_5268" data-name="Trazado 5268" d="M2663.9,1166.253a2.965,2.965,0,0,1-.439,1.769,1.551,1.551,0,0,1-1.335.6,1.57,1.57,0,0,1-1.328-.581,2.837,2.837,0,0,1-.457-1.72v-.941a2.919,2.919,0,0,1,.439-1.759,1.829,1.829,0,0,1,2.67-.015,2.831,2.831,0,0,1,.45,1.71Zm-.908-1.016a2.3,2.3,0,0,0-.209-1.122.8.8,0,0,0-1.318-.019,2.126,2.126,0,0,0-.221,1.055v1.232a2.361,2.361,0,0,0,.213,1.135.716.716,0,0,0,.668.373.7.7,0,0,0,.646-.345,2.213,2.213,0,0,0,.22-1.081Z" transform="translate(-2471.743 -1162.806)" fill="#4d4d4d"/>
        <path id="Trazado_5269" data-name="Trazado 5269" d="M2681.515,1166.253a2.967,2.967,0,0,1-.439,1.769,1.551,1.551,0,0,1-1.335.6,1.57,1.57,0,0,1-1.327-.581,2.837,2.837,0,0,1-.457-1.72v-.941a2.921,2.921,0,0,1,.438-1.759,1.829,1.829,0,0,1,2.67-.015,2.83,2.83,0,0,1,.45,1.71Zm-.908-1.016a2.3,2.3,0,0,0-.209-1.122.8.8,0,0,0-1.318-.019,2.127,2.127,0,0,0-.221,1.055v1.232a2.361,2.361,0,0,0,.213,1.135.715.715,0,0,0,.668.373.7.7,0,0,0,.646-.345,2.219,2.219,0,0,0,.22-1.081Z" transform="translate(-2485.015 -1162.806)" fill="#4d4d4d"/>
        <path id="Trazado_5270" data-name="Trazado 5270" d="M2696.479,1168.646a.519.519,0,0,1,.392.144.5.5,0,0,1,.138.36.482.482,0,0,1-.138.353.612.612,0,0,1-.777,0,.475.475,0,0,1-.142-.355.5.5,0,0,1,.138-.36A.514.514,0,0,1,2696.479,1168.646Zm0,3.171a.518.518,0,0,1,.392.144.5.5,0,0,1,.138.36.482.482,0,0,1-.138.353.613.613,0,0,1-.777,0,.475.475,0,0,1-.142-.355.5.5,0,0,1,.138-.36A.513.513,0,0,1,2696.479,1171.817Z" transform="translate(-2498.572 -1167.036)" fill="#4d4d4d"/>
        <path id="Trazado_5271" data-name="Trazado 5271" d="M2707.353,1166.253a2.967,2.967,0,0,1-.439,1.769,1.55,1.55,0,0,1-1.335.6,1.57,1.57,0,0,1-1.328-.581,2.837,2.837,0,0,1-.457-1.72v-.941a2.919,2.919,0,0,1,.439-1.759,1.829,1.829,0,0,1,2.67-.015,2.831,2.831,0,0,1,.45,1.71Zm-.908-1.016a2.3,2.3,0,0,0-.209-1.122.8.8,0,0,0-1.318-.019,2.127,2.127,0,0,0-.221,1.055v1.232a2.361,2.361,0,0,0,.213,1.135.716.716,0,0,0,.668.373.7.7,0,0,0,.646-.345,2.213,2.213,0,0,0,.22-1.081Z" transform="translate(-2504.478 -1162.806)" fill="#4d4d4d"/>
        <path id="Trazado_5272" data-name="Trazado 5272" d="M2724.972,1166.253a2.969,2.969,0,0,1-.438,1.769,1.552,1.552,0,0,1-1.336.6,1.57,1.57,0,0,1-1.327-.581,2.837,2.837,0,0,1-.457-1.72v-.941a2.921,2.921,0,0,1,.438-1.759,1.829,1.829,0,0,1,2.67-.015,2.83,2.83,0,0,1,.45,1.71Zm-.908-1.016a2.3,2.3,0,0,0-.209-1.122.8.8,0,0,0-1.318-.019,2.127,2.127,0,0,0-.22,1.055v1.232a2.359,2.359,0,0,0,.213,1.135.715.715,0,0,0,.668.373.7.7,0,0,0,.646-.345,2.219,2.219,0,0,0,.22-1.081Z" transform="translate(-2517.75 -1162.806)" fill="#4d4d4d"/>
      </g>
      <g id="Grupo_6424" data-name="Grupo 6424" transform="translate(1328.742 4480.043)">
        <path id="Trazado_5273" data-name="Trazado 5273" d="M1896.474,1284.7v2.017h-.945v-5.438h2.08a2.1,2.1,0,0,1,1.447.475,1.6,1.6,0,0,1,.536,1.256,1.543,1.543,0,0,1-.525,1.245,2.2,2.2,0,0,1-1.469.445Zm0-.762h1.135a1.12,1.12,0,0,0,.769-.237.872.872,0,0,0,.265-.685.939.939,0,0,0-.269-.7,1.038,1.038,0,0,0-.739-.271h-1.162Z" transform="translate(-1895.529 -1280.978)" fill="#4d4d4d"/>
        <path id="Trazado_5274" data-name="Trazado 5274" d="M1917.1,1287.54a2.282,2.282,0,0,0-.37-.03.832.832,0,0,0-.84.478v2.764h-.908v-4.041h.867l.023.452a1.022,1.022,0,0,1,.911-.526.853.853,0,0,1,.321.052Z" transform="translate(-1910.18 -1285.016)" fill="#4d4d4d"/>
        <path id="Trazado_5275" data-name="Trazado 5275" d="M1924.652,1288.695a2.384,2.384,0,0,1,.235-1.07,1.719,1.719,0,0,1,.661-.732,1.861,1.861,0,0,1,.979-.256,1.766,1.766,0,0,1,1.328.526,2.072,2.072,0,0,1,.551,1.4l0,.213a2.4,2.4,0,0,1-.23,1.068,1.692,1.692,0,0,1-.657.728,1.873,1.873,0,0,1-.988.258,1.753,1.753,0,0,1-1.369-.569,2.182,2.182,0,0,1-.514-1.518Zm.907.078a1.629,1.629,0,0,0,.258.976.837.837,0,0,0,.717.353.829.829,0,0,0,.715-.359,1.8,1.8,0,0,0,.256-1.049,1.608,1.608,0,0,0-.263-.971.887.887,0,0,0-1.421-.006A1.765,1.765,0,0,0,1925.559,1288.773Z" transform="translate(-1917.466 -1285.016)" fill="#4d4d4d"/>
        <path id="Trazado_5276" data-name="Trazado 5276" d="M1944.132,1290.1a.821.821,0,0,0,.564-.2.677.677,0,0,0,.239-.489h.855a1.333,1.333,0,0,1-.235.7,1.544,1.544,0,0,1-.6.517,1.787,1.787,0,0,1-.814.19,1.724,1.724,0,0,1-1.345-.549,2.18,2.18,0,0,1-.5-1.517v-.093a2.142,2.142,0,0,1,.493-1.477,1.706,1.706,0,0,1,1.344-.555,1.659,1.659,0,0,1,1.174.42,1.5,1.5,0,0,1,.476,1.1h-.855a.831.831,0,0,0-.237-.572.764.764,0,0,0-.566-.224.8.8,0,0,0-.68.32,1.626,1.626,0,0,0-.243.969v.145a1.657,1.657,0,0,0,.237.98A.8.8,0,0,0,1944.132,1290.1Z" transform="translate(-1930.762 -1285.016)" fill="#4d4d4d"/>
        <path id="Trazado_5277" data-name="Trazado 5277" d="M1960.523,1290.827a1.879,1.879,0,0,1-1.4-.543,1.973,1.973,0,0,1-.536-1.448v-.112a2.427,2.427,0,0,1,.233-1.081,1.781,1.781,0,0,1,.656-.741,1.733,1.733,0,0,1,.941-.265,1.587,1.587,0,0,1,1.275.526,2.228,2.228,0,0,1,.45,1.491v.366H1959.5a1.212,1.212,0,0,0,.334.792,1,1,0,0,0,.738.292,1.229,1.229,0,0,0,1.016-.5l.489.467a1.636,1.636,0,0,1-.648.563A2.032,2.032,0,0,1,1960.523,1290.827Zm-.109-3.462a.764.764,0,0,0-.6.261,1.357,1.357,0,0,0-.293.729h1.729v-.068a1.106,1.106,0,0,0-.243-.689A.76.76,0,0,0,1960.415,1287.365Z" transform="translate(-1943.03 -1285.016)" fill="#4d4d4d"/>
        <path id="Trazado_5278" data-name="Trazado 5278" d="M1977.553,1289.655a.412.412,0,0,0-.2-.37,2.143,2.143,0,0,0-.663-.224,3.4,3.4,0,0,1-.773-.246,1.032,1.032,0,0,1-.68-.952,1.076,1.076,0,0,1,.441-.874,1.742,1.742,0,0,1,1.12-.351,1.813,1.813,0,0,1,1.171.358,1.138,1.138,0,0,1,.446.93h-.908a.558.558,0,0,0-.194-.435.743.743,0,0,0-.515-.174.8.8,0,0,0-.487.138.435.435,0,0,0-.189.37.367.367,0,0,0,.175.325,2.412,2.412,0,0,0,.71.234,3.341,3.341,0,0,1,.839.28,1.189,1.189,0,0,1,.452.39.994.994,0,0,1,.147.553,1.054,1.054,0,0,1-.452.883,1.925,1.925,0,0,1-1.184.338,2.09,2.09,0,0,1-.885-.179,1.458,1.458,0,0,1-.605-.493,1.169,1.169,0,0,1-.216-.676h.881a.641.641,0,0,0,.243.495.941.941,0,0,0,.594.174.916.916,0,0,0,.545-.136A.422.422,0,0,0,1977.553,1289.655Z" transform="translate(-1955.47 -1285.016)" fill="#4d4d4d"/>
        <path id="Trazado_5279" data-name="Trazado 5279" d="M1993.873,1290.752a1.4,1.4,0,0,1-.1-.377,1.526,1.526,0,0,1-2.054.1,1.11,1.11,0,0,1-.385-.859,1.147,1.147,0,0,1,.48-.991,2.328,2.328,0,0,1,1.372-.346h.557v-.265a.708.708,0,0,0-.176-.5.7.7,0,0,0-.534-.189.8.8,0,0,0-.508.155.481.481,0,0,0-.2.394h-.907a1.009,1.009,0,0,1,.22-.622,1.466,1.466,0,0,1,.6-.453,2.1,2.1,0,0,1,.846-.164,1.7,1.7,0,0,1,1.131.356,1.273,1.273,0,0,1,.433,1v1.823a2.062,2.062,0,0,0,.153.87v.063Zm-1-.653a1.031,1.031,0,0,0,.506-.131.873.873,0,0,0,.357-.351v-.762h-.489a1.34,1.34,0,0,0-.758.176.569.569,0,0,0-.254.5.529.529,0,0,0,.173.416A.671.671,0,0,0,1992.875,1290.1Z" transform="translate(-1967.692 -1285.016)" fill="#4d4d4d"/>
        <path id="Trazado_5280" data-name="Trazado 5280" d="M2007.935,1283.752a2.4,2.4,0,0,1,.433-1.5,1.387,1.387,0,0,1,1.161-.566,1.318,1.318,0,0,1,1.038.448v-2.069h.908v5.737h-.822l-.045-.418a1.338,1.338,0,0,1-1.087.493,1.38,1.38,0,0,1-1.148-.571A2.49,2.49,0,0,1,2007.935,1283.752Zm.907.078a1.684,1.684,0,0,0,.237.962.77.77,0,0,0,.674.345.857.857,0,0,0,.814-.5v-1.726a.844.844,0,0,0-.807-.485.776.776,0,0,0-.68.349A1.874,1.874,0,0,0,2008.842,1283.831Z" transform="translate(-1980.201 -1280.066)" fill="#4d4d4d"/>
        <path id="Trazado_5281" data-name="Trazado 5281" d="M2025.433,1288.695a2.38,2.38,0,0,1,.235-1.07,1.717,1.717,0,0,1,.661-.732,1.861,1.861,0,0,1,.979-.256,1.766,1.766,0,0,1,1.328.526,2.074,2.074,0,0,1,.551,1.4l0,.213a2.4,2.4,0,0,1-.23,1.068,1.692,1.692,0,0,1-.657.728,1.873,1.873,0,0,1-.987.258,1.752,1.752,0,0,1-1.369-.569,2.181,2.181,0,0,1-.513-1.518Zm.907.078a1.627,1.627,0,0,0,.258.976.837.837,0,0,0,.717.353.828.828,0,0,0,.715-.359,1.8,1.8,0,0,0,.256-1.049,1.607,1.607,0,0,0-.263-.971.841.841,0,0,0-.715-.359.832.832,0,0,0-.706.353A1.765,1.765,0,0,0,2026.34,1288.773Z" transform="translate(-1993.382 -1285.016)" fill="#4d4d4d"/>
      </g>
      <rect id="Rectángulo_15344" data-name="Rectángulo 15344" width="216.384" height="9.623" transform="translate(1326.605 4462.344)" fill="#f0f0f0"/>
      <text id="_20240602_2100_PREP.zip" data-name="20240602_2100_PREP.zip" transform="translate(1393 4397)" fill="#4d4d4d" font-size="8" font-family="Roboto-Medium, Roboto" font-weight="500"><tspan x="0" y="0">20240602_2100_PREP.zip</tspan></text>
      <text id="_20240602_2100_PREP.zip-2" data-name="20240602_2100_PREP.zip" transform="translate(1328 4416)" fill="#4d4d4d" font-size="8" font-family="Roboto-Medium, Roboto" font-weight="500"><tspan x="0" y="0">20240602_2100_PREP.zip</tspan></text>
      <text id="Extrayendo_de_20240602_2100_" data-name="Extrayendo de 20240602_2100…" transform="translate(1398 4370.313)" fill="#4d4d4d" font-size="8" font-family="Roboto-Medium, Roboto" font-weight="500"><tspan x="-58" y="0">Extrayendo de 20240602_2100…</tspan></text>
    </g>
    <g id="Grupo_43771" data-name="Grupo 43771" transform="translate(-256 -3237.688)">
      <rect id="Rectángulo_15285" data-name="Rectángulo 15285" width="92" height="105" transform="translate(969 3743.23)" fill="#d4e3f2"/>
      <g id="Grupo_43763" data-name="Grupo 43763" transform="translate(22.91 45.543)">
        <path id="Trazado_15462" data-name="Trazado 15462" d="M437.867,694.374l0,33.205,12.487,11.991h42.532V707.362L481.2,694.374Z" transform="translate(526.222 3013.849)" fill="#c6006d"/>
        <g id="Grupo_6399" data-name="Grupo 6399" transform="translate(964.09 3730.717)">
          <path id="Trazado_4996" data-name="Trazado 4996" d="M437.867,789.594l12.583,12.83h42.438l-11.1-12.83Z" transform="translate(-437.867 -789.594)" fill="#c6006d"/>
          <rect id="Rectángulo_15286" data-name="Rectángulo 15286" width="42.438" height="9.376" transform="translate(12.583 12.83)" fill="#620038"/>
          <path id="Trazado_4997" data-name="Trazado 4997" d="M437.867,789.594l12.583,12.83V811.8l-12.583-12.09Z" transform="translate(-437.867 -789.594)" fill="#fefefe"/>
          <rect id="Rectángulo_15287" data-name="Rectángulo 15287" width="1" height="5.922" transform="translate(13.91 14.557)" fill="#c6006d"/>
          <rect id="Rectángulo_15288" data-name="Rectángulo 15288" width="1" height="5.922" transform="translate(15.91 14.557)" fill="#c6006d"/>
        </g>
        <g id="Grupo_6400" data-name="Grupo 6400" transform="translate(964.09 3719.379)">
          <path id="Trazado_4998" data-name="Trazado 4998" d="M437.867,739.594l12.583,12.83h42.438l-11.1-12.83Z" transform="translate(-437.867 -739.594)" fill="#c6006d"/>
          <rect id="Rectángulo_15289" data-name="Rectángulo 15289" width="42.438" height="9.376" transform="translate(12.583 12.83)" fill="#620038"/>
          <path id="Trazado_4999" data-name="Trazado 4999" d="M437.867,739.594l12.583,12.83V761.8l-12.583-12.09Z" transform="translate(-437.867 -739.594)" fill="#fefefe"/>
          <rect id="Rectángulo_15290" data-name="Rectángulo 15290" width="1" height="5.922" transform="translate(13.91 14.557)" fill="#c6006d"/>
          <rect id="Rectángulo_15291" data-name="Rectángulo 15291" width="1" height="5.922" transform="translate(15.91 14.557)" fill="#c6006d"/>
        </g>
        <g id="Grupo_6401" data-name="Grupo 6401" transform="translate(964.09 3708.223)">
          <path id="Trazado_5000" data-name="Trazado 5000" d="M437.867,694.374l12.583,12.83h42.438l-11.1-12.83Z" transform="translate(-437.867 -694.374)" fill="#c6006d"/>
          <rect id="Rectángulo_15292" data-name="Rectángulo 15292" width="42.438" height="9.376" transform="translate(12.583 12.83)" fill="#620038"/>
          <path id="Trazado_5001" data-name="Trazado 5001" d="M437.867,694.374l12.583,12.83v9.376l-12.583-12.09Z" transform="translate(-437.867 -694.374)" fill="#fefefe"/>
          <rect id="Rectángulo_15293" data-name="Rectángulo 15293" width="1" height="6" transform="translate(13.91 14.465)" fill="#c6006d"/>
          <rect id="Rectángulo_15294" data-name="Rectángulo 15294" width="1" height="6" transform="translate(15.91 14.465)" fill="#c6006d"/>
        </g>
      </g>
      <text id="_20230605_PREP.zip" data-name="20230605_PREP.zip" transform="translate(992 3810.543)" font-size="9" font-family="Roboto-Regular, Roboto"><tspan x="1" y="8">20230605_</tspan><tspan x="6" y="18">PREP.zip</tspan></text>
    </g>
    <g id="Grupo_41938" data-name="Grupo 41938" transform="translate(-313.592 -3186.275)">
      <rect id="Rectángulo_15295" data-name="Rectángulo 15295" width="216.384" height="170.368" transform="translate(1066.308 3729.287)" fill="#f6f6f6"/>
      <rect id="Rectángulo_15296" data-name="Rectángulo 15296" width="216.014" height="19.985" transform="translate(1066.554 3757.445)" fill="#bcd3e7"/>
      <g id="Grupo_6403" data-name="Grupo 6403" transform="translate(1084.553 3741.549)">
        <path id="Trazado_5028" data-name="Trazado 5028" d="M639.122,838.3h-3.465l-.725,2.083h-1.616l3.379-8.946h1.395l3.385,8.946h-1.622Zm-3.029-1.253h2.593l-1.3-3.711Z" transform="translate(-633.315 -830.945)" fill="#4d4d4d"/>
        <path id="Trazado_5029" data-name="Trazado 5029" d="M675.734,835.625a3.991,3.991,0,0,1-.691,2.464,2.251,2.251,0,0,1-1.9.916,2.168,2.168,0,0,1-1.819-.842l-.074.719H669.9v-9.437h1.493v3.429a2.161,2.161,0,0,1,1.739-.762,2.277,2.277,0,0,1,1.911.9,4.059,4.059,0,0,1,.695,2.525Zm-1.493-.129a2.824,2.824,0,0,0-.381-1.622,1.268,1.268,0,0,0-1.106-.541,1.387,1.387,0,0,0-1.364.848v2.74a1.4,1.4,0,0,0,1.376.866,1.259,1.259,0,0,0,1.081-.522,2.736,2.736,0,0,0,.393-1.579Z" transform="translate(-660.871 -829.444)" fill="#4d4d4d"/>
        <path id="Trazado_5030" data-name="Trazado 5030" d="M702.093,841.739a3.713,3.713,0,0,0-.608-.049,1.369,1.369,0,0,0-1.382.787v4.547h-1.493v-6.648h1.426l.037.743a1.682,1.682,0,0,1,1.5-.866,1.4,1.4,0,0,1,.529.086Z" transform="translate(-682.499 -837.585)" fill="#4d4d4d"/>
        <path id="Trazado_5031" data-name="Trazado 5031" d="M716.564,831.314a.791.791,0,0,1,.218-.571.823.823,0,0,1,.624-.228.834.834,0,0,1,.627.228.786.786,0,0,1,.221.571.769.769,0,0,1-.221.562.84.84,0,0,1-.627.224.829.829,0,0,1-.624-.224A.773.773,0,0,1,716.564,831.314Zm1.585,8.374h-1.493V833.04h1.493Z" transform="translate(-696.024 -830.251)" fill="#4d4d4d"/>
        <path id="Trazado_5032" data-name="Trazado 5032" d="M733.047,841.739a3.715,3.715,0,0,0-.608-.049,1.369,1.369,0,0,0-1.383.787v4.547h-1.493v-6.648h1.426l.037.743a1.682,1.682,0,0,1,1.5-.866,1.4,1.4,0,0,1,.528.086Z" transform="translate(-705.816 -837.585)" fill="#4d4d4d"/>
      </g>
      <g id="Grupo_6404" data-name="Grupo 6404" transform="translate(1085.991 3761.66)">
        <path id="Trazado_5033" data-name="Trazado 5033" d="M644.373,918.423H640.7v2.753h4.3v1.241h-5.849v-8.946h5.806v1.253H640.7v2.47h3.675Z" transform="translate(-639.144 -912.85)" fill="#4d4d4d"/>
        <path id="Trazado_5034" data-name="Trazado 5034" d="M668.028,924.972l1.266-2.187h1.659l-2.034,3.275,2.1,3.373h-1.647l-1.327-2.273-1.321,2.273h-1.659l2.1-3.373-2.028-3.275h1.647Z" transform="translate(-658.67 -919.866)" fill="#4d4d4d"/>
        <path id="Trazado_5035" data-name="Trazado 5035" d="M692.73,916.234v1.616H693.9v1.106H692.73v3.711a.816.816,0,0,0,.151.55.7.7,0,0,0,.538.169,2.3,2.3,0,0,0,.522-.061v1.155a3.691,3.691,0,0,1-.983.141q-1.721,0-1.72-1.9v-3.766h-1.094V917.85h1.094v-1.616Z" transform="translate(-677.561 -914.932)" fill="#4d4d4d"/>
        <path id="Trazado_5036" data-name="Trazado 5036" d="M713.474,923.774a3.692,3.692,0,0,0-.608-.049,1.369,1.369,0,0,0-1.382.787v4.547H709.99V922.41h1.426l.037.743a1.682,1.682,0,0,1,1.5-.866,1.4,1.4,0,0,1,.528.086Z" transform="translate(-692.51 -919.491)" fill="#4d4d4d"/>
        <path id="Trazado_5037" data-name="Trazado 5037" d="M730.51,929.058a.969.969,0,1,0-1.917.123,2.344,2.344,0,0,1-1.634-.572,1.827,1.827,0,0,1-.633-1.413,1.888,1.888,0,0,1,.79-1.631,3.827,3.827,0,0,1,2.258-.568h.916v-.436a1.167,1.167,0,0,0-.289-.827,1.147,1.147,0,0,0-.879-.31,1.313,1.313,0,0,0-.835.255.788.788,0,0,0-.326.648h-1.493a1.656,1.656,0,0,1,.363-1.023,2.411,2.411,0,0,1,.986-.746,3.463,3.463,0,0,1,1.392-.27,2.791,2.791,0,0,1,1.862.586,2.091,2.091,0,0,1,.713,1.65v3a3.391,3.391,0,0,0,.252,1.431v.1Zm-1.64-1.075a1.7,1.7,0,0,0,.832-.215,1.438,1.438,0,0,0,.587-.578v-1.253h-.8a2.2,2.2,0,0,0-1.247.289.935.935,0,0,0-.418.817.874.874,0,0,0,.285.685A1.108,1.108,0,0,0,728.87,927.983Z" transform="translate(-704.815 -919.491)" fill="#4d4d4d"/>
        <path id="Trazado_5038" data-name="Trazado 5038" d="M756.927,929.181a3.088,3.088,0,0,1-2.3-.894,3.243,3.243,0,0,1-.882-2.381v-.184a3.988,3.988,0,0,1,.384-1.779,2.922,2.922,0,0,1,1.078-1.22,2.852,2.852,0,0,1,1.548-.436,2.61,2.61,0,0,1,2.1.866,3.665,3.665,0,0,1,.74,2.452v.6H755.25a1.994,1.994,0,0,0,.55,1.3,1.651,1.651,0,0,0,1.214.479,2.022,2.022,0,0,0,1.671-.83l.8.768a2.683,2.683,0,0,1-1.066.925A3.337,3.337,0,0,1,756.927,929.181Zm-.178-5.7a1.258,1.258,0,0,0-.992.43,2.229,2.229,0,0,0-.482,1.2h2.845V925a1.812,1.812,0,0,0-.4-1.133A1.247,1.247,0,0,0,756.749,923.485Z" transform="translate(-725.469 -919.491)" fill="#4d4d4d"/>
        <path id="Trazado_5039" data-name="Trazado 5039" d="M785.617,923.774a3.692,3.692,0,0,0-.608-.049,1.369,1.369,0,0,0-1.382.787v4.547h-1.493V922.41h1.425l.037.743a1.682,1.682,0,0,1,1.5-.866,1.4,1.4,0,0,1,.528.086Z" transform="translate(-746.853 -919.491)" fill="#4d4d4d"/>
        <path id="Trazado_5040" data-name="Trazado 5040" d="M811.809,920.522V914.98h-1.014v-1.106h1.014v-.609a2.282,2.282,0,0,1,.615-1.708,2.354,2.354,0,0,1,1.72-.6,3.448,3.448,0,0,1,.836.111l-.037,1.167a2.978,2.978,0,0,0-.571-.049.959.959,0,0,0-1.069,1.1v.59h1.352v1.106H813.3v5.542Z" transform="translate(-768.443 -910.955)" fill="#4d4d4d"/>
        <path id="Trazado_5041" data-name="Trazado 5041" d="M830.867,913.348a.792.792,0,0,1,.218-.571.824.824,0,0,1,.624-.227.835.835,0,0,1,.627.227.787.787,0,0,1,.221.571.768.768,0,0,1-.221.562.841.841,0,0,1-.627.224.83.83,0,0,1-.624-.224A.774.774,0,0,1,830.867,913.348Zm1.585,8.375h-1.493v-6.648h1.493Z" transform="translate(-783.563 -912.156)" fill="#4d4d4d"/>
        <path id="Trazado_5042" data-name="Trazado 5042" d="M845.756,927.989a1.349,1.349,0,0,0,.928-.326,1.113,1.113,0,0,0,.393-.8h1.407a2.2,2.2,0,0,1-.387,1.158,2.544,2.544,0,0,1-.983.851,2.933,2.933,0,0,1-1.34.313,2.835,2.835,0,0,1-2.212-.9,3.584,3.584,0,0,1-.817-2.495v-.153a3.523,3.523,0,0,1,.811-2.43,2.81,2.81,0,0,1,2.212-.912,2.731,2.731,0,0,1,1.932.691,2.476,2.476,0,0,1,.784,1.816h-1.407a1.37,1.37,0,0,0-.39-.94,1.256,1.256,0,0,0-.931-.369,1.313,1.313,0,0,0-1.118.525,2.682,2.682,0,0,0-.4,1.595v.24a2.725,2.725,0,0,0,.39,1.613A1.313,1.313,0,0,0,845.756,927.989Z" transform="translate(-792.51 -919.491)" fill="#4d4d4d"/>
        <path id="Trazado_5043" data-name="Trazado 5043" d="M871.979,914.993a2.338,2.338,0,0,1,1.849-.848q2.126,0,2.156,2.427v4.344h-1.493v-4.288a1.314,1.314,0,0,0-.3-.974,1.221,1.221,0,0,0-.876-.286,1.439,1.439,0,0,0-1.34.8v4.75h-1.493v-9.437h1.493Z" transform="translate(-813.407 -911.35)" fill="#4d4d4d"/>
        <path id="Trazado_5044" data-name="Trazado 5044" d="M901.037,929.181a3.088,3.088,0,0,1-2.3-.894,3.242,3.242,0,0,1-.882-2.381v-.184a3.991,3.991,0,0,1,.384-1.779,2.921,2.921,0,0,1,1.078-1.22,2.851,2.851,0,0,1,1.548-.436,2.61,2.61,0,0,1,2.1.866,3.665,3.665,0,0,1,.74,2.452v.6h-4.344a2,2,0,0,0,.55,1.3,1.65,1.65,0,0,0,1.213.479,2.02,2.02,0,0,0,1.671-.83l.805.768a2.684,2.684,0,0,1-1.066.925A3.337,3.337,0,0,1,901.037,929.181Zm-.178-5.7a1.258,1.258,0,0,0-.992.43,2.229,2.229,0,0,0-.482,1.2h2.845V925a1.815,1.815,0,0,0-.4-1.133A1.248,1.248,0,0,0,900.858,923.485Z" transform="translate(-834.022 -919.491)" fill="#4d4d4d"/>
        <path id="Trazado_5045" data-name="Trazado 5045" d="M929.726,923.774a3.694,3.694,0,0,0-.608-.049,1.369,1.369,0,0,0-1.382.787v4.547h-1.493V922.41h1.426l.037.743a1.682,1.682,0,0,1,1.5-.866,1.4,1.4,0,0,1,.528.086Z" transform="translate(-855.406 -919.491)" fill="#4d4d4d"/>
        <path id="Trazado_5046" data-name="Trazado 5046" d="M942.155,925.672a3.916,3.916,0,0,1,.387-1.76,2.824,2.824,0,0,1,1.087-1.2,3.063,3.063,0,0,1,1.61-.421,2.905,2.905,0,0,1,2.185.866,3.41,3.41,0,0,1,.906,2.3l.006.35a3.954,3.954,0,0,1-.378,1.757,2.8,2.8,0,0,1-1.082,1.2,3.086,3.086,0,0,1-1.625.424,2.883,2.883,0,0,1-2.252-.937,3.589,3.589,0,0,1-.845-2.5Zm1.493.129a2.678,2.678,0,0,0,.424,1.607,1.378,1.378,0,0,0,1.18.581,1.363,1.363,0,0,0,1.177-.59,2.961,2.961,0,0,0,.421-1.727,2.646,2.646,0,0,0-.433-1.6,1.461,1.461,0,0,0-2.338-.009A2.9,2.9,0,0,0,943.648,925.8Z" transform="translate(-867.393 -919.491)" fill="#4d4d4d"/>
        <path id="Trazado_5047" data-name="Trazado 5047" d="M975.123,927.251a.679.679,0,0,0-.329-.609,3.53,3.53,0,0,0-1.09-.369,5.567,5.567,0,0,1-1.272-.405,1.7,1.7,0,0,1-1.118-1.567,1.77,1.77,0,0,1,.725-1.438,2.864,2.864,0,0,1,1.843-.577,2.983,2.983,0,0,1,1.927.59,1.872,1.872,0,0,1,.734,1.53h-1.493a.92.92,0,0,0-.319-.716,1.224,1.224,0,0,0-.848-.286,1.324,1.324,0,0,0-.8.227.717.717,0,0,0-.31.608.6.6,0,0,0,.289.534,3.951,3.951,0,0,0,1.167.384,5.521,5.521,0,0,1,1.379.461,1.954,1.954,0,0,1,.743.642,1.639,1.639,0,0,1,.243.909,1.732,1.732,0,0,1-.743,1.453,3.168,3.168,0,0,1-1.947.556,3.436,3.436,0,0,1-1.456-.3,2.394,2.394,0,0,1-1-.811,1.918,1.918,0,0,1-.356-1.112h1.45a1.051,1.051,0,0,0,.4.814,1.552,1.552,0,0,0,.977.286,1.506,1.506,0,0,0,.9-.225A.693.693,0,0,0,975.123,927.251Z" transform="translate(-889.19 -919.491)" fill="#4d4d4d"/>
        <path id="Trazado_5048" data-name="Trazado 5048" d="M999.774,943.354a.852.852,0,0,1,.645.237.822.822,0,0,1,.227.593.792.792,0,0,1-.227.581,1.007,1.007,0,0,1-1.278,0,.779.779,0,0,1-.233-.584.821.821,0,0,1,.227-.593A.845.845,0,0,1,999.774,943.354Z" transform="translate(-910.143 -935.36)" fill="#4d4d4d"/>
        <path id="Trazado_5049" data-name="Trazado 5049" d="M1014.018,943.354a.852.852,0,0,1,.645.237.82.82,0,0,1,.228.593.791.791,0,0,1-.228.581,1.007,1.007,0,0,1-1.278,0,.779.779,0,0,1-.233-.584.821.821,0,0,1,.227-.593A.845.845,0,0,1,1014.018,943.354Z" transform="translate(-920.872 -935.36)" fill="#4d4d4d"/>
        <path id="Trazado_5050" data-name="Trazado 5050" d="M1028.262,943.354a.852.852,0,0,1,.645.237.821.821,0,0,1,.228.593.791.791,0,0,1-.228.581,1.007,1.007,0,0,1-1.278,0,.779.779,0,0,1-.233-.584.821.821,0,0,1,.227-.593A.845.845,0,0,1,1028.262,943.354Z" transform="translate(-931.602 -935.36)" fill="#4d4d4d"/>
      </g>
      <g id="Grupo_6405" data-name="Grupo 6405" transform="translate(1085.991 3783.791)">
        <path id="Trazado_5051" data-name="Trazado 5051" d="M644.373,1007.423H640.7v2.753h4.295v1.241h-5.849v-8.946h5.806v1.253H640.7v2.47h3.674Z" transform="translate(-639.144 -1002.022)" fill="#4d4d4d"/>
        <path id="Trazado_5052" data-name="Trazado 5052" d="M668.029,1013.971l1.266-2.187h1.659l-2.034,3.275,2.1,3.373h-1.647l-1.327-2.273-1.321,2.273h-1.659l2.1-3.373-2.028-3.275h1.647Z" transform="translate(-658.671 -1009.037)" fill="#4d4d4d"/>
        <path id="Trazado_5053" data-name="Trazado 5053" d="M692.731,1005.234v1.616H693.9v1.106h-1.173v3.711a.818.818,0,0,0,.15.55.7.7,0,0,0,.538.169,2.3,2.3,0,0,0,.522-.061v1.155a3.687,3.687,0,0,1-.983.141q-1.721,0-1.72-1.9v-3.766h-1.094v-1.106h1.094v-1.616Z" transform="translate(-677.561 -1004.103)" fill="#4d4d4d"/>
        <path id="Trazado_5054" data-name="Trazado 5054" d="M713.475,1012.773a3.685,3.685,0,0,0-.608-.049,1.37,1.37,0,0,0-1.383.786v4.547h-1.493v-6.648h1.426l.037.743a1.682,1.682,0,0,1,1.5-.866,1.4,1.4,0,0,1,.528.086Z" transform="translate(-692.511 -1008.662)" fill="#4d4d4d"/>
        <path id="Trazado_5055" data-name="Trazado 5055" d="M730.511,1018.057a.969.969,0,1,0-1.917.123,2.344,2.344,0,0,1-1.634-.572,1.827,1.827,0,0,1-.633-1.413,1.888,1.888,0,0,1,.79-1.632,3.826,3.826,0,0,1,2.258-.568h.915v-.436a1.166,1.166,0,0,0-.289-.827,1.147,1.147,0,0,0-.879-.31,1.313,1.313,0,0,0-.835.255.788.788,0,0,0-.326.648h-1.493a1.656,1.656,0,0,1,.363-1.023,2.416,2.416,0,0,1,.986-.746,3.463,3.463,0,0,1,1.392-.27,2.791,2.791,0,0,1,1.862.587,2.092,2.092,0,0,1,.713,1.65v3a3.4,3.4,0,0,0,.252,1.432v.1Zm-1.64-1.075a1.7,1.7,0,0,0,.832-.215,1.438,1.438,0,0,0,.587-.578v-1.253h-.8a2.2,2.2,0,0,0-1.248.289.936.936,0,0,0-.418.817.873.873,0,0,0,.286.685A1.107,1.107,0,0,0,728.871,1016.982Z" transform="translate(-704.816 -1008.662)" fill="#4d4d4d"/>
        <path id="Trazado_5056" data-name="Trazado 5056" d="M756.927,1018.18a3.089,3.089,0,0,1-2.3-.894,3.243,3.243,0,0,1-.882-2.381v-.184a3.988,3.988,0,0,1,.384-1.779,2.921,2.921,0,0,1,1.078-1.219,2.851,2.851,0,0,1,1.548-.436,2.61,2.61,0,0,1,2.1.866,3.664,3.664,0,0,1,.74,2.452v.6H755.25a2,2,0,0,0,.55,1.3,1.651,1.651,0,0,0,1.214.479,2.022,2.022,0,0,0,1.671-.83l.8.768a2.687,2.687,0,0,1-1.066.925A3.34,3.34,0,0,1,756.927,1018.18Zm-.178-5.7a1.258,1.258,0,0,0-.992.43,2.231,2.231,0,0,0-.482,1.2h2.845V1014a1.815,1.815,0,0,0-.4-1.134A1.248,1.248,0,0,0,756.749,1012.484Z" transform="translate(-725.469 -1008.662)" fill="#4d4d4d"/>
        <path id="Trazado_5057" data-name="Trazado 5057" d="M785.617,1012.773a3.688,3.688,0,0,0-.608-.049,1.369,1.369,0,0,0-1.382.786v4.547h-1.493v-6.648h1.425l.037.743a1.683,1.683,0,0,1,1.5-.866,1.394,1.394,0,0,1,.528.086Z" transform="translate(-746.853 -1008.662)" fill="#4d4d4d"/>
        <path id="Trazado_5058" data-name="Trazado 5058" d="M816.1,1018.057a2.3,2.3,0,0,1-.172-.621,2.511,2.511,0,0,1-3.379.172,1.827,1.827,0,0,1-.633-1.413,1.888,1.888,0,0,1,.789-1.632,3.827,3.827,0,0,1,2.258-.568h.916v-.436a1.166,1.166,0,0,0-.289-.827,1.147,1.147,0,0,0-.879-.31,1.315,1.315,0,0,0-.836.255.788.788,0,0,0-.326.648h-1.493a1.658,1.658,0,0,1,.362-1.023,2.417,2.417,0,0,1,.986-.746,3.463,3.463,0,0,1,1.392-.27,2.791,2.791,0,0,1,1.862.587,2.093,2.093,0,0,1,.713,1.65v3a3.391,3.391,0,0,0,.252,1.432v.1Zm-1.641-1.075a1.7,1.7,0,0,0,.833-.215,1.439,1.439,0,0,0,.587-.578v-1.253h-.805a2.2,2.2,0,0,0-1.247.289.935.935,0,0,0-.418.817.873.873,0,0,0,.285.685A1.106,1.106,0,0,0,814.46,1016.982Z" transform="translate(-769.288 -1008.662)" fill="#4d4d4d"/>
        <path id="Trazado_5059" data-name="Trazado 5059" d="M839.234,1014.678a3.927,3.927,0,0,1,.713-2.476,2.316,2.316,0,0,1,1.929-.915,2.177,2.177,0,0,1,1.763.78l.086-.657h1.327v9.2H843.56v-3.121a2.229,2.229,0,0,1-1.7.688,2.3,2.3,0,0,1-1.911-.931A4.114,4.114,0,0,1,839.234,1014.678Zm1.493.129a2.774,2.774,0,0,0,.4,1.6,1.283,1.283,0,0,0,1.115.581,1.414,1.414,0,0,0,1.315-.756v-3.023a1.416,1.416,0,0,0-1.3-.725,1.3,1.3,0,0,0-1.121.571A3.027,3.027,0,0,0,840.727,1014.807Z" transform="translate(-789.865 -1008.662)" fill="#4d4d4d"/>
        <path id="Trazado_5060" data-name="Trazado 5060" d="M873.252,1017.781a2.316,2.316,0,0,1-1.868.774,2.064,2.064,0,0,1-1.638-.633,2.691,2.691,0,0,1-.556-1.831v-4.307h1.493v4.289q0,1.266,1.051,1.266a1.476,1.476,0,0,0,1.469-.78v-4.774H874.7v6.648h-1.407Z" transform="translate(-812.431 -1009.037)" fill="#4d4d4d"/>
        <path id="Trazado_5061" data-name="Trazado 5061" d="M899.621,1010.047h-1.493V1003.4h1.493Zm-.283-9.395h1.7l-1.7,1.862-1.2,0Z" transform="translate(-834.228 -1000.652)" fill="#4d4d4d"/>
      </g>
      <g id="Grupo_6406" data-name="Grupo 6406" transform="translate(1085.991 3808.686)">
        <path id="Trazado_5062" data-name="Trazado 5062" d="M644.373,1107.423H640.7v2.753h4.295v1.241h-5.849v-8.946h5.806v1.253H640.7v2.47h3.674Z" transform="translate(-639.144 -1102.243)" fill="#4d4d4d"/>
        <path id="Trazado_5063" data-name="Trazado 5063" d="M670.194,1116.251a.678.678,0,0,0-.329-.609,3.525,3.525,0,0,0-1.091-.369,5.577,5.577,0,0,1-1.272-.405,1.7,1.7,0,0,1-1.118-1.567,1.77,1.77,0,0,1,.725-1.438,2.865,2.865,0,0,1,1.843-.577,2.982,2.982,0,0,1,1.926.59,1.871,1.871,0,0,1,.734,1.529H670.12a.92.92,0,0,0-.319-.715,1.224,1.224,0,0,0-.848-.286,1.325,1.325,0,0,0-.8.227.717.717,0,0,0-.31.608.6.6,0,0,0,.289.534,3.952,3.952,0,0,0,1.167.384,5.508,5.508,0,0,1,1.379.461,1.954,1.954,0,0,1,.744.642,1.64,1.64,0,0,1,.243.91,1.733,1.733,0,0,1-.743,1.453,3.168,3.168,0,0,1-1.948.556,3.436,3.436,0,0,1-1.456-.3,2.391,2.391,0,0,1-1-.811,1.92,1.92,0,0,1-.356-1.112h1.45a1.052,1.052,0,0,0,.4.815,1.553,1.553,0,0,0,.977.286,1.506,1.506,0,0,0,.9-.225A.693.693,0,0,0,670.194,1116.251Z" transform="translate(-659.497 -1108.884)" fill="#4d4d4d"/>
        <path id="Trazado_5064" data-name="Trazado 5064" d="M695.595,1116.989a1.349,1.349,0,0,0,.928-.326,1.113,1.113,0,0,0,.393-.8h1.407a2.194,2.194,0,0,1-.387,1.158,2.542,2.542,0,0,1-.983.851,2.933,2.933,0,0,1-1.339.313,2.835,2.835,0,0,1-2.212-.9,3.583,3.583,0,0,1-.817-2.495v-.153a3.523,3.523,0,0,1,.811-2.43,2.81,2.81,0,0,1,2.212-.912,2.732,2.732,0,0,1,1.932.691,2.475,2.475,0,0,1,.783,1.816h-1.407a1.368,1.368,0,0,0-.39-.94,1.257,1.257,0,0,0-.931-.369,1.314,1.314,0,0,0-1.118.525,2.679,2.679,0,0,0-.4,1.595v.24a2.723,2.723,0,0,0,.39,1.613A1.313,1.313,0,0,0,695.595,1116.989Z" transform="translate(-679.399 -1108.884)" fill="#4d4d4d"/>
        <path id="Trazado_5065" data-name="Trazado 5065" d="M723.738,1118.058a.969.969,0,1,0-1.917.123,2.344,2.344,0,0,1-1.634-.572,1.826,1.826,0,0,1-.633-1.413,1.888,1.888,0,0,1,.79-1.631A3.826,3.826,0,0,1,722.6,1114h.915v-.436a1.165,1.165,0,0,0-.289-.827,1.147,1.147,0,0,0-.879-.31,1.315,1.315,0,0,0-.836.255.788.788,0,0,0-.325.648H719.7a1.655,1.655,0,0,1,.363-1.023,2.412,2.412,0,0,1,.986-.746,3.458,3.458,0,0,1,1.391-.27,2.792,2.792,0,0,1,1.862.586,2.093,2.093,0,0,1,.713,1.65v3a3.4,3.4,0,0,0,.252,1.431v.1Zm-1.641-1.075a1.7,1.7,0,0,0,.833-.215,1.436,1.436,0,0,0,.587-.578v-1.253h-.8a2.2,2.2,0,0,0-1.247.289.936.936,0,0,0-.418.817.873.873,0,0,0,.286.685A1.107,1.107,0,0,0,722.1,1116.982Z" transform="translate(-699.714 -1108.884)" fill="#4d4d4d"/>
        <path id="Trazado_5066" data-name="Trazado 5066" d="M749.324,1111.41l.043.767a2.391,2.391,0,0,1,1.936-.89q2.077,0,2.114,2.378v4.393h-1.493v-4.307a1.37,1.37,0,0,0-.273-.937,1.149,1.149,0,0,0-.894-.3,1.438,1.438,0,0,0-1.345.817v4.731h-1.493v-6.648Z" transform="translate(-721.079 -1108.884)" fill="#4d4d4d"/>
        <path id="Trazado_5067" data-name="Trazado 5067" d="M778.518,1118.181a3.088,3.088,0,0,1-2.3-.894,3.242,3.242,0,0,1-.882-2.381v-.184a3.991,3.991,0,0,1,.384-1.779,2.922,2.922,0,0,1,1.078-1.22,2.852,2.852,0,0,1,1.548-.436,2.61,2.61,0,0,1,2.1.866,3.666,3.666,0,0,1,.74,2.452v.6H776.84a2,2,0,0,0,.55,1.3,1.651,1.651,0,0,0,1.214.479,2.021,2.021,0,0,0,1.671-.83l.8.768a2.684,2.684,0,0,1-1.066.925A3.339,3.339,0,0,1,778.518,1118.181Zm-.178-5.7a1.259,1.259,0,0,0-.992.43,2.231,2.231,0,0,0-.482,1.2h2.845V1114a1.814,1.814,0,0,0-.4-1.133A1.248,1.248,0,0,0,778.339,1112.485Z" transform="translate(-741.732 -1108.884)" fill="#4d4d4d"/>
        <path id="Trazado_5068" data-name="Trazado 5068" d="M807.061,1118.058a2.293,2.293,0,0,1-.172-.621,2.511,2.511,0,0,1-3.38.172,1.827,1.827,0,0,1-.633-1.413,1.888,1.888,0,0,1,.79-1.631,3.826,3.826,0,0,1,2.258-.568h.915v-.436a1.166,1.166,0,0,0-.288-.827,1.147,1.147,0,0,0-.879-.31,1.314,1.314,0,0,0-.836.255.788.788,0,0,0-.325.648h-1.493a1.655,1.655,0,0,1,.363-1.023,2.412,2.412,0,0,1,.986-.746,3.459,3.459,0,0,1,1.392-.27,2.793,2.793,0,0,1,1.862.586,2.093,2.093,0,0,1,.713,1.65v3a3.394,3.394,0,0,0,.252,1.431v.1Zm-1.64-1.075a1.7,1.7,0,0,0,.832-.215,1.437,1.437,0,0,0,.587-.578v-1.253h-.8a2.2,2.2,0,0,0-1.247.289.936.936,0,0,0-.418.817.873.873,0,0,0,.286.685A1.107,1.107,0,0,0,805.421,1116.982Z" transform="translate(-762.479 -1108.884)" fill="#4d4d4d"/>
        <path id="Trazado_5069" data-name="Trazado 5069" d="M834.8,1112.774a3.688,3.688,0,0,0-.608-.049,1.37,1.37,0,0,0-1.383.787v4.547h-1.493v-6.648h1.426l.037.743a1.683,1.683,0,0,1,1.5-.866,1.4,1.4,0,0,1,.529.086Z" transform="translate(-783.9 -1108.884)" fill="#4d4d4d"/>
        <path id="Trazado_5070" data-name="Trazado 5070" d="M862.379,1116.541l1.407-4.755h1.542l-2.3,6.648h-1.3l-2.322-6.648h1.548Z" transform="translate(-805.06 -1109.259)" fill="#4d4d4d"/>
        <path id="Trazado_5071" data-name="Trazado 5071" d="M887.2,1102.348a.792.792,0,0,1,.218-.571.824.824,0,0,1,.624-.227.834.834,0,0,1,.627.227.786.786,0,0,1,.221.571.768.768,0,0,1-.221.562.84.84,0,0,1-.627.224.83.83,0,0,1-.624-.224A.774.774,0,0,1,887.2,1102.348Zm1.585,8.375h-1.493v-6.648h1.493Z" transform="translate(-825.994 -1101.549)" fill="#4d4d4d"/>
        <path id="Trazado_5072" data-name="Trazado 5072" d="M903.679,1112.774a3.683,3.683,0,0,0-.608-.049,1.37,1.37,0,0,0-1.383.787v4.547H900.2v-6.648h1.426l.037.743a1.682,1.682,0,0,1,1.5-.866,1.4,1.4,0,0,1,.529.086Z" transform="translate(-835.785 -1108.884)" fill="#4d4d4d"/>
        <path id="Trazado_5073" data-name="Trazado 5073" d="M922.061,1117.782a2.315,2.315,0,0,1-1.868.774,2.062,2.062,0,0,1-1.638-.633,2.691,2.691,0,0,1-.556-1.831v-4.307h1.493v4.288q0,1.266,1.051,1.266a1.476,1.476,0,0,0,1.469-.781v-4.774h1.493v6.648H922.1Z" transform="translate(-849.197 -1109.259)" fill="#4d4d4d"/>
        <path id="Trazado_5074" data-name="Trazado 5074" d="M949.274,1116.251a.678.678,0,0,0-.329-.609,3.53,3.53,0,0,0-1.091-.369,5.579,5.579,0,0,1-1.272-.405,1.7,1.7,0,0,1-1.118-1.567,1.77,1.77,0,0,1,.725-1.438,2.866,2.866,0,0,1,1.843-.577,2.982,2.982,0,0,1,1.926.59,1.871,1.871,0,0,1,.734,1.529H949.2a.919.919,0,0,0-.319-.715,1.224,1.224,0,0,0-.848-.286,1.325,1.325,0,0,0-.8.227.717.717,0,0,0-.31.608.6.6,0,0,0,.289.534,3.955,3.955,0,0,0,1.167.384,5.514,5.514,0,0,1,1.38.461,1.956,1.956,0,0,1,.744.642,1.64,1.64,0,0,1,.242.91,1.732,1.732,0,0,1-.743,1.453,3.168,3.168,0,0,1-1.948.556,3.437,3.437,0,0,1-1.456-.3,2.392,2.392,0,0,1-1-.811,1.919,1.919,0,0,1-.357-1.112h1.45a1.052,1.052,0,0,0,.4.815,1.552,1.552,0,0,0,.977.286,1.505,1.505,0,0,0,.9-.225A.693.693,0,0,0,949.274,1116.251Z" transform="translate(-869.719 -1108.884)" fill="#4d4d4d"/>
        <path id="Trazado_5075" data-name="Trazado 5075" d="M973.926,1132.354a.854.854,0,0,1,.645.237.822.822,0,0,1,.227.593.793.793,0,0,1-.227.581,1.007,1.007,0,0,1-1.278,0,.778.778,0,0,1-.233-.584.821.821,0,0,1,.227-.593A.845.845,0,0,1,973.926,1132.354Z" transform="translate(-890.672 -1124.753)" fill="#4d4d4d"/>
        <path id="Trazado_5076" data-name="Trazado 5076" d="M988.17,1132.354a.854.854,0,0,1,.645.237.822.822,0,0,1,.227.593.793.793,0,0,1-.227.581,1.007,1.007,0,0,1-1.278,0,.778.778,0,0,1-.233-.584.82.82,0,0,1,.227-.593A.844.844,0,0,1,988.17,1132.354Z" transform="translate(-901.402 -1124.753)" fill="#4d4d4d"/>
        <path id="Trazado_5077" data-name="Trazado 5077" d="M1002.414,1132.354a.853.853,0,0,1,.645.237.823.823,0,0,1,.227.593.793.793,0,0,1-.227.581,1.007,1.007,0,0,1-1.278,0,.779.779,0,0,1-.233-.584.82.82,0,0,1,.227-.593A.845.845,0,0,1,1002.414,1132.354Z" transform="translate(-912.131 -1124.753)" fill="#4d4d4d"/>
      </g>
      <g id="Grupo_6407" data-name="Grupo 6407" transform="translate(1085.192 3834.574)">
        <path id="Trazado_5078" data-name="Trazado 5078" d="M641.712,1215.334h-3.465l-.725,2.083h-1.616l3.379-8.946h1.395l3.385,8.946h-1.622Zm-3.029-1.253h2.593l-1.3-3.711Z" transform="translate(-635.906 -1207.979)" fill="#4d4d4d"/>
        <path id="Trazado_5079" data-name="Trazado 5079" d="M678.325,1212.66a3.993,3.993,0,0,1-.691,2.464,2.251,2.251,0,0,1-1.9.916,2.167,2.167,0,0,1-1.819-.842l-.074.719h-1.352v-9.437h1.493v3.428a2.161,2.161,0,0,1,1.739-.762,2.277,2.277,0,0,1,1.911.9,4.06,4.06,0,0,1,.695,2.525Zm-1.493-.129a2.823,2.823,0,0,0-.381-1.622,1.269,1.269,0,0,0-1.106-.541,1.386,1.386,0,0,0-1.364.848v2.74a1.4,1.4,0,0,0,1.376.866,1.259,1.259,0,0,0,1.081-.522,2.736,2.736,0,0,0,.393-1.579Z" transform="translate(-663.462 -1206.479)" fill="#4d4d4d"/>
        <path id="Trazado_5080" data-name="Trazado 5080" d="M704.684,1218.773a3.7,3.7,0,0,0-.608-.049,1.369,1.369,0,0,0-1.382.787v4.547H701.2v-6.648h1.426l.037.743a1.683,1.683,0,0,1,1.5-.866,1.394,1.394,0,0,1,.529.086Z" transform="translate(-685.09 -1214.62)" fill="#4d4d4d"/>
        <path id="Trazado_5081" data-name="Trazado 5081" d="M719.155,1208.348a.792.792,0,0,1,.218-.572.823.823,0,0,1,.623-.227.834.834,0,0,1,.627.227.786.786,0,0,1,.221.572.767.767,0,0,1-.221.562.84.84,0,0,1-.627.224.829.829,0,0,1-.623-.224A.773.773,0,0,1,719.155,1208.348Zm1.585,8.375h-1.493v-6.648h1.493Z" transform="translate(-698.615 -1207.285)" fill="#4d4d4d"/>
        <path id="Trazado_5082" data-name="Trazado 5082" d="M735.638,1218.773a3.7,3.7,0,0,0-.608-.049,1.37,1.37,0,0,0-1.383.787v4.547h-1.493v-6.648h1.426l.037.743a1.682,1.682,0,0,1,1.5-.866,1.394,1.394,0,0,1,.529.086Z" transform="translate(-708.406 -1214.62)" fill="#4d4d4d"/>
        <path id="Trazado_5083" data-name="Trazado 5083" d="M764.674,1222.988a1.35,1.35,0,0,0,.928-.326,1.114,1.114,0,0,0,.393-.805H767.4a2.195,2.195,0,0,1-.387,1.158,2.544,2.544,0,0,1-.983.851,2.933,2.933,0,0,1-1.34.313,2.834,2.834,0,0,1-2.212-.9,3.583,3.583,0,0,1-.817-2.495v-.154a3.523,3.523,0,0,1,.811-2.43,2.809,2.809,0,0,1,2.212-.912,2.731,2.731,0,0,1,1.932.691,2.475,2.475,0,0,1,.783,1.815h-1.407a1.368,1.368,0,0,0-.39-.94,1.256,1.256,0,0,0-.931-.369,1.314,1.314,0,0,0-1.118.525,2.679,2.679,0,0,0-.4,1.594v.24a2.723,2.723,0,0,0,.39,1.613A1.312,1.312,0,0,0,764.674,1222.988Z" transform="translate(-730.635 -1214.62)" fill="#4d4d4d"/>
        <path id="Trazado_5084" data-name="Trazado 5084" d="M788.358,1220.672a3.921,3.921,0,0,1,.387-1.76,2.827,2.827,0,0,1,1.087-1.2,3.063,3.063,0,0,1,1.61-.421,2.906,2.906,0,0,1,2.185.866,3.41,3.41,0,0,1,.906,2.3l.006.35a3.953,3.953,0,0,1-.378,1.757,2.793,2.793,0,0,1-1.081,1.2,3.086,3.086,0,0,1-1.625.424,2.883,2.883,0,0,1-2.252-.937,3.589,3.589,0,0,1-.845-2.5Zm1.493.129a2.677,2.677,0,0,0,.424,1.607,1.378,1.378,0,0,0,1.18.581,1.364,1.364,0,0,0,1.177-.59,2.961,2.961,0,0,0,.421-1.726,2.645,2.645,0,0,0-.433-1.6,1.461,1.461,0,0,0-2.338-.009A2.9,2.9,0,0,0,789.851,1220.8Z" transform="translate(-750.743 -1214.62)" fill="#4d4d4d"/>
        <path id="Trazado_5085" data-name="Trazado 5085" d="M819.847,1217.409l.043.768a2.392,2.392,0,0,1,1.936-.891q2.077,0,2.114,2.378v4.393h-1.493v-4.307a1.368,1.368,0,0,0-.273-.937,1.149,1.149,0,0,0-.894-.3,1.439,1.439,0,0,0-1.345.817v4.731H818.44v-6.648Z" transform="translate(-773.403 -1214.62)" fill="#4d4d4d"/>
      </g>
      <g id="Grupo_6408" data-name="Grupo 6408" transform="translate(1085.708 3858.672)">
        <path id="Trazado_5086" data-name="Trazado 5086" d="M645.107,1310.725a3.229,3.229,0,0,1-1.057,2.233,3.6,3.6,0,0,1-2.451.8,3.487,3.487,0,0,1-1.883-.507,3.328,3.328,0,0,1-1.257-1.441,5.2,5.2,0,0,1-.461-2.169v-.836a5.237,5.237,0,0,1,.449-2.23,3.379,3.379,0,0,1,1.287-1.487,3.589,3.589,0,0,1,1.939-.523,3.457,3.457,0,0,1,2.384.8,3.352,3.352,0,0,1,1.051,2.27h-1.548a2.209,2.209,0,0,0-.562-1.392,1.859,1.859,0,0,0-1.324-.427,1.815,1.815,0,0,0-1.558.741,3.7,3.7,0,0,0-.556,2.174v.793a3.926,3.926,0,0,0,.519,2.214,1.722,1.722,0,0,0,1.521.763,2.009,2.009,0,0,0,1.376-.412,2.148,2.148,0,0,0,.584-1.37Z" transform="translate(-637.998 -1304.465)" fill="#4d4d4d"/>
        <path id="Trazado_5087" data-name="Trazado 5087" d="M670.72,1317.268a3.915,3.915,0,0,1,.387-1.76,2.826,2.826,0,0,1,1.087-1.2,3.065,3.065,0,0,1,1.61-.421,2.905,2.905,0,0,1,2.184.866,3.408,3.408,0,0,1,.906,2.3l.006.35a3.953,3.953,0,0,1-.378,1.757,2.789,2.789,0,0,1-1.081,1.2,3.082,3.082,0,0,1-1.625.424,2.882,2.882,0,0,1-2.252-.937,3.586,3.586,0,0,1-.845-2.5Zm1.493.129a2.68,2.68,0,0,0,.424,1.607,1.378,1.378,0,0,0,1.18.581,1.363,1.363,0,0,0,1.177-.59,2.96,2.96,0,0,0,.421-1.727,2.645,2.645,0,0,0-.433-1.6,1.384,1.384,0,0,0-1.177-.59,1.37,1.37,0,0,0-1.161.581A2.9,2.9,0,0,0,672.213,1317.4Z" transform="translate(-662.646 -1311.481)" fill="#4d4d4d"/>
        <path id="Trazado_5088" data-name="Trazado 5088" d="M702.284,1314.006l.043.694a2.392,2.392,0,0,1,1.917-.817,1.838,1.838,0,0,1,1.825,1.02,2.358,2.358,0,0,1,2.04-1.02,2.071,2.071,0,0,1,1.637.608,2.678,2.678,0,0,1,.55,1.794v4.368H708.8v-4.325a1.322,1.322,0,0,0-.276-.928,1.21,1.21,0,0,0-.915-.295,1.244,1.244,0,0,0-.833.273,1.444,1.444,0,0,0-.452.716l.006,4.559H704.84v-4.375a1.065,1.065,0,0,0-1.2-1.173,1.313,1.313,0,0,0-1.272.731v4.817h-1.493v-6.648Z" transform="translate(-685.363 -1311.481)" fill="#4d4d4d"/>
        <path id="Trazado_5089" data-name="Trazado 5089" d="M751.077,1317.4a3.958,3.958,0,0,1-.7,2.461,2.433,2.433,0,0,1-3.631.2v3.152h-1.493v-9.2h1.376l.062.676a2.192,2.192,0,0,1,1.788-.8,2.267,2.267,0,0,1,1.908.906,4.065,4.065,0,0,1,.691,2.516Zm-1.487-.129a2.771,2.771,0,0,0-.4-1.579,1.288,1.288,0,0,0-1.133-.583,1.373,1.373,0,0,0-1.315.755v2.949a1.386,1.386,0,0,0,1.327.774,1.287,1.287,0,0,0,1.115-.574A3.055,3.055,0,0,0,749.59,1317.268Z" transform="translate(-718.789 -1311.481)" fill="#4d4d4d"/>
        <path id="Trazado_5090" data-name="Trazado 5090" d="M777.3,1320.654a.969.969,0,1,0-1.917.123,2.343,2.343,0,0,1-1.634-.572,1.826,1.826,0,0,1-.633-1.413,1.888,1.888,0,0,1,.79-1.631,3.827,3.827,0,0,1,2.258-.568h.915v-.436a1.165,1.165,0,0,0-.289-.827,1.145,1.145,0,0,0-.879-.31,1.315,1.315,0,0,0-.835.255.789.789,0,0,0-.326.648h-1.493a1.656,1.656,0,0,1,.363-1.023,2.414,2.414,0,0,1,.986-.746,3.46,3.46,0,0,1,1.391-.27,2.791,2.791,0,0,1,1.862.587,2.092,2.092,0,0,1,.713,1.65v3a3.4,3.4,0,0,0,.252,1.431v.1Zm-1.64-1.075a1.7,1.7,0,0,0,.832-.215,1.439,1.439,0,0,0,.587-.578v-1.253h-.8a2.2,2.2,0,0,0-1.247.289.935.935,0,0,0-.418.817.873.873,0,0,0,.286.685A1.107,1.107,0,0,0,775.662,1319.579Z" transform="translate(-739.78 -1311.481)" fill="#4d4d4d"/>
        <path id="Trazado_5091" data-name="Trazado 5091" d="M805.041,1315.37a3.686,3.686,0,0,0-.608-.049,1.37,1.37,0,0,0-1.383.786v4.547h-1.493v-6.648h1.425l.037.743a1.682,1.682,0,0,1,1.5-.866,1.4,1.4,0,0,1,.528.086Z" transform="translate(-761.202 -1311.481)" fill="#4d4d4d"/>
        <path id="Trazado_5092" data-name="Trazado 5092" d="M820.429,1307.831v1.616H821.6v1.106h-1.174v3.711a.815.815,0,0,0,.151.55.7.7,0,0,0,.537.169,2.3,2.3,0,0,0,.522-.061v1.155a3.689,3.689,0,0,1-.983.141q-1.72,0-1.72-1.9v-3.766h-1.094v-1.106h1.094v-1.616Z" transform="translate(-773.47 -1306.922)" fill="#4d4d4d"/>
        <path id="Trazado_5093" data-name="Trazado 5093" d="M837.715,1304.945a.793.793,0,0,1,.218-.572.824.824,0,0,1,.624-.227.834.834,0,0,1,.626.227.787.787,0,0,1,.221.572.768.768,0,0,1-.221.562.84.84,0,0,1-.626.224.829.829,0,0,1-.624-.224A.773.773,0,0,1,837.715,1304.945Zm1.585,8.374h-1.493v-6.648H839.3Z" transform="translate(-788.438 -1304.146)" fill="#4d4d4d"/>
        <path id="Trazado_5094" data-name="Trazado 5094" d="M854.2,1315.37a3.69,3.69,0,0,0-.609-.049,1.369,1.369,0,0,0-1.382.786v4.547h-1.493v-6.648h1.425l.037.743a1.682,1.682,0,0,1,1.5-.866,1.4,1.4,0,0,1,.528.086Z" transform="translate(-798.23 -1311.481)" fill="#4d4d4d"/>
        <path id="Trazado_5095" data-name="Trazado 5095" d="M883.234,1319.585a1.35,1.35,0,0,0,.928-.325,1.112,1.112,0,0,0,.393-.805h1.407a2.191,2.191,0,0,1-.387,1.158,2.54,2.54,0,0,1-.983.851,2.934,2.934,0,0,1-1.34.313,2.834,2.834,0,0,1-2.212-.9,3.582,3.582,0,0,1-.817-2.495v-.153a3.522,3.522,0,0,1,.811-2.43,2.808,2.808,0,0,1,2.212-.912,2.731,2.731,0,0,1,1.932.691,2.475,2.475,0,0,1,.783,1.815h-1.407a1.366,1.366,0,0,0-.39-.94,1.255,1.255,0,0,0-.931-.369,1.314,1.314,0,0,0-1.118.525,2.68,2.68,0,0,0-.4,1.594v.24a2.724,2.724,0,0,0,.39,1.613A1.314,1.314,0,0,0,883.234,1319.585Z" transform="translate(-820.458 -1311.481)" fill="#4d4d4d"/>
        <path id="Trazado_5096" data-name="Trazado 5096" d="M906.918,1317.268a3.918,3.918,0,0,1,.387-1.76,2.825,2.825,0,0,1,1.088-1.2,3.065,3.065,0,0,1,1.61-.421,2.9,2.9,0,0,1,2.184.866,3.409,3.409,0,0,1,.906,2.3l.006.35a3.953,3.953,0,0,1-.378,1.757,2.787,2.787,0,0,1-1.081,1.2,3.084,3.084,0,0,1-1.625.424,2.882,2.882,0,0,1-2.252-.937,3.587,3.587,0,0,1-.845-2.5Zm1.493.129a2.68,2.68,0,0,0,.424,1.607,1.378,1.378,0,0,0,1.18.581,1.363,1.363,0,0,0,1.177-.59,2.959,2.959,0,0,0,.421-1.727,2.646,2.646,0,0,0-.433-1.6,1.46,1.46,0,0,0-2.338-.009A2.9,2.9,0,0,0,908.411,1317.4Z" transform="translate(-840.567 -1311.481)" fill="#4d4d4d"/>
        <path id="Trazado_5097" data-name="Trazado 5097" d="M938.407,1314.006l.043.768a2.391,2.391,0,0,1,1.936-.891q2.077,0,2.114,2.378v4.393h-1.493v-4.307a1.37,1.37,0,0,0-.273-.937,1.15,1.15,0,0,0-.894-.3,1.438,1.438,0,0,0-1.346.817v4.731H937v-6.648Z" transform="translate(-863.227 -1311.481)" fill="#4d4d4d"/>
      </g>
      <g id="Grupo_6409" data-name="Grupo 6409" transform="translate(1085.991 3878.658)">
        <path id="Trazado_5098" data-name="Trazado 5098" d="M642.431,1391.571H640.7v3.441h-1.554v-8.946h3.146a3.659,3.659,0,0,1,2.39.7,2.459,2.459,0,0,1,.842,2.011,2.518,2.518,0,0,1-.433,1.5,2.753,2.753,0,0,1-1.207.931l2.009,3.726v.079h-1.665Zm-1.733-1.253h1.6a1.776,1.776,0,0,0,1.229-.4,1.381,1.381,0,0,0,.442-1.085,1.47,1.47,0,0,0-.408-1.112,1.737,1.737,0,0,0-1.22-.406H640.7Z" transform="translate(-639.144 -1385.839)" fill="#4d4d4d"/>
        <path id="Trazado_5099" data-name="Trazado 5099" d="M672.533,1401.776a3.088,3.088,0,0,1-2.3-.894,3.242,3.242,0,0,1-.882-2.381v-.184a3.991,3.991,0,0,1,.384-1.779,2.924,2.924,0,0,1,1.078-1.22,2.854,2.854,0,0,1,1.549-.436,2.61,2.61,0,0,1,2.1.866,3.665,3.665,0,0,1,.74,2.452v.6h-4.344a2,2,0,0,0,.55,1.3,1.65,1.65,0,0,0,1.213.479,2.021,2.021,0,0,0,1.671-.83l.805.768a2.681,2.681,0,0,1-1.066.925A3.334,3.334,0,0,1,672.533,1401.776Zm-.178-5.7a1.258,1.258,0,0,0-.992.43,2.231,2.231,0,0,0-.482,1.2h2.845v-.111a1.813,1.813,0,0,0-.4-1.133A1.248,1.248,0,0,0,672.354,1396.081Z" transform="translate(-661.897 -1392.48)" fill="#4d4d4d"/>
        <path id="Trazado_5100" data-name="Trazado 5100" d="M700.549,1399.848a.678.678,0,0,0-.329-.609,3.526,3.526,0,0,0-1.09-.369,5.592,5.592,0,0,1-1.272-.405,1.7,1.7,0,0,1-1.118-1.567,1.77,1.77,0,0,1,.725-1.438,2.865,2.865,0,0,1,1.843-.577,2.984,2.984,0,0,1,1.926.589,1.872,1.872,0,0,1,.734,1.53h-1.493a.922.922,0,0,0-.32-.716,1.226,1.226,0,0,0-.848-.286,1.325,1.325,0,0,0-.8.228.717.717,0,0,0-.31.608.605.605,0,0,0,.289.534,3.959,3.959,0,0,0,1.168.384,5.531,5.531,0,0,1,1.379.461,1.952,1.952,0,0,1,.743.642,1.636,1.636,0,0,1,.243.91,1.732,1.732,0,0,1-.744,1.453,3.168,3.168,0,0,1-1.948.556,3.437,3.437,0,0,1-1.456-.295,2.4,2.4,0,0,1-1-.811,1.92,1.92,0,0,1-.356-1.112h1.45a1.052,1.052,0,0,0,.4.815,1.554,1.554,0,0,0,.977.286,1.508,1.508,0,0,0,.9-.224A.694.694,0,0,0,700.549,1399.848Z" transform="translate(-682.363 -1392.48)" fill="#4d4d4d"/>
        <path id="Trazado_5101" data-name="Trazado 5101" d="M723.759,1388.83v1.616h1.173v1.106h-1.173v3.711a.818.818,0,0,0,.15.55.7.7,0,0,0,.538.168,2.3,2.3,0,0,0,.522-.061v1.155a3.688,3.688,0,0,1-.983.141q-1.72,0-1.72-1.9v-3.766h-1.094v-1.106h1.094v-1.616Z" transform="translate(-700.933 -1387.921)" fill="#4d4d4d"/>
        <path id="Trazado_5102" data-name="Trazado 5102" d="M744.356,1401.654a2.289,2.289,0,0,1-.172-.62,2.512,2.512,0,0,1-3.379.172,1.827,1.827,0,0,1-.633-1.413,1.887,1.887,0,0,1,.79-1.631,3.826,3.826,0,0,1,2.258-.569h.916v-.436a1.165,1.165,0,0,0-.289-.827,1.145,1.145,0,0,0-.879-.31,1.315,1.315,0,0,0-.836.255.789.789,0,0,0-.326.648h-1.493a1.655,1.655,0,0,1,.363-1.023,2.408,2.408,0,0,1,.986-.746,3.46,3.46,0,0,1,1.392-.27,2.79,2.79,0,0,1,1.861.586,2.091,2.091,0,0,1,.713,1.65v3a3.39,3.39,0,0,0,.252,1.431v.1Zm-1.641-1.075a1.7,1.7,0,0,0,.832-.215,1.438,1.438,0,0,0,.587-.578v-1.253h-.8a2.2,2.2,0,0,0-1.247.289.935.935,0,0,0-.418.817.873.873,0,0,0,.285.685A1.107,1.107,0,0,0,742.716,1400.578Z" transform="translate(-715.245 -1392.48)" fill="#4d4d4d"/>
        <path id="Trazado_5103" data-name="Trazado 5103" d="M772.547,1401.378a2.317,2.317,0,0,1-1.868.774,2.063,2.063,0,0,1-1.638-.633,2.692,2.692,0,0,1-.556-1.831v-4.307h1.493v4.288q0,1.266,1.051,1.266a1.476,1.476,0,0,0,1.469-.781v-4.774h1.493v6.648h-1.407Z" transform="translate(-736.573 -1392.855)" fill="#4d4d4d"/>
        <path id="Trazado_5104" data-name="Trazado 5104" d="M800.433,1396.37a3.674,3.674,0,0,0-.608-.049,1.369,1.369,0,0,0-1.382.786v4.547h-1.493v-6.648h1.426l.037.743a1.682,1.682,0,0,1,1.5-.866,1.4,1.4,0,0,1,.528.086Z" transform="translate(-758.013 -1392.48)" fill="#4d4d4d"/>
        <path id="Trazado_5105" data-name="Trazado 5105" d="M817.469,1401.654a2.3,2.3,0,0,1-.172-.62,2.512,2.512,0,0,1-3.379.172,1.827,1.827,0,0,1-.633-1.413,1.887,1.887,0,0,1,.79-1.631,3.827,3.827,0,0,1,2.258-.569h.916v-.436a1.167,1.167,0,0,0-.289-.827,1.146,1.146,0,0,0-.879-.31,1.315,1.315,0,0,0-.836.255.79.79,0,0,0-.325.648h-1.493a1.656,1.656,0,0,1,.363-1.023,2.411,2.411,0,0,1,.986-.746,3.461,3.461,0,0,1,1.392-.27,2.791,2.791,0,0,1,1.862.586,2.09,2.09,0,0,1,.713,1.65v3a3.389,3.389,0,0,0,.252,1.431v.1Zm-1.64-1.075a1.7,1.7,0,0,0,.832-.215,1.441,1.441,0,0,0,.587-.578v-1.253h-.8a2.2,2.2,0,0,0-1.247.289.935.935,0,0,0-.418.817.874.874,0,0,0,.285.685A1.108,1.108,0,0,0,815.829,1400.578Z" transform="translate(-770.319 -1392.48)" fill="#4d4d4d"/>
        <path id="Trazado_5106" data-name="Trazado 5106" d="M845.209,1396.37a3.675,3.675,0,0,0-.608-.049,1.37,1.37,0,0,0-1.383.786v4.547h-1.493v-6.648h1.425l.036.743a1.682,1.682,0,0,1,1.5-.866,1.4,1.4,0,0,1,.529.086Z" transform="translate(-791.742 -1392.48)" fill="#4d4d4d"/>
        <path id="Trazado_5107" data-name="Trazado 5107" d="M872.788,1400.136l1.407-4.755h1.542l-2.3,6.648h-1.3l-2.323-6.648h1.549Z" transform="translate(-812.9 -1392.855)" fill="#4d4d4d"/>
        <path id="Trazado_5108" data-name="Trazado 5108" d="M899.742,1401.776a3.088,3.088,0,0,1-2.3-.894,3.242,3.242,0,0,1-.882-2.381v-.184a3.991,3.991,0,0,1,.384-1.779,2.924,2.924,0,0,1,1.078-1.22,2.854,2.854,0,0,1,1.549-.436,2.61,2.61,0,0,1,2.1.866,3.664,3.664,0,0,1,.74,2.452v.6h-4.344a2,2,0,0,0,.55,1.3,1.65,1.65,0,0,0,1.213.479,2.021,2.021,0,0,0,1.671-.83l.805.768a2.68,2.68,0,0,1-1.066.925A3.334,3.334,0,0,1,899.742,1401.776Zm-.178-5.7a1.258,1.258,0,0,0-.992.43,2.231,2.231,0,0,0-.482,1.2h2.845v-.111a1.814,1.814,0,0,0-.4-1.133A1.248,1.248,0,0,0,899.563,1396.081Z" transform="translate(-833.047 -1392.48)" fill="#4d4d4d"/>
        <path id="Trazado_5109" data-name="Trazado 5109" d="M928.431,1396.37a3.67,3.67,0,0,0-.608-.049,1.369,1.369,0,0,0-1.382.786v4.547h-1.493v-6.648h1.426l.037.743a1.682,1.682,0,0,1,1.5-.866,1.4,1.4,0,0,1,.528.086Z" transform="translate(-854.43 -1392.48)" fill="#4d4d4d"/>
        <path id="Trazado_5110" data-name="Trazado 5110" d="M945.688,1399.848a.678.678,0,0,0-.329-.609,3.527,3.527,0,0,0-1.091-.369,5.594,5.594,0,0,1-1.272-.405,1.7,1.7,0,0,1-1.118-1.567,1.77,1.77,0,0,1,.725-1.438,2.865,2.865,0,0,1,1.843-.577,2.984,2.984,0,0,1,1.926.589,1.872,1.872,0,0,1,.734,1.53h-1.493a.921.921,0,0,0-.32-.716,1.225,1.225,0,0,0-.848-.286,1.325,1.325,0,0,0-.8.228.717.717,0,0,0-.31.608.605.605,0,0,0,.289.534,3.955,3.955,0,0,0,1.167.384,5.527,5.527,0,0,1,1.379.461,1.95,1.95,0,0,1,.744.642,1.638,1.638,0,0,1,.243.91,1.732,1.732,0,0,1-.743,1.453,3.168,3.168,0,0,1-1.948.556,3.436,3.436,0,0,1-1.456-.295,2.393,2.393,0,0,1-1-.811,1.92,1.92,0,0,1-.357-1.112h1.45a1.052,1.052,0,0,0,.4.815,1.554,1.554,0,0,0,.977.286,1.508,1.508,0,0,0,.9-.224A.694.694,0,0,0,945.688,1399.848Z" transform="translate(-867.017 -1392.48)" fill="#4d4d4d"/>
        <path id="Trazado_5111" data-name="Trazado 5111" d="M969.225,1385.944a.794.794,0,0,1,.218-.572.825.825,0,0,1,.624-.227.836.836,0,0,1,.627.227.788.788,0,0,1,.221.572.769.769,0,0,1-.221.562.841.841,0,0,1-.627.224.83.83,0,0,1-.624-.224A.774.774,0,0,1,969.225,1385.944Zm1.585,8.374h-1.493v-6.648h1.493Z" transform="translate(-887.783 -1385.145)" fill="#4d4d4d"/>
        <path id="Trazado_5112" data-name="Trazado 5112" d="M981.1,1398.268a3.916,3.916,0,0,1,.387-1.76,2.825,2.825,0,0,1,1.087-1.2,3.063,3.063,0,0,1,1.61-.421,2.905,2.905,0,0,1,2.184.866,3.409,3.409,0,0,1,.906,2.3l.006.35a3.951,3.951,0,0,1-.378,1.757,2.793,2.793,0,0,1-1.081,1.2,3.086,3.086,0,0,1-1.625.424,2.883,2.883,0,0,1-2.252-.937,3.588,3.588,0,0,1-.845-2.5Zm1.493.129a2.68,2.68,0,0,0,.424,1.607,1.379,1.379,0,0,0,1.18.581,1.364,1.364,0,0,0,1.177-.59,2.959,2.959,0,0,0,.421-1.727,2.644,2.644,0,0,0-.433-1.6,1.46,1.46,0,0,0-2.338-.009A2.9,2.9,0,0,0,982.6,1398.4Z" transform="translate(-896.731 -1392.48)" fill="#4d4d4d"/>
        <path id="Trazado_5113" data-name="Trazado 5113" d="M1012.592,1395.006l.043.768a2.39,2.39,0,0,1,1.935-.89q2.077,0,2.114,2.378v4.393h-1.493v-4.307a1.371,1.371,0,0,0-.273-.937,1.151,1.151,0,0,0-.894-.3,1.438,1.438,0,0,0-1.345.817v4.731h-1.493v-6.648Z" transform="translate(-919.391 -1392.48)" fill="#4d4d4d"/>
        <path id="Trazado_5114" data-name="Trazado 5114" d="M1041.785,1401.776a3.087,3.087,0,0,1-2.3-.894,3.242,3.242,0,0,1-.882-2.381v-.184a3.991,3.991,0,0,1,.384-1.779,2.924,2.924,0,0,1,1.079-1.22,2.854,2.854,0,0,1,1.548-.436,2.61,2.61,0,0,1,2.1.866,3.665,3.665,0,0,1,.74,2.452v.6h-4.344a2,2,0,0,0,.55,1.3,1.651,1.651,0,0,0,1.214.479,2.021,2.021,0,0,0,1.671-.83l.805.768a2.681,2.681,0,0,1-1.066.925A3.334,3.334,0,0,1,1041.785,1401.776Zm-.178-5.7a1.258,1.258,0,0,0-.992.43,2.23,2.23,0,0,0-.482,1.2h2.844v-.111a1.813,1.813,0,0,0-.4-1.133A1.248,1.248,0,0,0,1041.606,1396.081Z" transform="translate(-940.043 -1392.48)" fill="#4d4d4d"/>
        <path id="Trazado_5115" data-name="Trazado 5115" d="M1069.8,1399.848a.678.678,0,0,0-.329-.609,3.526,3.526,0,0,0-1.09-.369,5.593,5.593,0,0,1-1.272-.405,1.7,1.7,0,0,1-1.118-1.567,1.77,1.77,0,0,1,.725-1.438,2.866,2.866,0,0,1,1.843-.577,2.985,2.985,0,0,1,1.926.589,1.872,1.872,0,0,1,.734,1.53h-1.493a.922.922,0,0,0-.319-.716,1.227,1.227,0,0,0-.848-.286,1.325,1.325,0,0,0-.8.228.717.717,0,0,0-.31.608.605.605,0,0,0,.289.534,3.96,3.96,0,0,0,1.167.384,5.529,5.529,0,0,1,1.379.461,1.951,1.951,0,0,1,.743.642,1.637,1.637,0,0,1,.243.91,1.732,1.732,0,0,1-.744,1.453,3.168,3.168,0,0,1-1.948.556,3.437,3.437,0,0,1-1.456-.295,2.4,2.4,0,0,1-1-.811,1.92,1.92,0,0,1-.356-1.112h1.45a1.052,1.052,0,0,0,.4.815,1.554,1.554,0,0,0,.977.286,1.507,1.507,0,0,0,.9-.224A.694.694,0,0,0,1069.8,1399.848Z" transform="translate(-960.508 -1392.48)" fill="#4d4d4d"/>
        <path id="Trazado_5116" data-name="Trazado 5116" d="M1109.35,1401.654a2.287,2.287,0,0,1-.172-.62,2.512,2.512,0,0,1-3.38.172,1.828,1.828,0,0,1-.633-1.413,1.887,1.887,0,0,1,.79-1.631,3.827,3.827,0,0,1,2.258-.569h.916v-.436a1.166,1.166,0,0,0-.289-.827,1.146,1.146,0,0,0-.879-.31,1.316,1.316,0,0,0-.836.255.789.789,0,0,0-.325.648h-1.493a1.658,1.658,0,0,1,.363-1.023,2.414,2.414,0,0,1,.986-.746,3.461,3.461,0,0,1,1.392-.27,2.792,2.792,0,0,1,1.862.586,2.093,2.093,0,0,1,.713,1.65v3a3.387,3.387,0,0,0,.252,1.431v.1Zm-1.641-1.075a1.7,1.7,0,0,0,.833-.215,1.442,1.442,0,0,0,.587-.578v-1.253h-.805a2.2,2.2,0,0,0-1.248.289.936.936,0,0,0-.418.817.874.874,0,0,0,.286.685A1.107,1.107,0,0,0,1107.71,1400.578Z" transform="translate(-990.184 -1392.48)" fill="#4d4d4d"/>
        <path id="Trazado_5117" data-name="Trazado 5117" d="M1134.936,1395.006l.043.768a2.391,2.391,0,0,1,1.936-.89q2.077,0,2.114,2.378v4.393h-1.493v-4.307a1.371,1.371,0,0,0-.273-.937,1.15,1.15,0,0,0-.894-.3,1.438,1.438,0,0,0-1.346.817v4.731h-1.493v-6.648Z" transform="translate(-1011.548 -1392.48)" fill="#4d4d4d"/>
        <path id="Trazado_5118" data-name="Trazado 5118" d="M1161.667,1388.83v1.616h1.174v1.106h-1.174v3.711a.818.818,0,0,0,.151.55.7.7,0,0,0,.538.168,2.294,2.294,0,0,0,.522-.061v1.155a3.684,3.684,0,0,1-.983.141q-1.72,0-1.72-1.9v-3.766h-1.094v-1.106h1.094v-1.616Z" transform="translate(-1030.795 -1387.921)" fill="#4d4d4d"/>
        <path id="Trazado_5119" data-name="Trazado 5119" d="M1181.089,1401.776a3.088,3.088,0,0,1-2.3-.894,3.243,3.243,0,0,1-.882-2.381v-.184a3.987,3.987,0,0,1,.384-1.779,2.927,2.927,0,0,1,1.078-1.22,2.856,2.856,0,0,1,1.548-.436,2.61,2.61,0,0,1,2.1.866,3.665,3.665,0,0,1,.74,2.452v.6h-4.344a1.994,1.994,0,0,0,.55,1.3,1.651,1.651,0,0,0,1.214.479,2.022,2.022,0,0,0,1.671-.83l.8.768a2.682,2.682,0,0,1-1.066.925A3.334,3.334,0,0,1,1181.089,1401.776Zm-.178-5.7a1.258,1.258,0,0,0-.992.43,2.233,2.233,0,0,0-.483,1.2h2.845v-.111a1.815,1.815,0,0,0-.4-1.133A1.249,1.249,0,0,0,1180.91,1396.081Z" transform="translate(-1044.976 -1392.48)" fill="#4d4d4d"/>
        <path id="Trazado_5120" data-name="Trazado 5120" d="M1209.779,1396.37a3.673,3.673,0,0,0-.608-.049,1.37,1.37,0,0,0-1.382.786v4.547H1206.3v-6.648h1.425l.037.743a1.682,1.682,0,0,1,1.5-.866,1.4,1.4,0,0,1,.528.086Z" transform="translate(-1066.361 -1392.48)" fill="#4d4d4d"/>
        <path id="Trazado_5121" data-name="Trazado 5121" d="M1224.249,1385.944a.793.793,0,0,1,.218-.572.825.825,0,0,1,.623-.227.836.836,0,0,1,.627.227.787.787,0,0,1,.221.572.768.768,0,0,1-.221.562.841.841,0,0,1-.627.224.83.83,0,0,1-.623-.224A.773.773,0,0,1,1224.249,1385.944Zm1.585,8.374h-1.493v-6.648h1.493Z" transform="translate(-1079.885 -1385.145)" fill="#4d4d4d"/>
        <path id="Trazado_5122" data-name="Trazado 5122" d="M1236.127,1398.268a3.918,3.918,0,0,1,.387-1.76,2.824,2.824,0,0,1,1.087-1.2,3.064,3.064,0,0,1,1.61-.421,2.9,2.9,0,0,1,2.184.866,3.409,3.409,0,0,1,.906,2.3l.006.35a3.954,3.954,0,0,1-.378,1.757,2.791,2.791,0,0,1-1.081,1.2,3.087,3.087,0,0,1-1.625.424,2.883,2.883,0,0,1-2.252-.937,3.588,3.588,0,0,1-.845-2.5Zm1.493.129a2.682,2.682,0,0,0,.424,1.607,1.38,1.38,0,0,0,1.18.581,1.363,1.363,0,0,0,1.177-.59,2.959,2.959,0,0,0,.421-1.727,2.644,2.644,0,0,0-.433-1.6,1.46,1.46,0,0,0-2.338-.009A2.9,2.9,0,0,0,1237.62,1398.4Z" transform="translate(-1088.832 -1392.48)" fill="#4d4d4d"/>
        <path id="Trazado_5123" data-name="Trazado 5123" d="M1269.768,1396.37a3.672,3.672,0,0,0-.608-.049,1.37,1.37,0,0,0-1.382.786v4.547h-1.493v-6.648h1.426l.037.743a1.682,1.682,0,0,1,1.5-.866,1.4,1.4,0,0,1,.529.086Z" transform="translate(-1111.549 -1392.48)" fill="#4d4d4d"/>
        <path id="Trazado_5124" data-name="Trazado 5124" d="M1286.375,1401.776a3.088,3.088,0,0,1-2.3-.894,3.242,3.242,0,0,1-.882-2.381v-.184a3.991,3.991,0,0,1,.384-1.779,2.924,2.924,0,0,1,1.078-1.22,2.854,2.854,0,0,1,1.549-.436,2.61,2.61,0,0,1,2.1.866,3.664,3.664,0,0,1,.74,2.452v.6H1284.7a2,2,0,0,0,.55,1.3,1.652,1.652,0,0,0,1.214.479,2.021,2.021,0,0,0,1.671-.83l.805.768a2.682,2.682,0,0,1-1.066.925A3.336,3.336,0,0,1,1286.375,1401.776Zm-.178-5.7a1.258,1.258,0,0,0-.992.43,2.231,2.231,0,0,0-.482,1.2h2.844v-.111a1.813,1.813,0,0,0-.4-1.133A1.249,1.249,0,0,0,1286.2,1396.081Z" transform="translate(-1124.285 -1392.48)" fill="#4d4d4d"/>
        <path id="Trazado_5125" data-name="Trazado 5125" d="M1314.391,1399.848a.678.678,0,0,0-.329-.609,3.524,3.524,0,0,0-1.091-.369,5.593,5.593,0,0,1-1.272-.405,1.7,1.7,0,0,1-1.118-1.567,1.769,1.769,0,0,1,.725-1.438,2.865,2.865,0,0,1,1.843-.577,2.985,2.985,0,0,1,1.926.589,1.872,1.872,0,0,1,.734,1.53h-1.493a.921.921,0,0,0-.319-.716,1.226,1.226,0,0,0-.848-.286,1.325,1.325,0,0,0-.8.228.717.717,0,0,0-.31.608.605.605,0,0,0,.289.534,3.959,3.959,0,0,0,1.168.384,5.532,5.532,0,0,1,1.379.461,1.95,1.95,0,0,1,.744.642,1.639,1.639,0,0,1,.243.91,1.731,1.731,0,0,1-.743,1.453,3.169,3.169,0,0,1-1.948.556,3.436,3.436,0,0,1-1.456-.295,2.394,2.394,0,0,1-.995-.811,1.918,1.918,0,0,1-.357-1.112h1.45a1.052,1.052,0,0,0,.4.815,1.554,1.554,0,0,0,.977.286,1.509,1.509,0,0,0,.9-.224A.694.694,0,0,0,1314.391,1399.848Z" transform="translate(-1144.75 -1392.48)" fill="#4d4d4d"/>
      </g>
      <line id="Línea_2038" data-name="Línea 2038" x2="187.516" transform="translate(1080.741 3805.064)" fill="none" stroke="gray" stroke-width="1"/>
      <line id="Línea_2039" data-name="Línea 2039" x2="187.516" transform="translate(1080.741 3850.957)" fill="none" stroke="gray" stroke-width="1"/>
    </g>
    <g id="Grupo_43772" data-name="Grupo 43772" transform="translate(-256 -3237.688)">
      <text id="_20240602_2100_PREP.zip-3" data-name="20240602_2100_PREP.zip" transform="translate(692 3879.23)" fill="#fff" font-size="22" font-family="Roboto-Medium, Roboto" font-weight="500"><tspan x="-127" y="0">20240602_2100_PREP.zip</tspan></text>
      <g id="zip-ico" transform="translate(-352.09 8.301)">
        <path id="Trazado_15462-2" data-name="Trazado 15462" d="M437.867,694.374l0,96.763,36.389,34.943H598.2V732.223l-34.066-37.849Z" transform="translate(526.222 3013.849)" fill="#c6006d"/>
        <g id="Grupo_6399-2" data-name="Grupo 6399" transform="translate(964.09 3773.773)">
          <path id="Trazado_4996-2" data-name="Trazado 4996" d="M437.867,789.594l36.669,37.388H598.2l-32.355-37.388Z" transform="translate(-437.867 -789.594)" fill="#c6006d"/>
          <rect id="Rectángulo_15286-2" data-name="Rectángulo 15286" width="123.667" height="27.322" transform="translate(36.669 37.388)" fill="#620038"/>
          <path id="Trazado_4997-2" data-name="Trazado 4997" d="M437.867,789.594l36.669,37.388V854.3l-36.669-35.231Z" transform="translate(-437.867 -789.594)" fill="#fefefe"/>
          <rect id="Rectángulo_15287-2" data-name="Rectángulo 15287" width="2.914" height="17.256" transform="translate(40.535 42.421)" fill="#c6006d"/>
          <rect id="Rectángulo_15288-2" data-name="Rectángulo 15288" width="2.914" height="17.256" transform="translate(46.363 42.421)" fill="#c6006d"/>
        </g>
        <g id="Grupo_6400-2" data-name="Grupo 6400" transform="translate(964.09 3740.733)">
          <path id="Trazado_4998-2" data-name="Trazado 4998" d="M437.867,739.595l36.669,37.388H598.2l-32.355-37.388Z" transform="translate(-437.867 -739.595)" fill="#c6006d"/>
          <rect id="Rectángulo_15289-2" data-name="Rectángulo 15289" width="123.667" height="27.322" transform="translate(36.669 37.388)" fill="#620038"/>
          <path id="Trazado_4999-2" data-name="Trazado 4999" d="M437.867,739.595l36.669,37.388V804.3l-36.669-35.231Z" transform="translate(-437.867 -739.595)" fill="#fefefe"/>
          <rect id="Rectángulo_15290-2" data-name="Rectángulo 15290" width="2.914" height="17.256" transform="translate(40.535 42.421)" fill="#c6006d"/>
          <rect id="Rectángulo_15291-2" data-name="Rectángulo 15291" width="2.914" height="17.256" transform="translate(46.363 42.421)" fill="#c6006d"/>
        </g>
        <g id="Grupo_6401-2" data-name="Grupo 6401" transform="translate(964.09 3708.223)">
          <path id="Trazado_5000-2" data-name="Trazado 5000" d="M437.867,694.374l36.669,37.388H598.2l-32.355-37.388Z" transform="translate(-437.867 -694.374)" fill="#c6006d"/>
          <rect id="Rectángulo_15292-2" data-name="Rectángulo 15292" width="123.667" height="27.322" transform="translate(36.668 37.388)" fill="#620038"/>
          <path id="Trazado_5001-2" data-name="Trazado 5001" d="M437.867,694.374l36.669,37.388v27.322l-36.669-35.231Z" transform="translate(-437.867 -694.374)" fill="#fefefe"/>
          <rect id="Rectángulo_15293-2" data-name="Rectángulo 15293" width="2" height="17" transform="translate(41.137 41.715)" fill="#c6006d"/>
          <rect id="Rectángulo_15294-2" data-name="Rectángulo 15294" width="3" height="17" transform="translate(46.137 41.715)" fill="#c6006d"/>
        </g>
      </g>
    </g>
  </g>
</svg>
