<svg xmlns="http://www.w3.org/2000/svg" width="99" height="99" viewBox="0 0 99 99">
  <g id="Grupo_43782" data-name="Grupo 43782" transform="translate(-158 -252)">
    <circle id="Elipse_1" data-name="Elipse 1" cx="49.5" cy="49.5" r="49.5" transform="translate(158 252)" fill="#fff"/>
    <g id="Grupo_43773" data-name="Grupo 43773" transform="translate(29.597 224.635)">
      <path id="Trazado_4829" data-name="Trazado 4829" d="M4824.91,306.774v42.882H4756.1V306.774a3.994,3.994,0,0,1,4.227-3.712h60.354A3.994,3.994,0,0,1,4824.91,306.774Z" transform="translate(-4613.104 -247.504)" fill="#98145e"/>
      <path id="Trazado_4830" data-name="Trazado 4830" d="M4786.755,293.48V298.9H4756.1V293.48a3.553,3.553,0,0,1,3.553-3.553H4783.2A3.552,3.552,0,0,1,4786.755,293.48Z" transform="translate(-4613.104 -238.563)" fill="#98145e"/>
      <rect id="Rectángulo_15255" data-name="Rectángulo 15255" width="6.762" height="67.28" rx="3.381" transform="translate(143.613 63.672) rotate(-90)" fill="#fff"/>
      <path id="Trazado_4831" data-name="Trazado 4831" d="M4824.91,314.119v40.667H4756.1V314.119c0-1.944,1.892-3.519,4.227-3.519h60.354C4823.018,310.6,4824.91,312.176,4824.91,314.119Z" transform="translate(-4613.104 -252.635)" fill="#d3097f"/>
    </g>
  </g>
</svg>
