<svg xmlns="http://www.w3.org/2000/svg" width="592.801" height="592.801" viewBox="0 0 592.801 592.801">
  <g id="Grupo_43762" data-name="Grupo 43762" transform="translate(-1287.283 -1512.971)">
    <path id="Trazado_8406" data-name="Trazado 8406" d="M296.4,0C460.1,0,592.8,132.7,592.8,296.4S460.1,592.8,296.4,592.8,0,460.1,0,296.4,132.7,0,296.4,0Z" transform="translate(1287.283 1512.971)" fill="#fff"/>
    <rect id="Rectángulo_16231" data-name="Rectángulo 16231" width="246.14" height="258.326" transform="translate(1543.649 1732.966)" fill="none" stroke="#a19cc1" stroke-width="6"/>
    <path id="Trazado_8140" data-name="Trazado 8140" d="M-2013.855-826.548l-34.515-23.912v13.648c-6.462,1.046-14.173,1.029-21.189-2.712-27.964-14.911-18.947-75.131-21.873-75.188-3.111-.059-24.974,67.748,10.252,92.276,11.111,7.736,24.022,8.466,32.809,7.842v11.958Z" transform="translate(3531.195 2712.592)" fill="#582d73"/>
    <text id="LEEME.txt" transform="translate(1683 1929.991)" fill="#34344e" font-size="18" font-family="Roboto-Medium, Roboto" font-weight="500"><tspan x="0" y="0">LEEME.txt</tspan></text>
    <text id="GUB.csv" transform="translate(1683 1812.176)" fill="#34344e" font-size="18" font-family="Roboto-Medium, Roboto" font-weight="500"><tspan x="0" y="0">GUB.csv</tspan></text>
    <text id="_20240602_2100__PREP_GUB.zip" data-name="20240602_2100_
PREP_GUB.zip" transform="translate(1430 1754.966)" fill="#34344e" font-size="18" font-family="Roboto-Medium, Roboto" font-weight="500"><tspan x="-69" y="0">20240602_2100_</tspan><tspan x="-58" y="21">PREP_GUB.zip</tspan></text>
    <g id="Grupo_43764" data-name="Grupo 43764" transform="translate(408.91 -2080.773)">
      <path id="Trazado_15462" data-name="Trazado 15462" d="M437.867,694.374l0,69.5,26.137,25.1h89.023V721.56l-24.468-27.186Z" transform="translate(526.222 3013.849)" fill="#c6006d"/>
      <g id="Grupo_6399" data-name="Grupo 6399" transform="translate(964.09 3755.305)">
        <path id="Trazado_4996" data-name="Trazado 4996" d="M437.867,789.594l26.338,26.854h88.826l-23.239-26.854Z" transform="translate(-437.867 -789.594)" fill="#c6006d"/>
        <rect id="Rectángulo_15286" data-name="Rectángulo 15286" width="88.826" height="19.624" transform="translate(26.338 26.854)" fill="#620038"/>
        <path id="Trazado_4997" data-name="Trazado 4997" d="M437.867,789.594l26.338,26.854v19.624l-26.338-25.305Z" transform="translate(-437.867 -789.594)" fill="#fefefe"/>
        <rect id="Rectángulo_15287" data-name="Rectángulo 15287" width="2.093" height="12.394" transform="translate(29.115 30.469)" fill="#c6006d"/>
        <rect id="Rectángulo_15288" data-name="Rectángulo 15288" width="2.093" height="12.394" transform="translate(33.301 30.469)" fill="#c6006d"/>
      </g>
      <g id="Grupo_6400" data-name="Grupo 6400" transform="translate(964.09 3731.574)">
        <path id="Trazado_4998" data-name="Trazado 4998" d="M437.867,739.595l26.338,26.854h88.826l-23.239-26.854Z" transform="translate(-437.867 -739.595)" fill="#c6006d"/>
        <rect id="Rectángulo_15289" data-name="Rectángulo 15289" width="88.826" height="19.624" transform="translate(26.338 26.854)" fill="#620038"/>
        <path id="Trazado_4999" data-name="Trazado 4999" d="M437.867,739.595l26.338,26.854v19.624l-26.338-25.305Z" transform="translate(-437.867 -739.595)" fill="#fefefe"/>
        <rect id="Rectángulo_15290" data-name="Rectángulo 15290" width="2.093" height="12.394" transform="translate(29.115 30.469)" fill="#c6006d"/>
        <rect id="Rectángulo_15291" data-name="Rectángulo 15291" width="2.093" height="12.394" transform="translate(33.301 30.469)" fill="#c6006d"/>
      </g>
      <g id="Grupo_6401" data-name="Grupo 6401" transform="translate(964.09 3708.223)">
        <path id="Trazado_5000" data-name="Trazado 5000" d="M437.867,694.374l26.338,26.854h88.826l-23.239-26.854Z" transform="translate(-437.867 -694.374)" fill="#c6006d"/>
        <rect id="Rectángulo_15292" data-name="Rectángulo 15292" width="88.826" height="19.625" transform="translate(26.338 26.854)" fill="#620038"/>
        <path id="Trazado_5001" data-name="Trazado 5001" d="M437.867,694.374l26.338,26.854v19.624l-26.338-25.3Z" transform="translate(-437.867 -694.374)" fill="#fefefe"/>
        <rect id="Rectángulo_15293" data-name="Rectángulo 15293" width="1.437" height="12.21" transform="translate(29.547 29.963)" fill="#c6006d"/>
        <rect id="Rectángulo_15294" data-name="Rectángulo 15294" width="2.155" height="12.21" transform="translate(33.138 29.963)" fill="#c6006d"/>
      </g>
    </g>
    <g id="Grupo_7214" data-name="Grupo 7214" transform="translate(1589.394 1863.569)">
      <g id="Grupo_7213" data-name="Grupo 7213" transform="translate(0 14)">
        <path id="Trazado_8211" data-name="Trazado 8211" d="M7738.994,679.448h-64.929v-84.2l49.132-.03,15.828,16.883Z" transform="translate(-7674.065 -595.223)" fill="none" stroke="#e6007e" stroke-width="1"/>
        <rect id="Rectángulo_16254" data-name="Rectángulo 16254" width="64.929" height="16.891" transform="translate(0 67.595)" fill="#c6006d"/>
        <rect id="Rectángulo_16255" data-name="Rectángulo 16255" width="64.929" height="16.891" transform="translate(0 50.704)" fill="#a5005d"/>
        <rect id="Rectángulo_16256" data-name="Rectángulo 16256" width="64.929" height="16.891" transform="translate(0 33.813)" fill="#82004b"/>
        <rect id="Rectángulo_16257" data-name="Rectángulo 16257" width="64.929" height="16.891" transform="translate(0 16.921)" fill="#620038"/>
        <path id="Trazado_8212" data-name="Trazado 8212" d="M7674.065,612.273V595.381l49.264.1,15.665,16.789Z" transform="translate(-7674.065 -595.352)" fill="#3f0225"/>
        <path id="Trazado_8213" data-name="Trazado 8213" d="M7674.065,596.076v84.2h64.929S7674.065,679.984,7674.065,596.076Z" transform="translate(-7674.065 -595.915)" fill="#fff" opacity="0.27"/>
        <path id="Trazado_8214" data-name="Trazado 8214" d="M7936.5,596.076v16.761l15.365.093Z" transform="translate(-7887.042 -595.915)" fill="#c6006d"/>
      </g>
    </g>
    <g id="Grupo_7234" data-name="Grupo 7234" transform="translate(1570.578 1762.932)">
      <g id="Grupo_7231" data-name="Grupo 7231" transform="translate(0)">
        <path id="Trazado_8280" data-name="Trazado 8280" d="M5910.97,679.448h-64.929v-84.2l49.132-.03L5911,612.105Z" transform="translate(-5827.225 -595.223)" fill="none" stroke="#e6007e" stroke-width="1"/>
        <rect id="Rectángulo_16272" data-name="Rectángulo 16272" width="64.929" height="16.891" transform="translate(18.817 67.595)" fill="#c6006d"/>
        <rect id="Rectángulo_16273" data-name="Rectángulo 16273" width="64.929" height="16.891" transform="translate(18.817 50.704)" fill="#a5005d"/>
        <rect id="Rectángulo_16274" data-name="Rectángulo 16274" width="64.929" height="16.891" transform="translate(18.817 33.813)" fill="#82004b"/>
        <rect id="Rectángulo_16275" data-name="Rectángulo 16275" width="64.929" height="16.891" transform="translate(18.817 16.921)" fill="#620038"/>
        <path id="Trazado_8281" data-name="Trazado 8281" d="M5846.041,612.273V595.381l49.264.1,15.665,16.789Z" transform="translate(-5827.225 -595.352)" fill="#3f0225"/>
        <path id="Trazado_8282" data-name="Trazado 8282" d="M5846.041,596.076v84.2h64.929S5846.041,679.984,5846.041,596.076Z" transform="translate(-5827.225 -595.915)" fill="#fff" opacity="0.27"/>
        <rect id="Rectángulo_16276" data-name="Rectángulo 16276" width="31.526" height="33.74" transform="translate(0 27.989)" fill="#f188be"/>
        <g id="Grupo_7230" data-name="Grupo 7230" transform="translate(8.354 35.088)">
          <path id="Trazado_8283" data-name="Trazado 8283" d="M5798.349,786.429l2.837-5.033H5806l-4.8,8.258,5,8.6h-4.829l-3.007-5.3-2.992,5.3h-4.845l5-8.6-4.784-8.258h4.831Z" transform="translate(-5790.528 -781.396)" fill="#fff"/>
        </g>
        <path id="Trazado_8284" data-name="Trazado 8284" d="M6108.48,596.076v16.761l15.365.093Z" transform="translate(-6040.202 -595.915)" fill="#c6006d"/>
      </g>
    </g>
  </g>
</svg>
